<svg width="378" height="115" viewBox="0 0 378 115" fill="none" xmlns="http://www.w3.org/2000/svg">
<rect x="160.153" y="19.6552" width="64.7283" height="18.6943" rx="9.34713" stroke="#170000" stroke-width="1.45594"/>
<path d="M165.249 33.2537V24.751H166.798L167.648 27.4765C167.734 27.7327 167.808 27.9812 167.87 28.2219C167.932 28.4549 167.975 28.6296 167.998 28.7461C168.029 28.6296 168.072 28.4549 168.126 28.2219C168.188 27.9812 168.258 27.7327 168.336 27.4765L169.151 24.751H170.7V33.2537H169.512V30.3884C169.512 30.0234 169.52 29.6196 169.535 29.177C169.559 28.7267 169.59 28.2763 169.629 27.8259C169.667 27.3678 169.706 26.9329 169.745 26.5214C169.784 26.1021 169.819 25.7371 169.85 25.4265L168.592 29.5614H167.381L166.099 25.4265C166.138 25.7294 166.177 26.0827 166.216 26.4865C166.255 26.8825 166.29 27.3057 166.321 27.756C166.352 28.2064 166.379 28.6607 166.402 29.1188C166.425 29.5692 166.437 29.9924 166.437 30.3884V33.2537H165.249Z" fill="#170000"/>
<path d="M171.965 33.2537L174.132 24.751H175.786L177.952 33.2537H176.682L176.17 31.0989H173.759L173.246 33.2537H171.965ZM173.992 30.0622H175.925L175.343 27.6046C175.242 27.1698 175.157 26.7932 175.087 26.4748C175.025 26.1487 174.982 25.9274 174.959 25.8109C174.935 25.9274 174.893 26.1487 174.83 26.4748C174.768 26.7932 174.683 27.1659 174.574 27.593L173.992 30.0622Z" fill="#170000"/>
<path d="M178.844 33.2537L181.244 28.9208L178.984 24.751H180.405L181.593 27.0688C181.663 27.2164 181.733 27.3639 181.803 27.5114C181.873 27.659 181.927 27.7716 181.966 27.8492C181.997 27.7716 182.047 27.659 182.117 27.5114C182.187 27.3639 182.257 27.2164 182.327 27.0688L183.538 24.751H184.901L182.641 28.8742L185.041 33.2537H183.62L182.304 30.7378C182.226 30.5903 182.152 30.4427 182.082 30.2952C182.012 30.1399 181.958 30.0195 181.919 29.9341C181.888 30.0195 181.838 30.136 181.768 30.2835C181.698 30.4311 181.628 30.5786 181.558 30.7261L180.219 33.2537H178.844Z" fill="#170000"/>
<path d="M193.686 33.2537V24.751H194.944V32.1006H198.659V33.2537H193.686Z" fill="#170000"/>
<path d="M199.901 33.2537L202.067 24.751H203.721L205.888 33.2537H204.618L204.106 31.0989H201.695L201.182 33.2537H199.901ZM201.928 30.0622H203.861L203.279 27.6046C203.178 27.1698 203.092 26.7932 203.022 26.4748C202.96 26.1487 202.918 25.9274 202.894 25.8109C202.871 25.9274 202.828 26.1487 202.766 26.4748C202.704 26.7932 202.619 27.1659 202.51 27.593L201.928 30.0622Z" fill="#170000"/>
<path d="M207.526 33.2537V32.1355H209.238V25.8691H207.526V24.751H212.231V25.8691H210.519V32.1355H212.231V33.2537H207.526Z" fill="#170000"/>
<path d="M214.346 33.2537V24.751H217.014C217.549 24.751 218.015 24.8558 218.411 25.0655C218.807 25.2673 219.114 25.5547 219.332 25.9274C219.557 26.3001 219.669 26.7388 219.669 27.2435C219.669 27.8104 219.522 28.3035 219.227 28.7228C218.939 29.1343 218.547 29.4255 218.05 29.5963L219.786 33.2537H218.353L216.804 29.7594H215.604V33.2537H214.346ZM215.604 28.6529H217.014C217.433 28.6529 217.767 28.5287 218.015 28.2802C218.264 28.0239 218.388 27.6861 218.388 27.2668C218.388 26.832 218.264 26.4903 218.015 26.2419C217.767 25.9934 217.433 25.8691 217.014 25.8691H215.604V28.6529Z" fill="#170000"/>
<path d="M3.27878 60.6858V52.1831H8.27556V53.3012H4.51341V55.7123H7.86789V56.8188H4.51341V59.5676H8.27556V60.6858H3.27878Z" fill="#170000"/>
<path d="M10.1113 60.6858V52.1831H11.6954L14.1763 59.2531C14.1608 59.0279 14.1414 58.76 14.1181 58.4494C14.0948 58.1388 14.0754 57.8166 14.0598 57.4827C14.0521 57.1488 14.0482 56.846 14.0482 56.5742V52.1831H15.2129V60.6858H13.6289L11.1596 53.6157C11.1751 53.8176 11.1906 54.07 11.2062 54.3728C11.2295 54.6756 11.245 54.9901 11.2528 55.3163C11.2683 55.6424 11.2761 55.9452 11.2761 56.2248V60.6858H10.1113Z" fill="#170000"/>
<path d="M19.6927 60.8022C19.1646 60.8022 18.7026 60.7052 18.3066 60.5111C17.9184 60.3092 17.6155 60.0219 17.3981 59.6491C17.1885 59.2687 17.0836 58.826 17.0836 58.3213V54.5475C17.0836 54.035 17.1885 53.5924 17.3981 53.2197C17.6155 52.847 17.9184 52.5636 18.3066 52.3694C18.7026 52.1676 19.1646 52.0666 19.6927 52.0666C20.2207 52.0666 20.6788 52.1676 21.0671 52.3694C21.4553 52.5713 21.7543 52.8586 21.9639 53.2314C22.1813 53.5963 22.2901 54.035 22.2901 54.5475H21.0321C21.0321 54.1049 20.9157 53.7671 20.6827 53.5342C20.4498 53.3012 20.1197 53.1848 19.6927 53.1848C19.2656 53.1848 18.9317 53.3012 18.691 53.5342C18.458 53.7671 18.3416 54.101 18.3416 54.5359V58.3213C18.3416 58.7562 18.458 59.0939 18.691 59.3347C18.9317 59.5754 19.2656 59.6957 19.6927 59.6957C20.1197 59.6957 20.4498 59.5754 20.6827 59.3347C20.9157 59.0939 21.0321 58.7562 21.0321 58.3213V57.3662H19.4481V56.2597H22.2901V58.3213C22.2901 58.826 22.1813 59.2648 21.9639 59.6375C21.7543 60.0102 21.4553 60.2975 21.0671 60.4994C20.6788 60.7013 20.2207 60.8022 19.6927 60.8022Z" fill="#170000"/>
<path d="M24.2772 60.6858V59.5676H25.9894V53.3012H24.2772V52.1831H28.9828V53.3012H27.2706V59.5676H28.9828V60.6858H24.2772Z" fill="#170000"/>
<path d="M31.0632 60.6858V52.1831H32.6472L35.1282 59.2531C35.1126 59.0279 35.0932 58.76 35.0699 58.4494C35.0466 58.1388 35.0272 57.8166 35.0117 57.4827C35.0039 57.1488 35 56.846 35 56.5742V52.1831H36.1648V60.6858H34.5807L32.1115 53.6157C32.127 53.8176 32.1425 54.07 32.158 54.3728C32.1813 54.6756 32.1969 54.9901 32.2046 55.3163C32.2202 55.6424 32.2279 55.9452 32.2279 56.2248V60.6858H31.0632Z" fill="#170000"/>
<path d="M38.1986 60.6858V52.1831H43.1953V53.3012H39.4332V55.7123H42.7877V56.8188H39.4332V59.5676H43.1953V60.6858H38.1986Z" fill="#170000"/>
<path d="M45.1825 60.6858V52.1831H50.1793V53.3012H46.4171V55.7123H49.7716V56.8188H46.4171V59.5676H50.1793V60.6858H45.1825Z" fill="#170000"/>
<path d="M52.05 60.6858V52.1831H54.7173C55.2531 52.1831 55.719 52.2879 56.115 52.4976C56.511 52.6995 56.8177 52.9868 57.0351 53.3595C57.2603 53.7322 57.3729 54.1709 57.3729 54.6756C57.3729 55.2425 57.2254 55.7356 56.9303 56.1549C56.643 56.5664 56.2509 56.8576 55.7539 57.0284L57.4894 60.6858H56.0567L54.5076 57.1915H53.3079V60.6858H52.05ZM53.3079 56.085H54.7173C55.1366 56.085 55.4705 55.9608 55.719 55.7123C55.9674 55.456 56.0917 55.1183 56.0917 54.6989C56.0917 54.2641 55.9674 53.9224 55.719 53.674C55.4705 53.4255 55.1366 53.3012 54.7173 53.3012H53.3079V56.085Z" fill="#170000"/>
<path d="M59.197 60.6858V59.5676H60.9092V53.3012H59.197V52.1831H63.9026V53.3012H62.1904V59.5676H63.9026V60.6858H59.197Z" fill="#170000"/>
<path d="M65.983 60.6858V52.1831H67.567L70.0479 59.2531C70.0324 59.0279 70.013 58.76 69.9897 58.4494C69.9664 58.1388 69.947 57.8166 69.9315 57.4827C69.9237 57.1488 69.9198 56.846 69.9198 56.5742V52.1831H71.0846V60.6858H69.5005L67.0312 53.6157C67.0468 53.8176 67.0623 54.07 67.0778 54.3728C67.1011 54.6756 67.1166 54.9901 67.1244 55.3163C67.1399 55.6424 67.1477 55.9452 67.1477 56.2248V60.6858H65.983Z" fill="#170000"/>
<path d="M75.5643 60.8022C75.0363 60.8022 74.5743 60.7052 74.1783 60.5111C73.79 60.3092 73.4872 60.0219 73.2698 59.6491C73.0601 59.2687 72.9553 58.826 72.9553 58.3213V54.5475C72.9553 54.035 73.0601 53.5924 73.2698 53.2197C73.4872 52.847 73.79 52.5636 74.1783 52.3694C74.5743 52.1676 75.0363 52.0666 75.5643 52.0666C76.0923 52.0666 76.5505 52.1676 76.9387 52.3694C77.327 52.5713 77.6259 52.8586 77.8356 53.2314C78.053 53.5963 78.1617 54.035 78.1617 54.5475H76.9038C76.9038 54.1049 76.7873 53.7671 76.5544 53.5342C76.3214 53.3012 75.9914 53.1848 75.5643 53.1848C75.1372 53.1848 74.8033 53.3012 74.5626 53.5342C74.3297 53.7671 74.2132 54.101 74.2132 54.5359V58.3213C74.2132 58.7562 74.3297 59.0939 74.5626 59.3347C74.8033 59.5754 75.1372 59.6957 75.5643 59.6957C75.9914 59.6957 76.3214 59.5754 76.5544 59.3347C76.7873 59.0939 76.9038 58.7562 76.9038 58.3213V57.3662H75.3197V56.2597H78.1617V58.3213C78.1617 58.826 78.053 59.2648 77.8356 59.6375C77.6259 60.0102 77.327 60.2975 76.9387 60.4994C76.5505 60.7013 76.0923 60.8022 75.5643 60.8022Z" fill="#170000"/>
<path d="M80.8477 62.5494L81.7795 58.927H83.4568L81.9426 62.5494H80.8477Z" fill="#170000"/>
<path d="M94.0003 60.6858V52.1714H99.1369V53.3362H95.2233V55.8753H98.834V57.0401H95.2466V60.6858H94.0003Z" fill="#170000"/>
<path d="M101.054 60.6858V52.1831H106.051V53.3012H102.289V55.7123H105.643V56.8188H102.289V59.5676H106.051V60.6858H101.054Z" fill="#170000"/>
<path d="M107.444 60.6858L109.611 52.1831H111.264L113.431 60.6858H112.161L111.649 58.531H109.238L108.725 60.6858H107.444ZM109.471 57.4943H111.404L110.822 55.0367C110.721 54.6019 110.636 54.2253 110.566 53.9069C110.504 53.5808 110.461 53.3595 110.438 53.243C110.414 53.3595 110.371 53.5808 110.309 53.9069C110.247 54.2253 110.162 54.598 110.053 55.0251L109.471 57.4943Z" fill="#170000"/>
<path d="M117.456 60.8022C116.882 60.8022 116.389 60.7091 115.977 60.5227C115.566 60.3286 115.247 60.0568 115.022 59.7074C114.797 59.3502 114.684 58.927 114.684 58.4378H115.931C115.931 58.826 116.066 59.1328 116.338 59.3579C116.61 59.5754 116.987 59.6841 117.468 59.6841C117.918 59.6841 118.272 59.5754 118.528 59.3579C118.784 59.1405 118.912 58.8416 118.912 58.4611C118.912 58.1427 118.823 57.8671 118.644 57.6341C118.474 57.4012 118.225 57.242 117.899 57.1566L116.827 56.8421C116.206 56.6635 115.725 56.3607 115.383 55.9336C115.049 55.4987 114.882 54.9824 114.882 54.3845C114.882 53.9186 114.987 53.5109 115.197 53.1615C115.406 52.812 115.705 52.5403 116.094 52.3461C116.482 52.152 116.94 52.055 117.468 52.055C118.245 52.055 118.866 52.2646 119.332 52.6839C119.805 53.1032 120.046 53.6662 120.054 54.3728H118.796C118.796 54.0001 118.676 53.7089 118.435 53.4992C118.202 53.2818 117.872 53.1731 117.445 53.1731C117.033 53.1731 116.711 53.2741 116.478 53.476C116.245 53.6701 116.129 53.9457 116.129 54.3029C116.129 54.6213 116.214 54.897 116.385 55.1299C116.563 55.3629 116.816 55.5259 117.142 55.6191L118.225 55.9452C118.846 56.1161 119.324 56.4189 119.658 56.8537C119.992 57.2886 120.159 57.8088 120.159 58.4145C120.159 58.8882 120.046 59.3075 119.821 59.6724C119.596 60.0296 119.281 60.3092 118.877 60.5111C118.474 60.7052 118 60.8022 117.456 60.8022Z" fill="#170000"/>
<path d="M122.053 60.6858V59.5676H123.765V53.3012H122.053V52.1831H126.758V53.3012H125.046V59.5676H126.758V60.6858H122.053Z" fill="#170000"/>
<path d="M128.885 60.6858V52.1831H131.389C132.197 52.1831 132.83 52.3772 133.288 52.7655C133.746 53.1537 133.975 53.6895 133.975 54.3728C133.975 54.7611 133.89 55.0988 133.719 55.3861C133.556 55.6657 133.327 55.8831 133.032 56.0384C132.737 56.1937 132.391 56.2714 131.995 56.2714V56.1549C132.422 56.1471 132.799 56.2286 133.125 56.3995C133.451 56.5625 133.707 56.8071 133.894 57.1333C134.08 57.4594 134.173 57.8477 134.173 58.298C134.173 58.7795 134.064 59.2026 133.847 59.5676C133.637 59.9248 133.335 60.2005 132.938 60.3946C132.55 60.5887 132.088 60.6858 131.552 60.6858H128.885ZM130.108 59.6025H131.448C131.898 59.6025 132.255 59.4822 132.519 59.2415C132.783 59.0008 132.915 58.6669 132.915 58.2398C132.915 57.8049 132.783 57.4555 132.519 57.1915C132.255 56.9275 131.898 56.7955 131.448 56.7955H130.108V59.6025ZM130.108 55.7472H131.378C131.797 55.7472 132.127 55.6346 132.368 55.4094C132.608 55.1843 132.729 54.8814 132.729 54.5009C132.729 54.1204 132.608 53.8215 132.368 53.6041C132.127 53.3789 131.801 53.2663 131.389 53.2663H130.108V55.7472Z" fill="#170000"/>
<path d="M136.149 60.6858V52.1831H137.407V59.5327H141.122V60.6858H136.149Z" fill="#170000"/>
<path d="M142.958 60.6858V52.1831H147.955V53.3012H144.193V55.7123H147.547V56.8188H144.193V59.5676H147.955V60.6858H142.958Z" fill="#170000"/>
<path d="M150.687 62.5494L151.619 58.927H153.296L151.782 62.5494H150.687Z" fill="#170000"/>
<path d="M166.309 60.8022C165.494 60.8022 164.865 60.5809 164.422 60.1383C163.98 59.688 163.758 59.0784 163.758 58.3097V52.1831H165.016V58.3097C165.016 58.7367 165.121 59.0745 165.331 59.323C165.548 59.5715 165.874 59.6957 166.309 59.6957C166.736 59.6957 167.058 59.5715 167.276 59.323C167.493 59.0745 167.602 58.7367 167.602 58.3097V52.1831H168.86V58.3097C168.86 59.0784 168.639 59.688 168.196 60.1383C167.753 60.5809 167.124 60.8022 166.309 60.8022Z" fill="#170000"/>
<path d="M173.328 60.8022C172.753 60.8022 172.26 60.7091 171.849 60.5227C171.437 60.3286 171.119 60.0568 170.894 59.7074C170.669 59.3502 170.556 58.927 170.556 58.4378H171.802C171.802 58.826 171.938 59.1328 172.21 59.3579C172.482 59.5754 172.858 59.6841 173.34 59.6841C173.79 59.6841 174.143 59.5754 174.4 59.3579C174.656 59.1405 174.784 58.8416 174.784 58.4611C174.784 58.1427 174.695 57.8671 174.516 57.6341C174.345 57.4012 174.097 57.242 173.771 57.1566L172.699 56.8421C172.078 56.6635 171.596 56.3607 171.255 55.9336C170.921 55.4987 170.754 54.9824 170.754 54.3845C170.754 53.9186 170.859 53.5109 171.068 53.1615C171.278 52.812 171.577 52.5403 171.965 52.3461C172.354 52.152 172.812 52.055 173.34 52.055C174.116 52.055 174.737 52.2646 175.203 52.6839C175.677 53.1032 175.918 53.6662 175.925 54.3728H174.668C174.668 54.0001 174.547 53.7089 174.306 53.4992C174.073 53.2818 173.743 53.1731 173.316 53.1731C172.905 53.1731 172.583 53.2741 172.35 53.476C172.117 53.6701 172 53.9457 172 54.3029C172 54.6213 172.086 54.897 172.256 55.1299C172.435 55.3629 172.687 55.5259 173.014 55.6191L174.097 55.9452C174.718 56.1161 175.196 56.4189 175.529 56.8537C175.863 57.2886 176.03 57.8088 176.03 58.4145C176.03 58.8882 175.918 59.3075 175.692 59.6724C175.467 60.0296 175.153 60.3092 174.749 60.5111C174.345 60.7052 173.872 60.8022 173.328 60.8022Z" fill="#170000"/>
<path d="M177.284 60.6858L179.45 52.1831H181.104L183.27 60.6858H182.001L181.488 58.531H179.077L178.565 60.6858H177.284ZM179.31 57.4943H181.244L180.661 55.0367C180.56 54.6019 180.475 54.2253 180.405 53.9069C180.343 53.5808 180.3 53.3595 180.277 53.243C180.254 53.3595 180.211 53.5808 180.149 53.9069C180.087 54.2253 180.001 54.598 179.893 55.0251L179.31 57.4943Z" fill="#170000"/>
<path d="M184.757 60.6858V52.1831H187.261C188.069 52.1831 188.701 52.3772 189.16 52.7655C189.618 53.1537 189.847 53.6895 189.847 54.3728C189.847 54.7611 189.761 55.0988 189.591 55.3861C189.427 55.6657 189.198 55.8831 188.903 56.0384C188.608 56.1937 188.263 56.2714 187.867 56.2714V56.1549C188.294 56.1471 188.67 56.2286 188.996 56.3995C189.323 56.5625 189.579 56.8071 189.765 57.1333C189.952 57.4594 190.045 57.8477 190.045 58.298C190.045 58.7795 189.936 59.2026 189.719 59.5676C189.509 59.9248 189.206 60.2005 188.81 60.3946C188.422 60.5887 187.96 60.6858 187.424 60.6858H184.757ZM185.98 59.6025H187.319C187.77 59.6025 188.127 59.4822 188.391 59.2415C188.655 59.0008 188.787 58.6669 188.787 58.2398C188.787 57.8049 188.655 57.4555 188.391 57.1915C188.127 56.9275 187.77 56.7955 187.319 56.7955H185.98V59.6025ZM185.98 55.7472H187.249C187.669 55.7472 187.999 55.6346 188.239 55.4094C188.48 55.1843 188.6 54.8814 188.6 54.5009C188.6 54.1204 188.48 53.8215 188.239 53.6041C187.999 53.3789 187.673 53.2663 187.261 53.2663H185.98V55.7472Z" fill="#170000"/>
<path d="M192.02 60.6858V52.1831H193.278V59.5327H196.994V60.6858H192.02Z" fill="#170000"/>
<path d="M198.83 60.6858V52.1831H203.826V53.3012H200.064V55.7123H203.419V56.8188H200.064V59.5676H203.826V60.6858H198.83Z" fill="#170000"/>
<path d="M214.393 60.8022C213.725 60.8022 213.205 60.6198 212.832 60.2548C212.46 59.8899 212.273 59.3851 212.273 58.7406V57.4711C212.273 57.0051 212.39 56.6208 212.623 56.3179C212.863 56.0073 213.201 55.8016 213.636 55.7006L213.52 55.8055C213.279 55.4793 213.1 55.1687 212.984 54.8737C212.867 54.5708 212.809 54.2719 212.809 53.9768C212.809 53.5963 212.898 53.2624 213.077 52.9751C213.256 52.6878 213.508 52.4665 213.834 52.3112C214.16 52.1481 214.541 52.0666 214.976 52.0666C215.434 52.0666 215.83 52.152 216.164 52.3228C216.505 52.4937 216.769 52.7305 216.956 53.0333C217.142 53.3362 217.235 53.7011 217.235 54.1282H216.024C216.024 53.9186 215.981 53.74 215.896 53.5924C215.81 53.4371 215.69 53.3207 215.535 53.243C215.379 53.1654 215.193 53.1265 214.976 53.1265C214.781 53.1265 214.607 53.1654 214.451 53.243C214.304 53.3129 214.191 53.4177 214.114 53.5575C214.036 53.6895 213.997 53.8526 213.997 54.0467C213.997 54.233 214.04 54.4388 214.125 54.664C214.218 54.8892 214.343 55.1105 214.498 55.3279L216.303 57.8438L217.037 56.4927H218.295L217.014 58.8338L218.342 60.6858H217.037L216.397 59.8006C215.837 60.4683 215.17 60.8022 214.393 60.8022ZM214.486 59.7307C214.727 59.7307 214.956 59.6569 215.174 59.5094C215.399 59.3618 215.589 59.1561 215.744 58.892L214.09 56.5975C213.888 56.6441 213.737 56.745 213.636 56.9003C213.543 57.0479 213.496 57.2381 213.496 57.4711V58.7406C213.496 59.0512 213.582 59.2958 213.753 59.4744C213.931 59.6453 214.176 59.7307 214.486 59.7307Z" fill="#170000"/>
<path d="M226.812 60.6858V59.5676H228.524V53.3012H226.812V52.1831H231.518V53.3012H229.805V59.5676H231.518V60.6858H226.812Z" fill="#170000"/>
<path d="M233.598 60.6858V52.1831H235.182L237.663 59.2531C237.647 59.0279 237.628 58.76 237.605 58.4494C237.581 58.1388 237.562 57.8166 237.546 57.4827C237.539 57.1488 237.535 56.846 237.535 56.5742V52.1831H238.7V60.6858H237.115L234.646 53.6157C234.662 53.8176 234.677 54.07 234.693 54.3728C234.716 54.6756 234.732 54.9901 234.739 55.3163C234.755 55.6424 234.763 55.9452 234.763 56.2248V60.6858H233.598Z" fill="#170000"/>
<path d="M240.582 60.6858V52.1831H242.166L244.647 59.2531C244.631 59.0279 244.612 58.76 244.589 58.4494C244.565 58.1388 244.546 57.8166 244.53 57.4827C244.523 57.1488 244.519 56.846 244.519 56.5742V52.1831H245.683V60.6858H244.099L241.63 53.6157C241.646 53.8176 241.661 54.07 241.677 54.3728C241.7 54.6756 241.716 54.9901 241.723 55.3163C241.739 55.6424 241.747 55.9452 241.747 56.2248V60.6858H240.582Z" fill="#170000"/>
<path d="M250.117 60.8022C249.589 60.8022 249.13 60.7052 248.742 60.5111C248.362 60.3092 248.067 60.0219 247.857 59.6491C247.655 59.2687 247.554 58.826 247.554 58.3213V54.5475C247.554 54.035 247.655 53.5924 247.857 53.2197C248.067 52.847 248.362 52.5636 248.742 52.3694C249.13 52.1676 249.589 52.0666 250.117 52.0666C250.645 52.0666 251.099 52.1676 251.479 52.3694C251.868 52.5636 252.163 52.847 252.365 53.2197C252.574 53.5924 252.679 54.0312 252.679 54.5359V58.3213C252.679 58.826 252.574 59.2687 252.365 59.6491C252.163 60.0219 251.868 60.3092 251.479 60.5111C251.099 60.7052 250.645 60.8022 250.117 60.8022ZM250.117 59.6841C250.544 59.6841 250.866 59.5676 251.083 59.3347C251.309 59.0939 251.421 58.7562 251.421 58.3213V54.5475C251.421 54.1049 251.309 53.7671 251.083 53.5342C250.866 53.3012 250.544 53.1848 250.117 53.1848C249.697 53.1848 249.375 53.3012 249.15 53.5342C248.925 53.7671 248.812 54.1049 248.812 54.5475V58.3213C248.812 58.7562 248.925 59.0939 249.15 59.3347C249.375 59.5676 249.697 59.6841 250.117 59.6841Z" fill="#170000"/>
<path d="M256.262 60.6858L254.107 52.1831H255.4L256.763 57.8438C256.848 58.1777 256.922 58.5116 256.984 58.8455C257.054 59.1716 257.104 59.4278 257.136 59.6142C257.167 59.4278 257.209 59.1716 257.264 58.8455C257.326 58.5116 257.4 58.1738 257.485 57.8321L258.836 52.1831H260.094L257.928 60.6858H256.262Z" fill="#170000"/>
<path d="M261.091 60.6858L263.258 52.1831H264.911L267.078 60.6858H265.808L265.296 58.531H262.885L262.372 60.6858H261.091ZM263.118 57.4943H265.051L264.469 55.0367C264.368 54.6019 264.283 54.2253 264.213 53.9069C264.151 53.5808 264.108 53.3595 264.085 53.243C264.061 53.3595 264.019 53.5808 263.956 53.9069C263.894 54.2253 263.809 54.598 263.7 55.0251L263.118 57.4943Z" fill="#170000"/>
<path d="M270.44 60.6858V53.3362H268.168V52.1714H273.969V53.3362H271.697V60.6858H270.44Z" fill="#170000"/>
<path d="M275.7 60.6858V59.5676H277.412V53.3012H275.7V52.1831H280.405V53.3012H278.693V59.5676H280.405V60.6858H275.7Z" fill="#170000"/>
<path d="M284.198 60.6858L282.043 52.1831H283.336L284.699 57.8438C284.784 58.1777 284.858 58.5116 284.92 58.8455C284.99 59.1716 285.04 59.4278 285.071 59.6142C285.102 59.4278 285.145 59.1716 285.199 58.8455C285.262 58.5116 285.335 58.1738 285.421 57.8321L286.772 52.1831H288.03L285.863 60.6858H284.198Z" fill="#170000"/>
<path d="M289.621 60.6858V52.1831H294.618V53.3012H290.856V55.7123H294.21V56.8188H290.856V59.5676H294.618V60.6858H289.621Z" fill="#170000"/>
<path d="M303.635 60.6858V59.5676H305.348V53.3012H303.635V52.1831H308.341V53.3012H306.629V59.5676H308.341V60.6858H303.635Z" fill="#170000"/>
<path d="M310.421 60.6858V52.1831H312.005L314.486 59.2531C314.471 59.0279 314.451 58.76 314.428 58.4494C314.405 58.1388 314.385 57.8166 314.37 57.4827C314.362 57.1488 314.358 56.846 314.358 56.5742V52.1831H315.523V60.6858H313.939L311.47 53.6157C311.485 53.8176 311.501 54.07 311.516 54.3728C311.54 54.6756 311.555 54.9901 311.563 55.3163C311.578 55.6424 311.586 55.9452 311.586 56.2248V60.6858H310.421Z" fill="#170000"/>
<path d="M319.327 60.6858V53.3362H317.056V52.1714H322.856V53.3362H320.585V60.6858H319.327Z" fill="#170000"/>
<path d="M324.541 60.6858V52.1831H329.538V53.3012H325.775V55.7123H329.13V56.8188H325.775V59.5676H329.538V60.6858H324.541Z" fill="#170000"/>
<path d="M331.408 60.6858V52.1831H334.076C334.611 52.1831 335.077 52.2879 335.473 52.4976C335.869 52.6995 336.176 52.9868 336.393 53.3595C336.619 53.7322 336.731 54.1709 336.731 54.6756C336.731 55.2425 336.584 55.7356 336.289 56.1549C336.001 56.5664 335.609 56.8576 335.112 57.0284L336.848 60.6858H335.415L333.866 57.1915H332.666V60.6858H331.408ZM332.666 56.085H334.076C334.495 56.085 334.829 55.9608 335.077 55.7123C335.326 55.456 335.45 55.1183 335.45 54.6989C335.45 54.2641 335.326 53.9224 335.077 53.674C334.829 53.4255 334.495 53.3012 334.076 53.3012H332.666V56.085Z" fill="#170000"/>
<path d="M338.439 60.6858V52.1714H343.575V53.3362H339.662V55.8753H343.272V57.0401H339.685V60.6858H338.439Z" fill="#170000"/>
<path d="M344.899 60.6858L347.065 52.1831H348.719L350.885 60.6858H349.616L349.103 58.531H346.692L346.18 60.6858H344.899ZM346.925 57.4943H348.859L348.276 55.0367C348.175 54.6019 348.09 54.2253 348.02 53.9069C347.958 53.5808 347.915 53.3595 347.892 53.243C347.869 53.3595 347.826 53.5808 347.764 53.9069C347.702 54.2253 347.616 54.598 347.508 55.0251L346.925 57.4943Z" fill="#170000"/>
<path d="M354.923 60.8022C354.395 60.8022 353.932 60.7052 353.536 60.5111C353.148 60.3092 352.845 60.0219 352.628 59.6491C352.418 59.2687 352.314 58.826 352.314 58.3213V54.5475C352.314 54.035 352.418 53.5924 352.628 53.2197C352.845 52.847 353.148 52.5636 353.536 52.3694C353.932 52.1676 354.395 52.0666 354.923 52.0666C355.451 52.0666 355.909 52.1676 356.297 52.3694C356.685 52.5713 356.984 52.8586 357.194 53.2314C357.411 53.5963 357.52 54.035 357.52 54.5475H356.262C356.262 54.1049 356.146 53.7671 355.913 53.5342C355.68 53.3012 355.35 53.1848 354.923 53.1848C354.495 53.1848 354.162 53.3012 353.921 53.5342C353.688 53.7671 353.571 54.101 353.571 54.5359V58.3213C353.571 58.7562 353.688 59.0939 353.921 59.3347C354.162 59.5676 354.495 59.6841 354.923 59.6841C355.35 59.6841 355.68 59.5676 355.913 59.3347C356.146 59.0939 356.262 58.7562 356.262 58.3213H357.52C357.52 58.826 357.411 59.2648 357.194 59.6375C356.984 60.0102 356.685 60.2975 356.297 60.4994C355.909 60.7013 355.451 60.8022 354.923 60.8022Z" fill="#170000"/>
<path d="M359.461 60.6858V52.1831H364.457V53.3012H360.695V55.7123H364.05V56.8188H360.695V59.5676H364.457V60.6858H359.461Z" fill="#170000"/>
<path d="M368.879 60.8022C368.304 60.8022 367.811 60.7091 367.4 60.5227C366.988 60.3286 366.67 60.0568 366.444 59.7074C366.219 59.3502 366.107 58.927 366.107 58.4378H367.353C367.353 58.826 367.489 59.1328 367.761 59.3579C368.032 59.5754 368.409 59.6841 368.89 59.6841C369.341 59.6841 369.694 59.5754 369.95 59.3579C370.207 59.1405 370.335 58.8416 370.335 58.4611C370.335 58.1427 370.245 57.8671 370.067 57.6341C369.896 57.4012 369.648 57.242 369.321 57.1566L368.25 56.8421C367.629 56.6635 367.147 56.3607 366.806 55.9336C366.472 55.4987 366.305 54.9824 366.305 54.3845C366.305 53.9186 366.41 53.5109 366.619 53.1615C366.829 52.812 367.128 52.5403 367.516 52.3461C367.904 52.152 368.362 52.055 368.89 52.055C369.667 52.055 370.288 52.2646 370.754 52.6839C371.228 53.1032 371.468 53.6662 371.476 54.3728H370.218C370.218 54.0001 370.098 53.7089 369.857 53.4992C369.624 53.2818 369.294 53.1731 368.867 53.1731C368.456 53.1731 368.133 53.2741 367.9 53.476C367.667 53.6701 367.551 53.9457 367.551 54.3029C367.551 54.6213 367.636 54.897 367.807 55.1299C367.986 55.3629 368.238 55.5259 368.564 55.6191L369.648 55.9452C370.269 56.1161 370.746 56.4189 371.08 56.8537C371.414 57.2886 371.581 57.8088 371.581 58.4145C371.581 58.8882 371.468 59.3075 371.243 59.6724C371.018 60.0296 370.704 60.3092 370.3 60.5111C369.896 60.7052 369.422 60.8022 368.879 60.8022Z" fill="#170000"/>
<path d="M375.828 60.8022C375.517 60.8022 375.269 60.7129 375.082 60.5343C374.896 60.348 374.803 60.0995 374.803 59.7889C374.803 59.4705 374.896 59.2182 375.082 59.0318C375.269 58.8377 375.517 58.7406 375.828 58.7406C376.146 58.7406 376.395 58.8377 376.573 59.0318C376.76 59.2182 376.853 59.4705 376.853 59.7889C376.853 60.0995 376.76 60.348 376.573 60.5343C376.395 60.7129 376.146 60.8022 375.828 60.8022Z" fill="#170000"/>
<path d="M5.66652 81.4766L7.18069 77.8542H8.45027L7.51847 81.4766H5.66652ZM2.78958 81.4766L4.30376 77.8542H5.57334L4.64153 81.4766H2.78958Z" fill="#170000"/>
<path d="M12.7087 87.0091C12.1652 87.0091 11.6876 86.9082 11.2761 86.7063C10.8723 86.4966 10.5578 86.2055 10.3326 85.8327C10.1152 85.4523 10.0065 85.0058 10.0065 84.4933V80.7894C10.0065 80.2691 10.1152 79.8226 10.3326 79.4499C10.5578 79.0772 10.8723 78.7899 11.2761 78.588C11.6876 78.3783 12.1652 78.2735 12.7087 78.2735C13.26 78.2735 13.7337 78.3783 14.1297 78.588C14.5335 78.7899 14.848 79.0772 15.0732 79.4499C15.2983 79.8226 15.4109 80.2691 15.4109 80.7894H13.9433C13.9433 80.3856 13.8346 80.0789 13.6172 79.8692C13.4076 79.6596 13.1047 79.5547 12.7087 79.5547C12.3127 79.5547 12.006 79.6596 11.7886 79.8692C11.5711 80.0789 11.4624 80.3817 11.4624 80.7777V84.4933C11.4624 84.8893 11.5711 85.196 11.7886 85.4134C12.006 85.6231 12.3127 85.7279 12.7087 85.7279C13.1047 85.7279 13.4076 85.6231 13.6172 85.4134C13.8346 85.196 13.9433 84.8893 13.9433 84.4933H15.4109C15.4109 84.998 15.2983 85.4406 15.0732 85.8211C14.848 86.2016 14.5335 86.4966 14.1297 86.7063C13.7337 86.9082 13.26 87.0091 12.7087 87.0091Z" fill="#170000"/>
<path d="M17.1768 86.8927V78.39H22.2784V79.6596H18.6094V81.8726H21.8707V83.1305H18.6094V85.6231H22.2784V86.8927H17.1768Z" fill="#170000"/>
<path d="M24.021 86.8927V78.39H26.7116C27.2784 78.39 27.7676 78.4948 28.1791 78.7045C28.5985 78.9141 28.9246 79.2092 29.1575 79.5897C29.3905 79.9624 29.507 80.405 29.507 80.9175C29.507 81.4766 29.3633 81.9696 29.076 82.3967C28.7965 82.8238 28.416 83.1266 27.9346 83.3052L29.6234 86.8927H27.9928L26.5136 83.5149H25.4769V86.8927H24.021ZM25.4769 82.2337H26.7116C27.1231 82.2337 27.4454 82.1211 27.6783 81.8959C27.9113 81.6707 28.0277 81.3601 28.0277 80.9641C28.0277 80.5603 27.9113 80.2458 27.6783 80.0206C27.4454 79.7877 27.1231 79.6712 26.7116 79.6712H25.4769V82.2337Z" fill="#170000"/>
<path d="M32.8802 86.8927V79.7411H30.6555V78.39H36.5725V79.7411H34.3478V86.8927H32.8802Z" fill="#170000"/>
<path d="M38.152 86.8927V85.6114H39.8642V79.6712H38.152V78.39H43.0439V79.6712H41.3317V85.6114H43.0439V86.8927H38.152Z" fill="#170000"/>
<path d="M45.0194 86.8927V78.39H50.3074V79.7411H46.4521V82.0124H50.0046V83.3635H46.4754V86.8927H45.0194Z" fill="#170000"/>
<path d="M52.1199 86.8927V85.6114H53.8321V79.6712H52.1199V78.39H57.0118V79.6712H55.2996V85.6114H57.0118V86.8927H52.1199Z" fill="#170000"/>
<path d="M59.0805 86.8927V78.39H64.1821V79.6596H60.5132V81.8726H63.7745V83.1305H60.5132V85.6231H64.1821V86.8927H59.0805Z" fill="#170000"/>
<path d="M65.9131 86.8927V78.39H68.4406C69.0152 78.39 69.5122 78.4987 69.9315 78.7161C70.3585 78.9335 70.6886 79.2402 70.9215 79.6363C71.1545 80.0323 71.2709 80.5021 71.2709 81.0456V84.2254C71.2709 84.7612 71.1545 85.2309 70.9215 85.6347C70.6886 86.0307 70.3585 86.3413 69.9315 86.5665C69.5122 86.7839 69.0152 86.8927 68.4406 86.8927H65.9131ZM67.369 85.5532H68.4406C68.8599 85.5532 69.1938 85.4367 69.4423 85.2038C69.6907 84.9631 69.815 84.6369 69.815 84.2254V81.0456C69.815 80.6418 69.6907 80.3235 69.4423 80.0905C69.1938 79.8498 68.8599 79.7294 68.4406 79.7294H67.369V85.5532Z" fill="#170000"/>
<path d="M79.9392 86.8927V78.39H85.2272V79.7411H81.3719V82.0124H84.9244V83.3635H81.3952V86.8927H79.9392Z" fill="#170000"/>
<path d="M89.4856 87.0091C88.9421 87.0091 88.4684 86.9082 88.0646 86.7063C87.6686 86.4966 87.3619 86.2055 87.1445 85.8327C86.9348 85.4523 86.83 85.0058 86.83 84.4933V80.7894C86.83 80.2769 86.9348 79.8343 87.1445 79.4615C87.3619 79.0811 87.6686 78.7899 88.0646 78.588C88.4684 78.3783 88.9421 78.2735 89.4856 78.2735C90.0369 78.2735 90.5106 78.3783 90.9066 78.588C91.3026 78.7899 91.6055 79.0811 91.8151 79.4615C92.0326 79.8343 92.1413 80.273 92.1413 80.7777V84.4933C92.1413 85.0058 92.0326 85.4523 91.8151 85.8327C91.6055 86.2055 91.3026 86.4966 90.9066 86.7063C90.5106 86.9082 90.0369 87.0091 89.4856 87.0091ZM89.4856 85.7279C89.8816 85.7279 90.1806 85.6231 90.3825 85.4134C90.5844 85.196 90.6853 84.8893 90.6853 84.4933V80.7894C90.6853 80.3856 90.5844 80.0789 90.3825 79.8692C90.1806 79.6596 89.8816 79.5547 89.4856 79.5547C89.0896 79.5547 88.7907 79.6596 88.5888 79.8692C88.3869 80.0789 88.2859 80.3856 88.2859 80.7894V84.4933C88.2859 84.8893 88.3869 85.196 88.5888 85.4134C88.7984 85.6231 89.0974 85.7279 89.4856 85.7279Z" fill="#170000"/>
<path d="M93.8605 86.8927V78.39H96.5511C97.118 78.39 97.6072 78.4948 98.0187 78.7045C98.438 78.9141 98.7642 79.2092 98.9971 79.5897C99.2301 79.9624 99.3465 80.405 99.3465 80.9175C99.3465 81.4766 99.2029 81.9696 98.9156 82.3967C98.636 82.8238 98.2555 83.1266 97.7741 83.3052L99.463 86.8927H97.8324L96.3531 83.5149H95.3165V86.8927H93.8605ZM95.3165 82.2337H96.5511C96.9627 82.2337 97.2849 82.1211 97.5179 81.8959C97.7508 81.6707 97.8673 81.3601 97.8673 80.9641C97.8673 80.5603 97.7508 80.2458 97.5179 80.0206C97.2849 79.7877 96.9627 79.6712 96.5511 79.6712H95.3165V82.2337Z" fill="#170000"/>
<path d="M107.84 86.8927V78.39H109.296V81.8027H111.579V78.39H113.035V86.8927H111.579V83.1538H109.296V86.8927H107.84Z" fill="#170000"/>
<path d="M117.421 87.0091C116.591 87.0091 115.938 86.784 115.465 86.3336C114.999 85.8754 114.766 85.2542 114.766 84.47V78.39H116.233V84.4583C116.233 84.8621 116.334 85.1766 116.536 85.4018C116.738 85.627 117.033 85.7396 117.421 85.7396C117.802 85.7396 118.093 85.627 118.295 85.4018C118.505 85.1766 118.61 84.8621 118.61 84.4583V78.39H120.077V84.47C120.077 85.2542 119.844 85.8754 119.378 86.3336C118.912 86.784 118.26 87.0091 117.421 87.0091Z" fill="#170000"/>
<path d="M121.563 86.8927V78.39H123.287L124.114 81.0922C124.2 81.364 124.27 81.6125 124.324 81.8376C124.378 82.0628 124.413 82.2259 124.429 82.3268C124.444 82.2259 124.479 82.0628 124.534 81.8376C124.588 81.6125 124.654 81.364 124.732 81.0922L125.524 78.39H127.247V86.8927H125.885V84.2487C125.885 83.8604 125.896 83.4372 125.92 82.9791C125.943 82.521 125.97 82.0628 126.001 81.6047C126.032 81.1466 126.067 80.7117 126.106 80.3002C126.153 79.8886 126.191 79.5275 126.222 79.2169L125.081 83.2353H123.753L122.577 79.2169C122.616 79.512 122.654 79.8614 122.693 80.2652C122.732 80.6612 122.767 81.0883 122.798 81.5465C122.837 81.9968 122.868 82.455 122.891 82.9209C122.915 83.3868 122.926 83.8294 122.926 84.2487V86.8927H121.563Z" fill="#170000"/>
<path d="M128.303 86.8927L130.446 78.39H132.321L134.476 86.8927H132.985L132.519 84.8311H130.26L129.794 86.8927H128.303ZM130.527 83.643H132.251L131.739 81.3601C131.653 80.9796 131.58 80.6379 131.517 80.3351C131.455 80.0245 131.413 79.7993 131.389 79.6596C131.366 79.7993 131.323 80.0245 131.261 80.3351C131.207 80.6379 131.133 80.9757 131.04 81.3484L130.527 83.643Z" fill="#170000"/>
<path d="M135.718 86.8927V78.39H137.5L139.864 85.262C139.841 85.0135 139.814 84.7223 139.783 84.3884C139.759 84.0468 139.74 83.7012 139.724 83.3518C139.709 82.9946 139.701 82.684 139.701 82.42V78.39H141.029V86.8927H139.247L136.906 80.0206C136.921 80.2458 136.941 80.5176 136.964 80.836C136.987 81.1543 137.007 81.4805 137.022 81.8143C137.038 82.1482 137.046 82.455 137.046 82.7345V86.8927H135.718Z" fill="#170000"/>
<path d="M145.381 87.0091C144.798 87.0091 144.293 86.9121 143.866 86.7179C143.439 86.5238 143.109 86.2482 142.876 85.891C142.651 85.526 142.535 85.0989 142.527 84.6097H143.983C143.983 84.9592 144.107 85.2348 144.356 85.4367C144.612 85.6308 144.957 85.7279 145.392 85.7279C145.812 85.7279 146.138 85.6308 146.371 85.4367C146.611 85.2426 146.732 84.9747 146.732 84.633C146.732 84.3457 146.646 84.0973 146.475 83.8876C146.312 83.6702 146.076 83.5226 145.765 83.445L144.787 83.1771C144.119 83.0063 143.602 82.6996 143.237 82.257C142.88 81.8143 142.702 81.2786 142.702 80.6496C142.702 80.1682 142.81 79.7489 143.028 79.3917C143.245 79.0345 143.552 78.7588 143.948 78.5647C144.352 78.3706 144.825 78.2735 145.369 78.2735C146.192 78.2735 146.844 78.487 147.326 78.9141C147.807 79.3334 148.052 79.9003 148.06 80.6147H146.604C146.604 80.2808 146.495 80.0206 146.277 79.8343C146.06 79.6401 145.753 79.5431 145.357 79.5431C144.977 79.5431 144.682 79.6324 144.472 79.811C144.262 79.9896 144.158 80.2419 144.158 80.5681C144.158 80.8631 144.235 81.1155 144.391 81.3251C144.554 81.527 144.787 81.6707 145.089 81.7561L146.103 82.0357C146.778 82.2065 147.295 82.5132 147.652 82.9558C148.009 83.3906 148.188 83.9303 148.188 84.5748C148.188 85.0562 148.071 85.4833 147.838 85.856C147.605 86.221 147.279 86.5044 146.86 86.7063C146.441 86.9082 145.947 87.0091 145.381 87.0091Z" fill="#170000"/>
<path d="M152.446 81.4766L153.378 77.8542H155.23L153.716 81.4766H152.446ZM149.569 81.4766L150.501 77.8542H152.353L150.839 81.4766H149.569Z" fill="#170000"/>
<path d="M2.18391 88.9892H155.835V89.5716H2.18391V88.9892Z" fill="#170000"/>
<path d="M3.15066 33.7509V25.2482H5.52675C6.08583 25.2482 6.57115 25.3569 6.98269 25.5743C7.39424 25.784 7.7126 26.0829 7.93779 26.4712C8.17074 26.8594 8.28721 27.3175 8.28721 27.8456V31.1418C8.28721 31.6621 8.17074 32.1202 7.93779 32.5162C7.7126 32.9122 7.39424 33.2189 6.98269 33.4364C6.57115 33.646 6.08583 33.7509 5.52675 33.7509H3.15066ZM4.40859 32.6094H5.52675C5.99265 32.6094 6.35761 32.4813 6.62162 32.225C6.8934 31.961 7.02928 31.5999 7.02928 31.1418V27.8456C7.02928 27.3952 6.8934 27.0419 6.62162 26.7856C6.35761 26.5216 5.99265 26.3896 5.52675 26.3896H4.40859V32.6094Z" fill="#170000"/>
<path d="M10.2627 33.7509V25.2482H15.2595V26.3663H11.4974V28.7774H14.8519V29.8839H11.4974V32.6327H15.2595V33.7509H10.2627Z" fill="#170000"/>
<path d="M19.681 33.8673C19.1064 33.8673 18.6133 33.7741 18.2018 33.5878C17.7902 33.3937 17.4719 33.1219 17.2467 32.7725C17.0215 32.4153 16.9089 31.9921 16.9089 31.5029H18.1552C18.1552 31.8911 18.2911 32.1978 18.5629 32.423C18.8346 32.6405 19.2112 32.7492 19.6927 32.7492C20.143 32.7492 20.4964 32.6405 20.7526 32.423C21.0088 32.2056 21.137 31.9067 21.137 31.5262C21.137 31.2078 21.0477 30.9322 20.8691 30.6992C20.6982 30.4663 20.4498 30.3071 20.1236 30.2217L19.0521 29.9072C18.4309 29.7286 17.9494 29.4257 17.6078 28.9987C17.2739 28.5638 17.1069 28.0475 17.1069 27.4495C17.1069 26.9836 17.2118 26.576 17.4214 26.2266C17.6311 25.8771 17.93 25.6054 18.3183 25.4112C18.7065 25.2171 19.1647 25.12 19.6927 25.12C20.4692 25.12 21.0904 25.3297 21.5563 25.749C22.0299 26.1683 22.2707 26.7313 22.2784 27.4379H21.0205C21.0205 27.0652 20.9001 26.774 20.6594 26.5643C20.4265 26.3469 20.0965 26.2382 19.6694 26.2382C19.2578 26.2382 18.9356 26.3392 18.7026 26.541C18.4697 26.7352 18.3532 27.0108 18.3532 27.368C18.3532 27.6864 18.4386 27.962 18.6095 28.195C18.7881 28.4279 19.0404 28.591 19.3665 28.6842L20.4498 29.0103C21.071 29.1811 21.5485 29.484 21.8824 29.9188C22.2163 30.3537 22.3832 30.8739 22.3832 31.4796C22.3832 31.9533 22.2707 32.3726 22.0455 32.7375C21.8203 33.0947 21.5058 33.3742 21.102 33.5761C20.6982 33.7703 20.2246 33.8673 19.681 33.8673Z" fill="#170000"/>
<path d="M24.2772 33.7509V32.6327H25.9894V26.3663H24.2772V25.2482H28.9828V26.3663H27.2707V32.6327H28.9828V33.7509H24.2772Z" fill="#170000"/>
<path d="M33.6606 33.8673C33.1326 33.8673 32.6705 33.7703 32.2745 33.5761C31.8863 33.3742 31.5834 33.0869 31.366 32.7142C31.1564 32.3337 31.0515 31.8911 31.0515 31.3864V27.6126C31.0515 27.1001 31.1564 26.6575 31.366 26.2848C31.5834 25.9121 31.8863 25.6287 32.2745 25.4345C32.6705 25.2326 33.1326 25.1317 33.6606 25.1317C34.1886 25.1317 34.6467 25.2326 35.035 25.4345C35.4232 25.6364 35.7222 25.9237 35.9319 26.2964C36.1493 26.6614 36.258 27.1001 36.258 27.6126H35C35 27.17 34.8836 26.8322 34.6506 26.5993C34.4177 26.3663 34.0877 26.2499 33.6606 26.2499C33.2335 26.2499 32.8996 26.3663 32.6589 26.5993C32.426 26.8322 32.3095 27.1661 32.3095 27.601V31.3864C32.3095 31.8212 32.426 32.159 32.6589 32.3997C32.8996 32.6405 33.2335 32.7608 33.6606 32.7608C34.0877 32.7608 34.4177 32.6405 34.6506 32.3997C34.8836 32.159 35 31.8212 35 31.3864V30.4313H33.416V29.3248H36.258V31.3864C36.258 31.8911 36.1493 32.3299 35.9319 32.7026C35.7222 33.0753 35.4232 33.3626 35.035 33.5645C34.6467 33.7664 34.1886 33.8673 33.6606 33.8673Z" fill="#170000"/>
<path d="M38.0471 33.7509V25.2482H39.6312L42.1121 32.3182C42.0966 32.093 42.0772 31.8251 42.0539 31.5145C42.0306 31.2039 42.0112 30.8817 41.9957 30.5478C41.9879 30.2139 41.984 29.9111 41.984 29.6393V25.2482H43.1488V33.7509H41.5647L39.0954 26.6808C39.111 26.8827 39.1265 27.1351 39.142 27.4379C39.1653 27.7407 39.1808 28.0552 39.1886 28.3813C39.2041 28.7075 39.2119 29.0103 39.2119 29.2899V33.7509H38.0471Z" fill="#170000"/>
<path d="M45.1825 33.7509V25.2482H50.1793V26.3663H46.4172V28.7774H49.7716V29.8839H46.4172V32.6327H50.1793V33.7509H45.1825Z" fill="#170000"/>
<path d="M52.0384 33.7509V25.2482H54.4144C54.9735 25.2482 55.4588 25.3569 55.8704 25.5743C56.2819 25.784 56.6003 26.0829 56.8255 26.4712C57.0584 26.8594 57.1749 27.3175 57.1749 27.8456V31.1418C57.1749 31.6621 57.0584 32.1202 56.8255 32.5162C56.6003 32.9122 56.2819 33.2189 55.8704 33.4364C55.4588 33.646 54.9735 33.7509 54.4144 33.7509H52.0384ZM53.2963 32.6094H54.4144C54.8803 32.6094 55.2453 32.4813 55.5093 32.225C55.7811 31.961 55.917 31.5999 55.917 31.1418V27.8456C55.917 27.3952 55.7811 27.0419 55.5093 26.7856C55.2453 26.5216 54.8803 26.3896 54.4144 26.3896H53.2963V32.6094Z" fill="#170000"/>
<path d="M66.0296 33.7509V25.2482H68.5338C69.3413 25.2482 69.9742 25.4423 70.4323 25.8305C70.8905 26.2188 71.1195 26.7546 71.1195 27.4379C71.1195 27.8262 71.0341 28.1639 70.8633 28.4512C70.7002 28.7308 70.4711 28.9482 70.1761 29.1035C69.881 29.2588 69.5355 29.3364 69.1394 29.3364V29.22C69.5665 29.2122 69.9431 29.2937 70.2693 29.4646C70.5954 29.6276 70.8516 29.8722 71.038 30.1984C71.2243 30.5245 71.3175 30.9127 71.3175 31.3631C71.3175 31.8445 71.2088 32.2677 70.9914 32.6327C70.7817 32.9899 70.4789 33.2655 70.0829 33.4597C69.6946 33.6538 69.2326 33.7509 68.6968 33.7509H66.0296ZM67.2525 32.6676H68.592C69.0424 32.6676 69.3996 32.5473 69.6636 32.3066C69.9276 32.0658 70.0596 31.7319 70.0596 31.3049C70.0596 30.87 69.9276 30.5206 69.6636 30.2566C69.3996 29.9926 69.0424 29.8606 68.592 29.8606H67.2525V32.6676ZM67.2525 28.8123H68.5221C68.9414 28.8123 69.2714 28.6997 69.5122 28.4745C69.7529 28.2493 69.8732 27.9465 69.8732 27.566C69.8732 27.1855 69.7529 26.8866 69.5122 26.6692C69.2714 26.444 68.9453 26.3314 68.5338 26.3314H67.2525V28.8123Z" fill="#170000"/>
<path d="M74.8888 33.7509V30.6177L72.3613 25.2482H73.6658L75.1683 28.4629C75.2692 28.6725 75.3508 28.8705 75.4129 29.0569C75.475 29.2355 75.5177 29.3753 75.541 29.4762C75.5566 29.3753 75.5954 29.2355 75.6575 29.0569C75.7274 28.8705 75.8089 28.6725 75.9021 28.4629L77.3697 25.2482H78.6742L76.1467 30.6177V33.7509H74.8888Z" fill="#170000"/>
<path d="M282.866 33.7509V32.6327H284.578V26.3663H282.866V25.2482H287.571V26.3663H285.859V32.6327H287.571V33.7509H282.866Z" fill="#170000"/>
<path d="M289.652 33.7509V25.2482H291.236L293.717 32.3182C293.701 32.093 293.682 31.8251 293.658 31.5145C293.635 31.2039 293.616 30.8817 293.6 30.5478C293.592 30.2139 293.588 29.9111 293.588 29.6393V25.2482H294.753V33.7509H293.169L290.7 26.6808C290.715 26.8827 290.731 27.1351 290.746 27.4379C290.77 27.7407 290.785 28.0552 290.793 28.3813C290.809 28.7075 290.816 29.0103 290.816 29.2899V33.7509H289.652Z" fill="#170000"/>
<path d="M303.643 33.7509V25.2482H306.019C306.578 25.2482 307.063 25.3569 307.475 25.5743C307.886 25.784 308.205 26.0829 308.43 26.4712C308.663 26.8594 308.779 27.3175 308.779 27.8456V31.1418C308.779 31.6621 308.663 32.1202 308.43 32.5162C308.205 32.9122 307.886 33.2189 307.475 33.4364C307.063 33.646 306.578 33.7509 306.019 33.7509H303.643ZM304.901 32.6094H306.019C306.485 32.6094 306.85 32.4813 307.114 32.225C307.386 31.961 307.521 31.5999 307.521 31.1418V27.8456C307.521 27.3952 307.386 27.0419 307.114 26.7856C306.85 26.5216 306.485 26.3896 306.019 26.3896H304.901V32.6094Z" fill="#170000"/>
<path d="M310.161 33.7509L312.327 25.2482H313.981L316.148 33.7509H314.878L314.366 31.5961H311.955L311.442 33.7509H310.161ZM312.188 30.5594H314.121L313.539 28.1018C313.438 27.667 313.352 27.2904 313.282 26.972C313.22 26.6459 313.178 26.4246 313.154 26.3081C313.131 26.4246 313.088 26.6459 313.026 26.972C312.964 27.2904 312.879 27.6631 312.77 28.0902L312.188 30.5594Z" fill="#170000"/>
<path d="M319.509 33.7509V30.6177L316.982 25.2482H318.286L319.789 28.4629C319.89 28.6725 319.971 28.8705 320.033 29.0569C320.095 29.2355 320.138 29.3753 320.161 29.4762C320.177 29.3753 320.216 29.2355 320.278 29.0569C320.348 28.8705 320.429 28.6725 320.523 28.4629L321.99 25.2482H323.295L320.767 30.6177V33.7509H319.509Z" fill="#170000"/>
<path d="M326.493 33.7509V26.4013H324.222V25.2365H330.022V26.4013H327.751V33.7509H326.493Z" fill="#170000"/>
<path d="M334.106 33.8673C333.578 33.8673 333.12 33.7703 332.732 33.5761C332.351 33.3742 332.056 33.0869 331.846 32.7142C331.645 32.3337 331.544 31.8911 331.544 31.3864V27.6126C331.544 27.1001 331.645 26.6575 331.846 26.2848C332.056 25.9121 332.351 25.6287 332.732 25.4345C333.12 25.2326 333.578 25.1317 334.106 25.1317C334.634 25.1317 335.088 25.2326 335.469 25.4345C335.857 25.6287 336.152 25.9121 336.354 26.2848C336.564 26.6575 336.669 27.0962 336.669 27.601V31.3864C336.669 31.8911 336.564 32.3337 336.354 32.7142C336.152 33.0869 335.857 33.3742 335.469 33.5761C335.088 33.7703 334.634 33.8673 334.106 33.8673ZM334.106 32.7492C334.533 32.7492 334.855 32.6327 335.073 32.3997C335.298 32.159 335.411 31.8212 335.411 31.3864V27.6126C335.411 27.17 335.298 26.8322 335.073 26.5993C334.855 26.3663 334.533 26.2499 334.106 26.2499C333.687 26.2499 333.365 26.3663 333.139 26.5993C332.914 26.8322 332.802 27.17 332.802 27.6126V31.3864C332.802 31.8212 332.914 32.159 333.139 32.3997C333.365 32.6327 333.687 32.7492 334.106 32.7492Z" fill="#170000"/>
<path d="M338.539 33.7509V25.2482H340.123L342.604 32.3182C342.589 32.093 342.569 31.8251 342.546 31.5145C342.523 31.2039 342.503 30.8817 342.488 30.5478C342.48 30.2139 342.476 29.9111 342.476 29.6393V25.2482H343.641V33.7509H342.057L339.588 26.6808C339.603 26.8827 339.619 27.1351 339.634 27.4379C339.657 27.7407 339.673 28.0552 339.681 28.3813C339.696 28.7075 339.704 29.0103 339.704 29.2899V33.7509H338.539Z" fill="#170000"/>
<path d="M346.42 35.6145L347.352 31.9921H349.029L347.515 35.6145H346.42Z" fill="#170000"/>
<path d="M362.042 33.8673C361.514 33.8673 361.056 33.7703 360.668 33.5761C360.287 33.3742 359.992 33.0869 359.782 32.7142C359.58 32.3337 359.479 31.8911 359.479 31.3864V27.6126C359.479 27.1001 359.58 26.6575 359.782 26.2848C359.992 25.9121 360.287 25.6287 360.668 25.4345C361.056 25.2326 361.514 25.1317 362.042 25.1317C362.57 25.1317 363.024 25.2326 363.405 25.4345C363.793 25.6287 364.088 25.9121 364.29 26.2848C364.5 26.6575 364.604 27.0962 364.604 27.601V31.3864C364.604 31.8911 364.5 32.3337 364.29 32.7142C364.088 33.0869 363.793 33.3742 363.405 33.5761C363.024 33.7703 362.57 33.8673 362.042 33.8673ZM362.042 32.7492C362.469 32.7492 362.791 32.6327 363.009 32.3997C363.234 32.159 363.346 31.8212 363.346 31.3864V27.6126C363.346 27.17 363.234 26.8322 363.009 26.5993C362.791 26.3663 362.469 26.2499 362.042 26.2499C361.623 26.2499 361.3 26.3663 361.075 26.5993C360.85 26.8322 360.737 27.17 360.737 27.6126V31.3864C360.737 31.8212 360.85 32.159 361.075 32.3997C361.3 32.6327 361.623 32.7492 362.042 32.7492Z" fill="#170000"/>
<path d="M366.522 33.7509V25.2482H367.78V28.7657H370.272V25.2482H371.53V33.7509H370.272V29.9305H367.78V33.7509H366.522Z" fill="#170000"/>
<path d="M376.01 33.8673C375.699 33.8673 375.451 33.778 375.264 33.5994C375.078 33.4131 374.985 33.1646 374.985 32.854C374.985 32.5356 375.078 32.2833 375.264 32.0969C375.451 31.9028 375.699 31.8057 376.01 31.8057C376.328 31.8057 376.577 31.9028 376.755 32.0969C376.942 32.2833 377.035 32.5356 377.035 32.854C377.035 33.1646 376.942 33.4131 376.755 33.5994C376.577 33.778 376.328 33.8673 376.01 33.8673Z" fill="#170000"/>
<path d="M19.1893 113.188V111.941L21.8216 109.228C22.2254 108.808 22.5205 108.432 22.7068 108.098C22.901 107.756 22.998 107.418 22.998 107.084C22.998 106.65 22.8777 106.308 22.6369 106.059C22.404 105.811 22.0817 105.687 21.6702 105.687C21.2198 105.687 20.8626 105.819 20.5986 106.083C20.3424 106.339 20.2143 106.692 20.2143 107.143H18.9563C18.9719 106.615 19.0922 106.16 19.3174 105.78C19.5426 105.392 19.8571 105.093 20.2609 104.883C20.6646 104.673 21.1383 104.569 21.6819 104.569C22.2021 104.569 22.6564 104.67 23.0446 104.871C23.4329 105.073 23.7318 105.357 23.9415 105.722C24.1511 106.087 24.256 106.518 24.256 107.015C24.256 107.519 24.1239 108.012 23.8599 108.494C23.6037 108.975 23.1805 109.511 22.5904 110.101L20.6685 112.046H24.3841V113.188H19.1893Z" fill="#170000"/>
<path d="M28.6775 113.304C28.1417 113.304 27.6758 113.199 27.2798 112.99C26.8915 112.78 26.5887 112.489 26.3712 112.116C26.1538 111.736 26.0451 111.293 26.0451 110.788V107.084C26.0451 106.572 26.1499 106.129 26.3596 105.757C26.577 105.384 26.8837 105.093 27.2798 104.883C27.6758 104.673 28.1417 104.569 28.6775 104.569C29.221 104.569 29.6869 104.673 30.0752 104.883C30.4712 105.093 30.774 105.384 30.9837 105.757C31.2011 106.129 31.3098 106.572 31.3098 107.084V110.788C31.3098 111.293 31.2011 111.736 30.9837 112.116C30.7662 112.489 30.4595 112.78 30.0635 112.99C29.6753 113.199 29.2132 113.304 28.6775 113.304ZM28.6775 112.221C29.1123 112.221 29.4578 112.089 29.7141 111.825C29.9781 111.561 30.1101 111.215 30.1101 110.788V107.084C30.1101 106.657 29.9781 106.312 29.7141 106.048C29.4578 105.784 29.1123 105.652 28.6775 105.652C28.2426 105.652 27.8932 105.784 27.6292 106.048C27.3729 106.312 27.2448 106.657 27.2448 107.084V110.788C27.2448 111.215 27.3729 111.561 27.6292 111.825C27.8932 112.089 28.2426 112.221 28.6775 112.221ZM28.6775 109.659C28.46 109.659 28.2814 109.589 28.1417 109.449C28.0097 109.309 27.9437 109.127 27.9437 108.901C27.9437 108.684 28.0097 108.509 28.1417 108.377C28.2814 108.238 28.46 108.168 28.6775 108.168C28.8949 108.168 29.0696 108.238 29.2016 108.377C29.3414 108.509 29.4112 108.684 29.4112 108.901C29.4112 109.127 29.3414 109.309 29.2016 109.449C29.0696 109.589 28.8949 109.659 28.6775 109.659Z" fill="#170000"/>
<path d="M33.1572 113.188V111.941L35.7895 109.228C36.1933 108.808 36.4884 108.432 36.6747 108.098C36.8689 107.756 36.9659 107.418 36.9659 107.084C36.9659 106.65 36.8456 106.308 36.6049 106.059C36.3719 105.811 36.0497 105.687 35.6381 105.687C35.1877 105.687 34.8306 105.819 34.5665 106.083C34.3103 106.339 34.1822 106.692 34.1822 107.143H32.9242C32.9398 106.615 33.0601 106.16 33.2853 105.78C33.5105 105.392 33.825 105.093 34.2288 104.883C34.6325 104.673 35.1062 104.569 35.6498 104.569C36.17 104.569 36.6243 104.67 37.0125 104.871C37.4008 105.073 37.6997 105.357 37.9094 105.722C38.119 106.087 38.2239 106.518 38.2239 107.015C38.2239 107.519 38.0919 108.012 37.8278 108.494C37.5716 108.975 37.1484 109.511 36.5583 110.101L34.6364 112.046H38.352V113.188H33.1572Z" fill="#170000"/>
<path d="M42.6221 113.304C41.8844 113.304 41.2865 113.118 40.8284 112.745C40.3702 112.365 40.114 111.856 40.0596 111.219H41.3059C41.3447 111.53 41.4767 111.771 41.7019 111.941C41.9271 112.112 42.2377 112.198 42.6337 112.198C43.0763 112.198 43.4102 112.081 43.6354 111.848C43.8684 111.608 43.9848 111.274 43.9848 110.847V110.02C43.9848 109.585 43.8722 109.251 43.6471 109.018C43.4219 108.777 43.088 108.657 42.6454 108.657C42.3658 108.657 42.1251 108.723 41.9232 108.855C41.7213 108.979 41.5738 109.154 41.4806 109.379H40.2343L40.2926 104.685H44.9283V105.826H41.4923L41.469 108.47H41.7951L41.4573 108.773C41.4573 108.408 41.601 108.121 41.8883 107.911C42.1756 107.702 42.56 107.597 43.0414 107.597C43.7325 107.597 44.2683 107.81 44.6487 108.238C45.037 108.657 45.2311 109.251 45.2311 110.02V110.847C45.2311 111.6 45.002 112.198 44.5439 112.64C44.0858 113.083 43.4452 113.304 42.6221 113.304Z" fill="#170000"/>
<path d="M6.77012 113.322C5.99556 113.322 5.31272 113.169 4.72161 112.864C4.14069 112.558 3.68717 112.13 3.36104 111.579C3.03491 111.029 2.87184 110.387 2.87184 109.653V107.36C2.87184 106.626 3.03491 105.984 3.36104 105.434C3.68717 104.884 4.14069 104.455 4.72161 104.15C5.31272 103.844 5.99556 103.691 6.77012 103.691C7.55487 103.691 8.2377 103.844 8.81862 104.15C9.39954 104.455 9.85307 104.884 10.1792 105.434C10.5053 105.984 10.6684 106.626 10.6684 107.36V109.653C10.6684 110.387 10.5053 111.029 10.1792 111.579C9.85307 112.13 9.39954 112.558 8.81862 112.864C8.2377 113.169 7.55487 113.322 6.77012 113.322ZM6.77012 112.558C7.38161 112.558 7.91667 112.441 8.37529 112.206C8.83391 111.962 9.19061 111.62 9.4454 111.182C9.70019 110.744 9.82759 110.234 9.82759 109.653V107.36C9.82759 106.779 9.70019 106.275 9.4454 105.847C9.19061 105.408 8.83391 105.067 8.37529 104.822C7.91667 104.578 7.38161 104.455 6.77012 104.455C6.15862 104.455 5.62356 104.578 5.16494 104.822C4.70632 105.067 4.34962 105.408 4.09483 105.847C3.84004 106.275 3.71265 106.779 3.71265 107.36V109.653C3.71265 110.234 3.84004 110.744 4.09483 111.182C4.34962 111.62 4.70632 111.962 5.16494 112.206C5.62356 112.441 6.15862 112.558 6.77012 112.558ZM6.84655 111.258C6.26563 111.258 5.79173 111.095 5.42483 110.769C5.06812 110.433 4.88977 109.995 4.88977 109.454V107.559C4.88977 107.019 5.06812 106.586 5.42483 106.259C5.79173 105.923 6.26563 105.755 6.84655 105.755C7.42747 105.755 7.89629 105.923 8.25299 106.259C8.6097 106.586 8.78805 107.019 8.78805 107.559H7.70265C7.70265 107.294 7.62111 107.085 7.45805 106.932C7.30517 106.769 7.10134 106.687 6.84655 106.687C6.58157 106.687 6.36755 106.769 6.20448 106.932C6.05161 107.085 5.97517 107.294 5.97517 107.559V109.454C5.97517 109.719 6.05161 109.933 6.20448 110.097C6.36755 110.249 6.58157 110.326 6.84655 110.326C7.10134 110.326 7.30517 110.249 7.45805 110.097C7.62111 109.933 7.70265 109.719 7.70265 109.454H8.78805C8.78805 109.995 8.6097 110.433 8.25299 110.769C7.89629 111.095 7.42747 111.258 6.84655 111.258Z" fill="#170000"/>
<path d="M121.299 113.1V104.597H124.083C124.634 104.597 125.112 104.702 125.516 104.911C125.927 105.121 126.242 105.42 126.459 105.808C126.684 106.189 126.797 106.639 126.797 107.159C126.797 107.672 126.684 108.122 126.459 108.51C126.234 108.899 125.919 109.198 125.516 109.407C125.112 109.617 124.634 109.722 124.083 109.722H122.557V113.1H121.299ZM122.557 108.592H124.083C124.518 108.592 124.863 108.464 125.12 108.208C125.384 107.944 125.516 107.594 125.516 107.159C125.516 106.717 125.384 106.367 125.12 106.111C124.863 105.855 124.518 105.727 124.083 105.727H122.557V108.592Z" fill="#170000"/>
<path d="M128.283 113.1V104.597H130.951C131.486 104.597 131.952 104.702 132.348 104.911C132.744 105.113 133.051 105.401 133.268 105.773C133.494 106.146 133.606 106.585 133.606 107.089C133.606 107.656 133.459 108.149 133.164 108.569C132.876 108.98 132.484 109.271 131.987 109.442L133.723 113.1H132.29L130.741 109.605H129.541V113.1H128.283ZM129.541 108.499H130.951C131.37 108.499 131.704 108.375 131.952 108.126C132.201 107.87 132.325 107.532 132.325 107.113C132.325 106.678 132.201 106.336 131.952 106.088C131.704 105.839 131.37 105.715 130.951 105.715H129.541V108.499Z" fill="#170000"/>
<path d="M137.783 113.216C137.255 113.216 136.797 113.119 136.409 112.925C136.028 112.723 135.733 112.436 135.523 112.063C135.322 111.682 135.221 111.24 135.221 110.735V106.961C135.221 106.449 135.322 106.006 135.523 105.633C135.733 105.261 136.028 104.977 136.409 104.783C136.797 104.581 137.255 104.48 137.783 104.48C138.311 104.48 138.765 104.581 139.146 104.783C139.534 104.977 139.829 105.261 140.031 105.633C140.241 106.006 140.346 106.445 140.346 106.95V110.735C140.346 111.24 140.241 111.682 140.031 112.063C139.829 112.436 139.534 112.723 139.146 112.925C138.765 113.119 138.311 113.216 137.783 113.216ZM137.783 112.098C138.21 112.098 138.532 111.981 138.75 111.748C138.975 111.508 139.088 111.17 139.088 110.735V106.961C139.088 106.519 138.975 106.181 138.75 105.948C138.532 105.715 138.21 105.599 137.783 105.599C137.364 105.599 137.041 105.715 136.816 105.948C136.591 106.181 136.479 106.519 136.479 106.961V110.735C136.479 111.17 136.591 111.508 136.816 111.748C137.041 111.981 137.364 112.098 137.783 112.098Z" fill="#170000"/>
<path d="M142.251 113.1V104.597H145.035C145.586 104.597 146.064 104.702 146.468 104.911C146.879 105.121 147.194 105.42 147.411 105.808C147.636 106.189 147.749 106.639 147.749 107.159C147.749 107.672 147.636 108.122 147.411 108.51C147.186 108.899 146.871 109.198 146.468 109.407C146.064 109.617 145.586 109.722 145.035 109.722H143.509V113.1H142.251ZM143.509 108.592H145.035C145.47 108.592 145.815 108.464 146.072 108.208C146.336 107.944 146.468 107.594 146.468 107.159C146.468 106.717 146.336 106.367 146.072 106.111C145.815 105.855 145.47 105.727 145.035 105.727H143.509V108.592Z" fill="#170000"/>
<path d="M149.352 113.1V104.597H154.348V105.715H150.586V108.126H153.941V109.233H150.586V111.981H154.348V113.1H149.352Z" fill="#170000"/>
<path d="M156.219 113.1V104.597H158.886C159.422 104.597 159.888 104.702 160.284 104.911C160.68 105.113 160.987 105.401 161.204 105.773C161.429 106.146 161.542 106.585 161.542 107.089C161.542 107.656 161.394 108.149 161.099 108.569C160.812 108.98 160.42 109.271 159.923 109.442L161.658 113.1H160.226L158.677 109.605H157.477V113.1H156.219ZM157.477 108.499H158.886C159.306 108.499 159.64 108.375 159.888 108.126C160.137 107.87 160.261 107.532 160.261 107.113C160.261 106.678 160.137 106.336 159.888 106.088C159.64 105.839 159.306 105.715 158.886 105.715H157.477V108.499Z" fill="#170000"/>
<path d="M165.09 113.1V105.75H162.819V104.585H168.619V105.75H166.348V113.1H165.09Z" fill="#170000"/>
<path d="M172.074 113.1V109.966L169.546 104.597H170.851L172.353 107.812C172.454 108.021 172.536 108.219 172.598 108.406C172.66 108.584 172.703 108.724 172.726 108.825C172.742 108.724 172.78 108.584 172.843 108.406C172.912 108.219 172.994 108.021 173.087 107.812L174.555 104.597H175.859L173.332 109.966V113.1H172.074Z" fill="#170000"/>
<path d="M186.671 113.216C186.143 113.216 185.685 113.119 185.296 112.925C184.916 112.723 184.621 112.436 184.411 112.063C184.209 111.682 184.108 111.24 184.108 110.735V106.961C184.108 106.449 184.209 106.006 184.411 105.633C184.621 105.261 184.916 104.977 185.296 104.783C185.685 104.581 186.143 104.48 186.671 104.48C187.199 104.48 187.653 104.581 188.034 104.783C188.422 104.977 188.717 105.261 188.919 105.633C189.128 106.006 189.233 106.445 189.233 106.95V110.735C189.233 111.24 189.128 111.682 188.919 112.063C188.717 112.436 188.422 112.723 188.034 112.925C187.653 113.119 187.199 113.216 186.671 113.216ZM186.671 112.098C187.098 112.098 187.42 111.981 187.637 111.748C187.863 111.508 187.975 111.17 187.975 110.735V106.961C187.975 106.519 187.863 106.181 187.637 105.948C187.42 105.715 187.098 105.599 186.671 105.599C186.251 105.599 185.929 105.715 185.704 105.948C185.479 106.181 185.366 106.519 185.366 106.961V110.735C185.366 111.17 185.479 111.508 185.704 111.748C185.929 111.981 186.251 112.098 186.671 112.098Z" fill="#170000"/>
<path d="M191.185 113.1V104.585H196.322V105.75H192.408V108.289H196.019V109.454H192.432V113.1H191.185Z" fill="#170000"/>
<path d="M204.897 113.1V104.597H206.446L207.296 107.322C207.382 107.579 207.456 107.827 207.518 108.068C207.58 108.301 207.623 108.475 207.646 108.592C207.677 108.475 207.72 108.301 207.774 108.068C207.836 107.827 207.906 107.579 207.984 107.322L208.799 104.597H210.348V113.1H209.16V110.234C209.16 109.869 209.168 109.466 209.183 109.023C209.207 108.573 209.238 108.122 209.277 107.672C209.315 107.214 209.354 106.779 209.393 106.367C209.432 105.948 209.467 105.583 209.498 105.272L208.24 109.407H207.029L205.747 105.272C205.786 105.575 205.825 105.929 205.864 106.332C205.903 106.728 205.938 107.152 205.969 107.602C206 108.052 206.027 108.507 206.05 108.965C206.073 109.415 206.085 109.838 206.085 110.234V113.1H204.897Z" fill="#170000"/>
<path d="M211.613 113.1L213.78 104.597H215.434L217.6 113.1H216.33L215.818 110.945H213.407L212.894 113.1H211.613ZM213.64 109.908H215.573L214.991 107.451C214.89 107.016 214.805 106.639 214.735 106.321C214.673 105.995 214.63 105.773 214.607 105.657C214.583 105.773 214.541 105.995 214.478 106.321C214.416 106.639 214.331 107.012 214.222 107.439L213.64 109.908Z" fill="#170000"/>
<path d="M218.492 113.1L220.892 108.767L218.632 104.597H220.053L221.241 106.915C221.311 107.062 221.381 107.21 221.451 107.357C221.521 107.505 221.575 107.617 221.614 107.695C221.645 107.617 221.695 107.505 221.765 107.357C221.835 107.21 221.905 107.062 221.975 106.915L223.186 104.597H224.549L222.289 108.72L224.689 113.1H223.268L221.952 110.584C221.874 110.436 221.8 110.289 221.73 110.141C221.66 109.986 221.606 109.865 221.567 109.78C221.536 109.865 221.486 109.982 221.416 110.129C221.346 110.277 221.276 110.425 221.206 110.572L219.867 113.1H218.492Z" fill="#170000"/>
<path d="M233.334 113.1V104.597H234.592V111.946H238.307V113.1H233.334Z" fill="#170000"/>
<path d="M239.549 113.1L241.715 104.597H243.369L245.536 113.1H244.266L243.754 110.945H241.343L240.83 113.1H239.549ZM241.576 109.908H243.509L242.927 107.451C242.826 107.016 242.74 106.639 242.671 106.321C242.608 105.995 242.566 105.773 242.542 105.657C242.519 105.773 242.476 105.995 242.414 106.321C242.352 106.639 242.267 107.012 242.158 107.439L241.576 109.908Z" fill="#170000"/>
<path d="M247.174 113.1V111.981H248.886V105.715H247.174V104.597H251.879V105.715H250.167V111.981H251.879V113.1H247.174Z" fill="#170000"/>
<path d="M253.994 113.1V104.597H256.662C257.197 104.597 257.663 104.702 258.059 104.911C258.455 105.113 258.762 105.401 258.98 105.773C259.205 106.146 259.317 106.585 259.317 107.089C259.317 107.656 259.17 108.149 258.875 108.569C258.587 108.98 258.195 109.271 257.698 109.442L259.434 113.1H258.001L256.452 109.605H255.252V113.1H253.994ZM255.252 108.499H256.662C257.081 108.499 257.415 108.375 257.663 108.126C257.912 107.87 258.036 107.532 258.036 107.113C258.036 106.678 257.912 106.336 257.663 106.088C257.415 105.839 257.081 105.715 256.662 105.715H255.252V108.499Z" fill="#170000"/>
<path d="M2.86529 8.99995V1.65037H0.594025V0.485616H6.39448V1.65037H4.12322V8.99995H2.86529Z" fill="#170000"/>
<path d="M7.974 8.99995V0.497264H9.23193V4.01481H11.7245V0.497264H12.9824V8.99995H11.7245V5.17956H9.23193V8.99995H7.974Z" fill="#170000"/>
<path d="M15.0628 8.99995V0.497264H20.0596V1.61542H16.2974V4.02646H19.6519V5.13297H16.2974V7.88178H20.0596V8.99995H15.0628Z" fill="#170000"/>
<path d="M28.9608 8.99995V0.485616H34.0974V1.65037H30.1838V4.18952H33.7945V5.35428H30.2071V8.99995H28.9608Z" fill="#170000"/>
<path d="M38.414 9.11642C37.886 9.11642 37.4279 9.01936 37.0396 8.82523C36.6591 8.62334 36.3641 8.33604 36.1544 7.96332C35.9525 7.58283 35.8516 7.14023 35.8516 6.6355V2.86171C35.8516 2.34922 35.9525 1.90661 36.1544 1.53389C36.3641 1.16117 36.6591 0.877749 37.0396 0.683623C37.4279 0.481734 37.886 0.380789 38.414 0.380789C38.9421 0.380789 39.3963 0.481734 39.7768 0.683623C40.165 0.877749 40.4601 1.16117 40.662 1.53389C40.8717 1.90661 40.9765 2.34534 40.9765 2.85006V6.6355C40.9765 7.14023 40.8717 7.58283 40.662 7.96332C40.4601 8.33604 40.165 8.62334 39.7768 8.82523C39.3963 9.01936 38.9421 9.11642 38.414 9.11642ZM38.414 7.99826C38.8411 7.99826 39.1634 7.88178 39.3808 7.64883C39.606 7.40812 39.7186 7.07034 39.7186 6.6355V2.86171C39.7186 2.4191 39.606 2.08132 39.3808 1.84837C39.1634 1.61542 38.8411 1.49895 38.414 1.49895C37.9947 1.49895 37.6725 1.61542 37.4473 1.84837C37.2221 2.08132 37.1095 2.4191 37.1095 2.86171V6.6355C37.1095 7.07034 37.2221 7.40812 37.4473 7.64883C37.6725 7.88178 37.9947 7.99826 38.414 7.99826Z" fill="#170000"/>
<path d="M43.1733 8.99995V0.497264H44.4312V7.84684H48.1468V8.99995H43.1733Z" fill="#170000"/>
<path d="M50.1573 8.99995V0.497264H51.4152V7.84684H55.1308V8.99995H50.1573Z" fill="#170000"/>
<path d="M59.3659 9.11642C58.8379 9.11642 58.3797 9.01936 57.9915 8.82523C57.611 8.62334 57.3159 8.33604 57.1063 7.96332C56.9044 7.58283 56.8034 7.14023 56.8034 6.6355V2.86171C56.8034 2.34922 56.9044 1.90661 57.1063 1.53389C57.3159 1.16117 57.611 0.877749 57.9915 0.683623C58.3797 0.481734 58.8379 0.380789 59.3659 0.380789C59.8939 0.380789 60.3482 0.481734 60.7287 0.683623C61.1169 0.877749 61.412 1.16117 61.6139 1.53389C61.8235 1.90661 61.9284 2.34534 61.9284 2.85006V6.6355C61.9284 7.14023 61.8235 7.58283 61.6139 7.96332C61.412 8.33604 61.1169 8.62334 60.7287 8.82523C60.3482 9.01936 59.8939 9.11642 59.3659 9.11642ZM59.3659 7.99826C59.793 7.99826 60.1152 7.88178 60.3326 7.64883C60.5578 7.40812 60.6704 7.07034 60.6704 6.6355V2.86171C60.6704 2.4191 60.5578 2.08132 60.3326 1.84837C60.1152 1.61542 59.793 1.49895 59.3659 1.49895C58.9466 1.49895 58.6243 1.61542 58.3992 1.84837C58.174 2.08132 58.0614 2.4191 58.0614 2.86171V6.6355C58.0614 7.07034 58.174 7.40812 58.3992 7.64883C58.6243 7.88178 58.9466 7.99826 59.3659 7.99826Z" fill="#170000"/>
<path d="M64.0204 8.99995L63.1002 0.497264H64.23L64.8007 6.60056C64.8163 6.75586 64.8279 6.92669 64.8357 7.11305C64.8512 7.29941 64.8629 7.48189 64.8706 7.66048C64.8862 7.83908 64.8939 7.99438 64.8939 8.12638C64.9095 7.99438 64.925 7.83908 64.9405 7.66048C64.956 7.48189 64.9716 7.29941 64.9871 7.11305C65.0104 6.92669 65.0337 6.75586 65.057 6.60056L65.7908 0.497264H66.9555L67.6427 6.60056C67.6583 6.75586 67.6738 6.92669 67.6893 7.11305C67.7126 7.29941 67.7359 7.48189 67.7592 7.66048C67.7825 7.83908 67.798 7.99438 67.8058 8.12638C67.8136 7.99438 67.8213 7.83908 67.8291 7.66048C67.8446 7.48189 67.8601 7.29941 67.8757 7.11305C67.8912 6.92669 67.9067 6.75586 67.9223 6.60056L68.5046 0.497264H69.5995L68.6444 8.99995H67.1885L66.5013 2.81512C66.4857 2.65205 66.4702 2.48122 66.4547 2.30263C66.4392 2.11627 66.4236 1.93767 66.4081 1.76684C66.3926 1.58825 66.377 1.44071 66.3615 1.32424C66.3537 1.44071 66.3421 1.58825 66.3266 1.76684C66.311 1.93767 66.2955 2.11627 66.28 2.30263C66.2644 2.48122 66.245 2.65205 66.2217 2.81512L65.4879 8.99995H64.0204Z" fill="#170000"/>
<path d="M70.981 8.99995V7.88178H72.6932V1.61542H70.981V0.497264H75.6866V1.61542H73.9744V7.88178H75.6866V8.99995H70.981Z" fill="#170000"/>
<path d="M77.767 8.99995V0.497264H79.351L81.8319 7.5673C81.8164 7.34212 81.797 7.07422 81.7737 6.76362C81.7504 6.45302 81.731 6.13078 81.7155 5.79688C81.7077 5.46299 81.7038 5.16015 81.7038 4.88837V0.497264H82.8686V8.99995H81.2845L78.8152 1.92991C78.8308 2.1318 78.8463 2.38416 78.8618 2.687C78.8851 2.98983 78.9007 3.30431 78.9084 3.63044C78.924 3.95657 78.9317 4.25941 78.9317 4.53895V8.99995H77.767Z" fill="#170000"/>
<path d="M87.3483 9.11642C86.8203 9.11642 86.3583 9.01936 85.9623 8.82523C85.574 8.62334 85.2712 8.33604 85.0538 7.96332C84.8441 7.58283 84.7393 7.14023 84.7393 6.6355V2.86171C84.7393 2.34922 84.8441 1.90661 85.0538 1.53389C85.2712 1.16117 85.574 0.877749 85.9623 0.683623C86.3583 0.481734 86.8203 0.380789 87.3483 0.380789C87.8763 0.380789 88.3345 0.481734 88.7227 0.683623C89.111 0.885514 89.4099 1.17282 89.6196 1.54554C89.837 1.91049 89.9457 2.34922 89.9457 2.86171H88.6878C88.6878 2.4191 88.5713 2.08132 88.3384 1.84837C88.1054 1.61542 87.7754 1.49895 87.3483 1.49895C86.9212 1.49895 86.5873 1.61542 86.3466 1.84837C86.1137 2.08132 85.9972 2.41522 85.9972 2.85006V6.6355C85.9972 7.07034 86.1137 7.40812 86.3466 7.64883C86.5873 7.88955 86.9212 8.00991 87.3483 8.00991C87.7754 8.00991 88.1054 7.88955 88.3384 7.64883C88.5713 7.40812 88.6878 7.07034 88.6878 6.6355V5.68041H87.1037V4.57389H89.9457V6.6355C89.9457 7.14023 89.837 7.57895 89.6196 7.95167C89.4099 8.32439 89.111 8.6117 88.7227 8.81359C88.3345 9.01548 87.8763 9.11642 87.3483 9.11642Z" fill="#170000"/>
<path d="M112.722 8.99995V0.497264H115.505C116.057 0.497264 116.534 0.602091 116.938 0.811747C117.35 1.0214 117.664 1.32035 117.882 1.7086C118.107 2.08909 118.219 2.53946 118.219 3.05972C118.219 3.57221 118.107 4.02258 117.882 4.41083C117.656 4.79908 117.342 5.09803 116.938 5.30769C116.534 5.51734 116.057 5.62217 115.505 5.62217H113.98V8.99995H112.722ZM113.98 4.49236H115.505C115.94 4.49236 116.286 4.36424 116.542 4.10799C116.806 3.84398 116.938 3.49456 116.938 3.05972C116.938 2.61711 116.806 2.26768 116.542 2.01144C116.286 1.75519 115.94 1.62707 115.505 1.62707H113.98V4.49236Z" fill="#170000"/>
<path d="M122.222 9.11642C121.693 9.11642 121.235 9.01936 120.847 8.82523C120.467 8.62334 120.172 8.33604 119.962 7.96332C119.76 7.58283 119.659 7.14023 119.659 6.6355V2.86171C119.659 2.34922 119.76 1.90661 119.962 1.53389C120.172 1.16117 120.467 0.877749 120.847 0.683623C121.235 0.481734 121.693 0.380789 122.222 0.380789C122.75 0.380789 123.204 0.481734 123.584 0.683623C123.973 0.877749 124.268 1.16117 124.469 1.53389C124.679 1.90661 124.784 2.34534 124.784 2.85006V6.6355C124.784 7.14023 124.679 7.58283 124.469 7.96332C124.268 8.33604 123.973 8.62334 123.584 8.82523C123.204 9.01936 122.75 9.11642 122.222 9.11642ZM122.222 7.99826C122.649 7.99826 122.971 7.88178 123.188 7.64883C123.413 7.40812 123.526 7.07034 123.526 6.6355V2.86171C123.526 2.4191 123.413 2.08132 123.188 1.84837C122.971 1.61542 122.649 1.49895 122.222 1.49895C121.802 1.49895 121.48 1.61542 121.255 1.84837C121.03 2.08132 120.917 2.4191 120.917 2.86171V6.6355C120.917 7.07034 121.03 7.40812 121.255 7.64883C121.48 7.88178 121.802 7.99826 122.222 7.99826Z" fill="#170000"/>
<path d="M126.69 8.99995V0.497264H129.357C129.893 0.497264 130.359 0.602091 130.755 0.811747C131.151 1.01364 131.457 1.30094 131.675 1.67366C131.9 2.04638 132.013 2.48511 132.013 2.98983C132.013 3.55668 131.865 4.04975 131.57 4.46906C131.283 4.88061 130.89 5.1718 130.394 5.34263L132.129 8.99995H130.696L129.147 5.50569H127.948V8.99995H126.69ZM127.948 4.39918H129.357C129.776 4.39918 130.11 4.27494 130.359 4.02646C130.607 3.77021 130.731 3.43244 130.731 3.01313C130.731 2.57829 130.607 2.23662 130.359 1.98814C130.11 1.73966 129.776 1.61542 129.357 1.61542H127.948V4.39918Z" fill="#170000"/>
<path d="M135.56 8.99995V1.65037H133.289V0.485616H139.09V1.65037H136.818V8.99995H135.56Z" fill="#170000"/>
<path d="M140.704 8.99995V0.485616H145.841V1.65037H141.927V4.18952H145.538V5.35428H141.95V8.99995H140.704Z" fill="#170000"/>
<path d="M150.157 9.11642C149.629 9.11642 149.171 9.01936 148.783 8.82523C148.402 8.62334 148.107 8.33604 147.898 7.96332C147.696 7.58283 147.595 7.14023 147.595 6.6355V2.86171C147.595 2.34922 147.696 1.90661 147.898 1.53389C148.107 1.16117 148.402 0.877749 148.783 0.683623C149.171 0.481734 149.629 0.380789 150.157 0.380789C150.685 0.380789 151.14 0.481734 151.52 0.683623C151.908 0.877749 152.203 1.16117 152.405 1.53389C152.615 1.90661 152.72 2.34534 152.72 2.85006V6.6355C152.72 7.14023 152.615 7.58283 152.405 7.96332C152.203 8.33604 151.908 8.62334 151.52 8.82523C151.14 9.01936 150.685 9.11642 150.157 9.11642ZM150.157 7.99826C150.584 7.99826 150.907 7.88178 151.124 7.64883C151.349 7.40812 151.462 7.07034 151.462 6.6355V2.86171C151.462 2.4191 151.349 2.08132 151.124 1.84837C150.907 1.61542 150.584 1.49895 150.157 1.49895C149.738 1.49895 149.416 1.61542 149.191 1.84837C148.965 2.08132 148.853 2.4191 148.853 2.86171V6.6355C148.853 7.07034 148.965 7.40812 149.191 7.64883C149.416 7.88178 149.738 7.99826 150.157 7.99826Z" fill="#170000"/>
<path d="M154.917 8.99995V0.497264H156.175V7.84684H159.89V8.99995H154.917Z" fill="#170000"/>
<path d="M161.772 8.99995V7.88178H163.485V1.61542H161.772V0.497264H166.478V1.61542H164.766V7.88178H166.478V8.99995H161.772Z" fill="#170000"/>
<path d="M171.109 9.11642C170.581 9.11642 170.123 9.01936 169.735 8.82523C169.354 8.62334 169.059 8.33604 168.85 7.96332C168.648 7.58283 168.547 7.14023 168.547 6.6355V2.86171C168.547 2.34922 168.648 1.90661 168.85 1.53389C169.059 1.16117 169.354 0.877749 169.735 0.683623C170.123 0.481734 170.581 0.380789 171.109 0.380789C171.637 0.380789 172.091 0.481734 172.472 0.683623C172.86 0.877749 173.155 1.16117 173.357 1.53389C173.567 1.90661 173.672 2.34534 173.672 2.85006V6.6355C173.672 7.14023 173.567 7.58283 173.357 7.96332C173.155 8.33604 172.86 8.62334 172.472 8.82523C172.091 9.01936 171.637 9.11642 171.109 9.11642ZM171.109 7.99826C171.536 7.99826 171.859 7.88178 172.076 7.64883C172.301 7.40812 172.414 7.07034 172.414 6.6355V2.86171C172.414 2.4191 172.301 2.08132 172.076 1.84837C171.859 1.61542 171.536 1.49895 171.109 1.49895C170.69 1.49895 170.368 1.61542 170.142 1.84837C169.917 2.08132 169.805 2.4191 169.805 2.86171V6.6355C169.805 7.07034 169.917 7.40812 170.142 7.64883C170.368 7.88178 170.69 7.99826 171.109 7.99826Z" fill="#170000"/>
<path d="M182.724 8.99995V7.88178H184.436V1.61542H182.724V0.497264H187.43V1.61542H185.718V7.88178H187.43V8.99995H182.724Z" fill="#170000"/>
<path d="M192.096 9.11642C191.521 9.11642 191.028 9.02324 190.617 8.83688C190.205 8.64276 189.887 8.37098 189.662 8.02155C189.436 7.66436 189.324 7.24117 189.324 6.75198H190.57C190.57 7.14023 190.706 7.44694 190.978 7.67213C191.25 7.88955 191.626 7.99826 192.108 7.99826C192.558 7.99826 192.911 7.88955 193.168 7.67213C193.424 7.45471 193.552 7.15576 193.552 6.77527C193.552 6.45691 193.463 6.18125 193.284 5.9483C193.113 5.71535 192.865 5.55617 192.539 5.47075L191.467 5.15627C190.846 4.97767 190.364 4.67484 190.023 4.24776C189.689 3.81292 189.522 3.29655 189.522 2.69864C189.522 2.23274 189.627 1.82508 189.836 1.47565C190.046 1.12623 190.345 0.854454 190.733 0.660329C191.121 0.466203 191.58 0.369141 192.108 0.369141C192.884 0.369141 193.505 0.578796 193.971 0.998106C194.445 1.41742 194.686 1.98038 194.693 2.687H193.435C193.435 2.31427 193.315 2.02309 193.074 1.81343C192.841 1.59601 192.511 1.4873 192.084 1.4873C191.673 1.4873 191.351 1.58825 191.118 1.79014C190.885 1.98426 190.768 2.25992 190.768 2.61711C190.768 2.93548 190.854 3.21113 191.024 3.44408C191.203 3.67703 191.455 3.8401 191.782 3.93328L192.865 4.25941C193.486 4.43024 193.963 4.73307 194.297 5.16791C194.631 5.60276 194.798 6.12301 194.798 6.72868C194.798 7.20235 194.686 7.62166 194.46 7.98661C194.235 8.3438 193.921 8.62334 193.517 8.82523C193.113 9.01936 192.64 9.11642 192.096 9.11642Z" fill="#170000"/>
<path d="M203.513 8.99995V0.497264H206.297C206.848 0.497264 207.326 0.602091 207.73 0.811747C208.141 1.0214 208.456 1.32035 208.673 1.7086C208.898 2.08909 209.011 2.53946 209.011 3.05972C209.011 3.57221 208.898 4.02258 208.673 4.41083C208.448 4.79908 208.133 5.09803 207.73 5.30769C207.326 5.51734 206.848 5.62217 206.297 5.62217H204.771V8.99995H203.513ZM204.771 4.49236H206.297C206.732 4.49236 207.077 4.36424 207.333 4.10799C207.598 3.84398 207.73 3.49456 207.73 3.05972C207.73 2.61711 207.598 2.26768 207.333 2.01144C207.077 1.75519 206.732 1.62707 206.297 1.62707H204.771V4.49236Z" fill="#170000"/>
<path d="M210.497 8.99995V0.497264H213.164C213.7 0.497264 214.166 0.602091 214.562 0.811747C214.958 1.01364 215.265 1.30094 215.482 1.67366C215.707 2.04638 215.82 2.48511 215.82 2.98983C215.82 3.55668 215.672 4.04975 215.377 4.46906C215.09 4.88061 214.698 5.1718 214.201 5.34263L215.936 8.99995H214.504L212.955 5.50569H211.755V8.99995H210.497ZM211.755 4.39918H213.164C213.584 4.39918 213.918 4.27494 214.166 4.02646C214.415 3.77021 214.539 3.43244 214.539 3.01313C214.539 2.57829 214.415 2.23662 214.166 1.98814C213.918 1.73966 213.584 1.61542 213.164 1.61542H211.755V4.39918Z" fill="#170000"/>
<path d="M219.997 9.11642C219.469 9.11642 219.011 9.01936 218.622 8.82523C218.242 8.62334 217.947 8.33604 217.737 7.96332C217.535 7.58283 217.434 7.14023 217.434 6.6355V2.86171C217.434 2.34922 217.535 1.90661 217.737 1.53389C217.947 1.16117 218.242 0.877749 218.622 0.683623C219.011 0.481734 219.469 0.380789 219.997 0.380789C220.525 0.380789 220.979 0.481734 221.36 0.683623C221.748 0.877749 222.043 1.16117 222.245 1.53389C222.454 1.90661 222.559 2.34534 222.559 2.85006V6.6355C222.559 7.14023 222.454 7.58283 222.245 7.96332C222.043 8.33604 221.748 8.62334 221.36 8.82523C220.979 9.01936 220.525 9.11642 219.997 9.11642ZM219.997 7.99826C220.424 7.99826 220.746 7.88178 220.964 7.64883C221.189 7.40812 221.301 7.07034 221.301 6.6355V2.86171C221.301 2.4191 221.189 2.08132 220.964 1.84837C220.746 1.61542 220.424 1.49895 219.997 1.49895C219.578 1.49895 219.255 1.61542 219.03 1.84837C218.805 2.08132 218.692 2.4191 218.692 2.86171V6.6355C218.692 7.07034 218.805 7.40812 219.03 7.64883C219.255 7.88178 219.578 7.99826 219.997 7.99826Z" fill="#170000"/>
<path d="M227.027 9.11642C226.499 9.11642 226.037 9.01936 225.641 8.82523C225.253 8.62334 224.95 8.33604 224.733 7.96332C224.523 7.58283 224.418 7.14023 224.418 6.6355V2.86171C224.418 2.34922 224.523 1.90661 224.733 1.53389C224.95 1.16117 225.253 0.877749 225.641 0.683623C226.037 0.481734 226.499 0.380789 227.027 0.380789C227.555 0.380789 228.014 0.481734 228.402 0.683623C228.79 0.885514 229.089 1.17282 229.299 1.54554C229.516 1.91049 229.625 2.34922 229.625 2.86171H228.367C228.367 2.4191 228.25 2.08132 228.017 1.84837C227.785 1.61542 227.455 1.49895 227.027 1.49895C226.6 1.49895 226.266 1.61542 226.026 1.84837C225.793 2.08132 225.676 2.41522 225.676 2.85006V6.6355C225.676 7.07034 225.793 7.40812 226.026 7.64883C226.266 7.88955 226.6 8.00991 227.027 8.00991C227.455 8.00991 227.785 7.88955 228.017 7.64883C228.25 7.40812 228.367 7.07034 228.367 6.6355V5.68041H226.783V4.57389H229.625V6.6355C229.625 7.14023 229.516 7.57895 229.299 7.95167C229.089 8.32439 228.79 8.6117 228.402 8.81359C228.014 9.01548 227.555 9.11642 227.027 9.11642Z" fill="#170000"/>
<path d="M231.449 8.99995V0.497264H234.116C234.652 0.497264 235.118 0.602091 235.514 0.811747C235.91 1.01364 236.217 1.30094 236.434 1.67366C236.659 2.04638 236.772 2.48511 236.772 2.98983C236.772 3.55668 236.624 4.04975 236.329 4.46906C236.042 4.88061 235.65 5.1718 235.153 5.34263L236.888 8.99995H235.456L233.907 5.50569H232.707V8.99995H231.449ZM232.707 4.39918H234.116C234.536 4.39918 234.869 4.27494 235.118 4.02646C235.366 3.77021 235.491 3.43244 235.491 3.01313C235.491 2.57829 235.366 2.23662 235.118 1.98814C234.869 1.73966 234.536 1.61542 234.116 1.61542H232.707V4.39918Z" fill="#170000"/>
<path d="M237.955 8.99995L240.122 0.497264H241.776L243.942 8.99995H242.673L242.16 6.84516H239.749L239.237 8.99995H237.955ZM239.982 5.80853H241.915L241.333 3.3509C241.232 2.91606 241.147 2.53946 241.077 2.2211C241.015 1.89496 240.972 1.67366 240.949 1.55719C240.925 1.67366 240.883 1.89496 240.821 2.2211C240.759 2.53946 240.673 2.91218 240.564 3.33926L239.982 5.80853Z" fill="#170000"/>
<path d="M245.207 8.99995V0.497264H246.756L247.607 3.22278C247.692 3.47903 247.766 3.72751 247.828 3.96822C247.89 4.20117 247.933 4.37588 247.956 4.49236C247.987 4.37588 248.03 4.20117 248.084 3.96822C248.146 3.72751 248.216 3.47903 248.294 3.22278L249.109 0.497264H250.658V8.99995H249.47V6.13466C249.47 5.7697 249.478 5.36592 249.493 4.92332C249.517 4.47295 249.548 4.02258 249.587 3.57221C249.625 3.11407 249.664 2.67923 249.703 2.26769C249.742 1.84837 249.777 1.48342 249.808 1.17282L248.55 5.30769H247.339L246.057 1.17282C246.096 1.47565 246.135 1.82896 246.174 2.23274C246.213 2.62876 246.248 3.05195 246.279 3.50232C246.31 3.95269 246.337 4.40694 246.36 4.86508C246.384 5.31545 246.395 5.73864 246.395 6.13466V8.99995H245.207Z" fill="#170000"/>
<path d="M252.191 8.99995V0.497264H253.74L254.591 3.22278C254.676 3.47903 254.75 3.72751 254.812 3.96822C254.874 4.20117 254.917 4.37588 254.94 4.49236C254.971 4.37588 255.014 4.20117 255.068 3.96822C255.13 3.72751 255.2 3.47903 255.278 3.22278L256.093 0.497264H257.642V8.99995H256.454V6.13466C256.454 5.7697 256.462 5.36592 256.477 4.92332C256.501 4.47295 256.532 4.02258 256.571 3.57221C256.609 3.11407 256.648 2.67923 256.687 2.26769C256.726 1.84837 256.761 1.48342 256.792 1.17282L255.534 5.30769H254.323L253.041 1.17282C253.08 1.47565 253.119 1.82896 253.158 2.23274C253.197 2.62876 253.232 3.05195 253.263 3.50232C253.294 3.95269 253.321 4.40694 253.344 4.86508C253.368 5.31545 253.379 5.73864 253.379 6.13466V8.99995H252.191Z" fill="#170000"/>
<path d="M259.501 8.99995V0.497264H264.498V1.61542H260.736V4.02646H264.09V5.13297H260.736V7.88178H264.498V8.99995H259.501Z" fill="#170000"/>
<path d="M266.357 8.99995V0.497264H268.733C269.292 0.497264 269.778 0.605974 270.189 0.823394C270.601 1.03305 270.919 1.332 271.144 1.72025C271.377 2.1085 271.494 2.56664 271.494 3.09466V6.3909C271.494 6.91116 271.377 7.36929 271.144 7.76531C270.919 8.16133 270.601 8.46804 270.189 8.68546C269.778 8.89512 269.292 8.99995 268.733 8.99995H266.357ZM267.615 7.85849H268.733C269.199 7.85849 269.564 7.73037 269.828 7.47412C270.1 7.21011 270.236 6.84904 270.236 6.3909V3.09466C270.236 2.64429 270.1 2.29098 269.828 2.03473C269.564 1.77072 269.199 1.63872 268.733 1.63872H267.615V7.85849Z" fill="#170000"/>
<path d="M349.699 8.99995L351.865 0.497264H353.519L355.685 8.99995H354.416L353.903 6.84516H351.492L350.98 8.99995H349.699ZM351.725 5.80853H353.659L353.076 3.3509C352.975 2.91606 352.89 2.53946 352.82 2.2211C352.758 1.89496 352.715 1.67366 352.692 1.55719C352.669 1.67366 352.626 1.89496 352.564 2.2211C352.502 2.53946 352.416 2.91218 352.308 3.33926L351.725 5.80853Z" fill="#170000"/>
<path d="M357.125 8.99995V0.497264H358.709L361.19 7.5673C361.175 7.34212 361.155 7.07422 361.132 6.76362C361.109 6.45302 361.089 6.13078 361.074 5.79688C361.066 5.46299 361.062 5.16015 361.062 4.88837V0.497264H362.227V8.99995H360.643L358.173 1.92991C358.189 2.1318 358.205 2.38416 358.22 2.687C358.243 2.98983 358.259 3.30431 358.267 3.63044C358.282 3.95657 358.29 4.25941 358.29 4.53895V8.99995H357.125Z" fill="#170000"/>
<path d="M364.132 8.99995V0.497264H366.509C367.068 0.497264 367.553 0.605974 367.964 0.823394C368.376 1.03305 368.694 1.332 368.92 1.72025C369.153 2.1085 369.269 2.56664 369.269 3.09466V6.3909C369.269 6.91116 369.153 7.36929 368.92 7.76531C368.694 8.16133 368.376 8.46804 367.964 8.68546C367.553 8.89512 367.068 8.99995 366.509 8.99995H364.132ZM365.39 7.85849H366.509C366.974 7.85849 367.339 7.73037 367.603 7.47412C367.875 7.21011 368.011 6.84904 368.011 6.3909V3.09466C368.011 2.64429 367.875 2.29098 367.603 2.03473C367.339 1.77072 366.974 1.63872 366.509 1.63872H365.39V7.85849Z" fill="#170000"/>
<path d="M344.895 112.096L342.939 114.052L335.208 106.321C330.682 111.781 328.251 111.84 328.201 111.841C328.201 111.841 325.202 111.84 318.325 102.501C314.768 97.6693 314.518 92.0651 316.666 87.7803L309.843 80.957L311.8 79L344.895 112.096ZM328.201 80.9326C339.474 80.9332 344.491 93.1615 338.076 102.501C337.986 102.632 337.894 102.761 337.805 102.889L335.076 100.16C336.65 98.8918 337.658 96.9498 337.658 94.7715C335.48 94.7715 333.537 95.7789 332.269 97.3525L319.236 84.3203C321.454 82.2374 324.519 80.9326 328.201 80.9326ZM318.744 94.7715C318.744 98.5929 321.843 101.691 325.664 101.691C325.664 97.87 322.566 94.7717 318.744 94.7715Z" fill="#170000"/>
<path d="M369.825 92.1753V92.1753C370.53 94.8548 370.53 97.6712 369.825 100.351V100.351V100.351C367.145 101.056 364.329 101.056 361.649 100.351V100.351V100.351C360.944 97.6712 360.944 94.8548 361.649 92.1753V92.1753V92.1753C364.329 91.4702 367.145 91.4702 369.825 92.1753V92.1753Z" fill="#170000"/>
<rect x="378" y="84" width="8.17535" height="8.17535" transform="rotate(90 378 84)" fill="#170000"/>
<rect x="378" y="100.351" width="8.17535" height="8.17535" transform="rotate(90 378 100.351)" fill="#170000"/>
<rect x="361.649" y="100.351" width="8.17535" height="8.17535" transform="rotate(90 361.649 100.351)" fill="#170000"/>
<rect x="361.649" y="84" width="8.17535" height="8.17535" transform="rotate(90 361.649 84)" fill="#170000"/>
<path d="M287.665 87.4882L279.941 100.925C278.123 104.087 279.17 108.123 282.297 110.002V110.002C285.363 111.845 289.337 110.953 291.32 107.975L302.637 90.985C304.21 88.624 303.49 85.4278 301.058 83.9682V83.9682C298.72 82.5655 295.688 83.3082 294.264 85.6328L283.982 102.407C283.3 103.52 283.62 104.974 284.707 105.697V105.697C285.848 106.457 287.391 106.122 288.115 104.958L297.691 89.5525" stroke="black" stroke-width="2"/>
</svg>
