<svg width="332" height="322" viewBox="0 0 332 322" fill="none" xmlns="http://www.w3.org/2000/svg">
<path d="M140.425 39.2217C191.623 10.5211 256.53 28.2498 285.963 79.2285L286.505 80.1758C308.702 119.296 311.784 166.985 282.482 205.274L284.521 231.208L284.564 231.83C285.306 244.67 277.721 256.548 265.76 261.276L265.178 261.5C251.764 266.483 236.736 261.233 229.325 249.065L228.979 248.48L227.775 246.402L191.281 267.474C190.887 267.701 190.491 267.924 190.096 268.146V281.985L190.088 282.665C189.772 296.681 179.718 308.595 165.954 311.262L165.285 311.384C152.353 313.588 139.526 307.083 133.644 295.411L133.369 294.852L126.907 281.34C118.176 280.462 109.588 278.523 101.343 275.573C94.0798 282.725 83.1873 285.246 73.3154 281.604H73.3145C66.076 278.933 60.6046 273.4 57.8369 266.678L39.5674 256.552C31.0352 251.822 23.9722 243.949 19.1338 235.397C14.2956 226.846 11.1851 216.737 11.5254 206.988L11.5488 206.428C12.0849 195.607 17.1801 185.833 27.0146 182.089C24.1742 161.619 27.3511 140.866 35.8535 122.36C33.6023 116.07 31.1517 107.966 29.8076 100.34C28.9937 95.7212 28.4836 90.7276 28.9199 86.2061C29.3184 82.0761 30.761 75.813 36.3545 72.084L36.3555 72.083L36.9512 71.6719C37.5813 71.2255 38.3403 70.6588 39.4678 69.8398C40.8065 68.8674 42.4833 67.6794 44.2959 66.5928C46.0777 65.5246 48.3001 64.3638 50.7695 63.6084C53.225 62.8574 56.5169 62.3267 60.0732 63.249H60.0742L60.7188 63.4238C65.9855 64.9166 72.4926 68.2877 79.3789 74.2598C98.9096 61.6927 120.225 50.8738 139.218 39.9082L140.425 39.2217Z" fill="#FFFCF8" stroke="#FFFCF8" stroke-width="19"/>
<path d="M65.897 254.418L69.9222 230.895C69.9312 230.842 69.9837 230.809 70.0355 230.822L113.254 242.359C113.325 242.377 113.356 242.46 113.316 242.521L97.3163 266.818C92.9045 273.518 84.4577 276.293 76.9319 273.516C69.1336 270.639 64.4951 262.611 65.897 254.418Z" fill="#F38459"/>
<mask id="mask0_282_1469" style="mask-type:alpha" maskUnits="userSpaceOnUse" x="35" y="35" width="261" height="239">
<rect x="229.102" width="204.109" height="264.544" rx="97.9248" transform="rotate(60 229.102 0)" fill="#FB8F6B"/>
</mask>
<g mask="url(#mask0_282_1469)">
<rect x="229.102" width="204.109" height="264.544" rx="97.9248" transform="rotate(60 229.102 0)" fill="#FB8F6B"/>
<path d="M191.593 -3.58173C238.486 -31.2781 298.967 -15.3927 326.198 31.7723L329.84 38.0811C356.881 84.9178 340.834 144.808 293.997 171.849L181.561 236.764C138.987 261.344 84.7867 250.549 54.8794 211.531L51.2033 206.735C15.4626 160.108 28.5377 92.723 79.1231 62.8459L191.593 -3.58173Z" fill="#FFAF8A"/>
</g>
<path d="M180.924 282.812V259.295C180.924 259.239 180.876 259.195 180.82 259.2L129.042 263.545C128.958 263.552 128.906 263.642 128.943 263.718L142.268 291.58C146.186 299.772 155.064 304.371 164.016 302.845C173.782 301.181 180.924 292.718 180.924 282.812Z" fill="#FB8F6B"/>
<path d="M237.529 244.549L225.752 224.194C225.724 224.146 225.743 224.084 225.794 224.06L272.787 201.889C272.863 201.853 272.953 201.905 272.959 201.99L275.379 232.779C276.091 241.832 270.71 250.258 262.197 253.421C252.911 256.871 242.49 253.123 237.529 244.549Z" fill="#FB8F6B"/>
<path d="M93.4481 193.274C106.841 200.697 117.264 219.121 116.73 234.424C116.455 242.306 113.325 247.821 108.526 250.304L84.4557 264.316L27.6664 194.058L49.6545 180.924C54.2948 176.28 61.6846 175.667 69.8573 180.197L93.4481 193.274Z" fill="#F38459"/>
<rect width="82.4512" height="55.1459" rx="27.573" transform="matrix(0.87462 0.48481 -0.0348995 0.999391 22.3096 180.59)" fill="#FFAF8A"/>
<rect width="14.9911" height="35.3362" rx="7.49556" transform="matrix(0.87462 0.48481 -0.0348995 0.999391 37.876 199.58)" fill="#F38459"/>
<rect width="14.9911" height="35.3362" rx="7.49556" transform="matrix(0.87462 0.48481 -0.0348995 0.999391 63.6309 213.857)" fill="#F38459"/>
<path d="M152.53 122.242C164.94 115.045 180.765 118.207 189.456 129.62L192.21 133.236L194.17 137.319C200.478 150.455 195.794 166.233 183.342 173.8V173.8L172.237 180.547L162.039 158.791C160.405 155.306 158.498 151.955 156.334 148.771L142.8 128.854L152.53 122.242V122.242Z" fill="#F38459"/>
<path d="M142.365 129.119C154.864 121.486 171.187 125.474 178.758 138.01L179.832 139.789L181.43 142.379C189.496 155.448 185.368 172.585 172.237 180.548V180.548L158.805 154.031L142.365 129.119V129.119Z" fill="#FB8F6B"/>
<path d="M52.4959 74.3776L42.5918 80.4513L77.6275 105.934L88.1844 99.381C76.3346 81.6063 64.5196 74.9578 58.0172 73.2711C56.1185 72.7785 54.168 73.3521 52.4959 74.3776Z" fill="#F38459"/>
<path d="M41.9527 80.8144C34.0896 86.0565 41.8314 111.879 46.6851 124.134C48.6266 121.95 53.9658 115.034 59.0622 111.393C64.2596 107.681 73.1382 106.175 77.6279 105.933C69.0125 95.3757 49.8158 75.5723 41.9527 80.8144Z" fill="#FB8F6B"/>
<ellipse cx="66.2542" cy="157.262" rx="5.82452" ry="12.3771" fill="#4E3938"/>
<ellipse cx="107.026" cy="178.375" rx="5.82452" ry="12.3771" fill="#4E3938"/>
</svg>
