<svg width="288" height="232" viewBox="0 0 288 232" fill="none" xmlns="http://www.w3.org/2000/svg">
<path d="M96.6815 13.9512C107.623 5.6698 132.182 -8.06117 171.311 6.16798L177.626 7.10548C197.364 6.4876 235.433 2.61283 257.384 39.3145C291.408 55.1749 287.897 80.4363 287.897 110.152C287.897 174.96 229.154 227.497 156.691 227.497C140.046 227.497 124.124 224.722 109.473 219.666C91.8701 231.24 70.9349 235.073 52.1913 228.211C49.8148 227.341 47.5383 226.321 45.3651 225.166C42.9252 224.633 40.5092 223.935 38.1288 223.063C4.92569 210.907 -8.82389 169.797 7.41881 131.242C11.8652 120.688 18.0979 111.419 25.4872 103.772C25.5386 61.7876 27.7401 13.9514 96.6815 13.9512Z" fill="#FFFCF8"/>
<mask id="mask0_282_1468" style="mask-type:alpha" maskUnits="userSpaceOnUse" x="43" y="19" width="225" height="188">
<path d="M267.771 109.971C267.771 163.257 217.569 206.454 155.642 206.454C93.7148 206.454 43.513 163.257 43.513 109.971C43.513 74.3242 42.4306 30.8719 104.358 30.8719C113.919 23.9093 135.649 12.2611 170.417 25.299C186.063 25.299 221.702 19.5649 241.694 51.7259C270.771 64.7667 267.771 85.5373 267.771 109.971Z" fill="#EE3C30"/>
</mask>
<g mask="url(#mask0_282_1468)">
<path d="M267.771 109.971C267.771 163.257 217.569 206.454 155.642 206.454C93.7148 206.454 43.513 163.257 43.513 109.971C43.513 74.3242 42.4306 30.8719 104.358 30.8719C113.919 23.9093 135.649 12.2611 170.417 25.299C186.063 25.299 221.702 19.5649 241.694 51.7259C270.771 64.7667 267.771 85.5373 267.771 109.971Z" fill="#EE3C30"/>
<path d="M173.025 55.7188C154.772 68.757 139.132 87.8798 139.132 121.779" stroke="#EE544A" stroke-width="7.27612" stroke-linecap="round"/>
<path d="M146.661 61.9214C137.388 56.5892 98.2732 53.9811 78.2784 72.6015" stroke="#EE544A" stroke-width="7.27612" stroke-linecap="round"/>
<path d="M135.664 48.7922C121.814 36.063 98.2482 27.5142 67.8517 34.9462" stroke="#EE544A" stroke-width="7.27612" stroke-linecap="round"/>
<path d="M260.816 57.4576C244.301 45.2886 210.992 42.2076 182.586 55.3342" stroke="#EE544A" stroke-width="7.27612" stroke-linecap="round"/>
<path d="M136.519 47.0274C135.128 43.5505 118.845 35.4378 110.443 32.2507C124.35 30.1646 143.763 38.6249 152.165 42.6813L167.811 24.4277L173.896 25.297L175.634 47.0274C190.237 40.769 208.374 42.3916 216.487 44.4197C205.187 44.4197 189.831 51.0837 182.588 54.8503C196.495 56.2411 209.244 69.9168 213.88 76.5807C197.364 65.2809 173.026 60.0656 166.942 60.0656C162.074 60.0656 150.427 75.132 145.211 82.6653V58.3272C132.695 54.155 106.966 57.7477 95.666 60.0656C102.62 53.1119 125.799 48.4761 136.519 47.0274Z" fill="#4C854E"/>
<path d="M170.418 33.3262C168.662 38.1548 168.847 45.9622 169.199 50.0576C169.239 50.2718 169.259 50.4891 169.259 50.709C169.259 54.2293 164.07 57.0839 157.67 57.084C151.269 57.084 146.08 53.0711 146.08 49.5508V49.5498C148.398 45.493 151.102 36.9958 151.875 33.3262H170.418Z" fill="#324728"/>
<ellipse cx="161.147" cy="33.3266" rx="9.27161" ry="5.21528" fill="#4C854E"/>
<path d="M176.503 153.073C121.569 166.285 66.6921 144.091 46.1206 131.342C40.9053 166.98 98.2737 262.594 181.718 262.594C248.474 262.594 281.968 160.026 290.371 108.742L263.425 83.5352C257.34 101.209 231.438 139.86 176.503 153.073Z" fill="#DD332C"/>
<path d="M268.328 125.72C266.903 145.624 222.057 175.457 147.818 173.064C73.5791 170.671 39.5553 131.119 40.9802 111.216" stroke="#9E0E08" stroke-width="3.63806"/>
</g>
<path d="M79.1504 143.513C114.788 164.374 203.448 173.066 260.817 128.736" stroke="#FFE1AF" stroke-width="3.63806" stroke-miterlimit="16" stroke-linecap="round" stroke-dasharray="1.21 13.34"/>
<g style="mix-blend-mode:multiply" opacity="0.25">
<path d="M120.673 182.381C129.446 156.756 110.471 129.767 99.3376 118.872C98.9745 118.517 98.4352 118.443 97.9794 118.668L62.5327 136.128C62.1453 136.319 61.8886 136.702 61.8588 137.132L56.8445 209.607C56.8023 210.217 57.2211 210.763 57.8213 210.88L78.5985 214.947C95.2486 218.206 111.362 209.288 116.925 193.26C118.061 189.987 119.308 186.369 120.673 182.381Z" fill="black"/>
</g>
<path d="M74.4782 163.147L72.9268 167.802C72.7453 168.346 72.9704 168.944 73.4662 169.233L79.6721 172.853C80.7401 173.476 81.9462 172.289 81.3401 171.211L76.6857 162.936C76.1698 162.019 74.811 162.149 74.4782 163.147Z" fill="#FFE1AF"/>
<ellipse cx="43.1911" cy="53.7995" rx="43.1911" ry="53.7995" transform="matrix(-0.930789 -0.365556 -0.365556 0.930789 129.142 128.111)" fill="#DA890F"/>
<mask id="mask1_282_1468" style="mask-type:alpha" maskUnits="userSpaceOnUse" x="24" y="109" width="91" height="106">
<path d="M88.9395 112.322C66.7367 103.603 39.9326 118.953 29.0709 146.609C18.2093 174.265 27.4034 203.754 49.6062 212.474C71.8091 221.194 98.6135 205.843 109.475 178.187C120.337 150.531 111.142 121.042 88.9395 112.322Z" fill="#DA890F"/>
</mask>
<g mask="url(#mask1_282_1468)">
</g>
<rect width="10.1032" height="107.599" transform="matrix(-0.930789 -0.365556 -0.365556 0.930789 89.6455 112.6)" fill="#DA890F"/>
<mask id="mask2_282_1468" style="mask-type:alpha" maskUnits="userSpaceOnUse" x="15" y="106" width="90" height="106">
<ellipse cx="43.1911" cy="53.7995" rx="43.1911" ry="53.7995" transform="matrix(-0.930789 -0.365556 -0.365556 0.930789 119.737 124.418)" fill="#F4A42C"/>
</mask>
<g mask="url(#mask2_282_1468)">
<ellipse cx="43.1911" cy="53.7995" rx="43.1911" ry="53.7995" transform="matrix(-0.930789 -0.365556 -0.365556 0.930789 119.737 124.418)" fill="#F4A42C"/>
<rect width="19.4383" height="120.733" transform="matrix(-0.916654 0.399681 0.399681 0.916654 52.8184 88.9102)" fill="#F8B34D"/>
<rect width="18.5348" height="120.733" transform="matrix(-0.916654 0.399681 0.399681 0.916654 29.958 102.385)" fill="#F8B34D"/>
</g>
<mask id="mask3_282_1468" style="mask-type:alpha" maskUnits="userSpaceOnUse" x="20" y="112" width="76" height="92">
<ellipse cx="35.6138" cy="46.7273" rx="35.6138" ry="46.7273" transform="matrix(-0.930789 -0.365556 -0.365556 0.930789 108.219 127.492)" fill="#DA890F"/>
</mask>
<g mask="url(#mask3_282_1468)">
<ellipse cx="35.6138" cy="46.7273" rx="35.6138" ry="46.7273" transform="matrix(-0.930789 -0.365556 -0.365556 0.930789 108.219 127.492)" fill="#DA890F"/>
<mask id="mask4_282_1468" style="mask-type:alpha" maskUnits="userSpaceOnUse" x="24" y="114" width="76" height="92">
<ellipse cx="35.6138" cy="46.7273" rx="35.6138" ry="46.7273" transform="matrix(-0.930789 -0.365556 -0.365556 0.930789 112.45 129.156)" fill="#F4A42C"/>
</mask>
<g mask="url(#mask4_282_1468)">
<ellipse cx="35.6138" cy="46.7273" rx="35.6138" ry="46.7273" transform="matrix(-0.930789 -0.365556 -0.365556 0.930789 112.45 129.156)" fill="#F4A42C"/>
<rect width="19.4383" height="120.733" transform="matrix(-0.916654 0.399681 0.399681 0.916654 64.792 98.5)" fill="#F8B34D"/>
<rect width="18.5348" height="120.733" transform="matrix(-0.916654 0.399681 0.399681 0.916654 41.9326 111.973)" fill="#F8B34D"/>
</g>
</g>
</svg>
