<svg width="670" height="681" viewBox="0 0 670 681" fill="none" xmlns="http://www.w3.org/2000/svg">
<g filter="url(#filter0_dddd_279_1294)">
<path d="M312.113 31.6104C338.826 11.5376 375.687 11.6973 402.239 32.0889L405.059 34.2539C416.031 42.6804 430.029 46.1308 443.66 43.7686L447.163 43.1611C480.41 37.3995 513.378 54.7027 527.522 85.3369L529.013 88.5645C534.812 101.125 545.604 110.685 558.771 114.929L562.155 116.02C594.02 126.288 615.091 156.533 613.746 189.92L613.71 190.709L613.529 194.26C612.827 208.077 617.94 221.557 627.628 231.434L630.117 233.972C653.561 257.872 658.162 294.445 641.455 323.383L641.057 324.064L639.247 327.124C632.204 339.032 630.467 353.344 634.455 366.592L635.479 369.996C645.207 402.306 632.004 437.119 603.298 454.854L600.273 456.722C588.504 463.993 580.314 475.858 577.688 489.441L577.014 492.932C570.611 526.061 542.742 550.751 509.083 553.113L505.536 553.362C491.735 554.331 478.97 561.031 470.333 571.839L468.113 574.616C447.048 600.975 410.898 609.885 379.996 596.335L376.74 594.907C364.07 589.351 349.653 589.351 336.982 594.907L333.727 596.335C303.066 609.78 267.238 601.113 246.105 575.23L245.609 574.616L243.39 571.839C234.888 561.2 222.385 554.541 208.832 553.412L208.187 553.362L204.64 553.113C170.98 550.751 143.111 526.061 136.709 492.932L136.034 489.441C133.45 476.07 125.474 464.364 113.999 457.065L113.449 456.722L110.426 454.854C81.7196 437.119 68.5161 402.306 78.2432 369.996L79.2676 366.592C83.1934 353.551 81.571 339.48 74.8018 327.685L74.4756 327.124L72.666 324.064C55.4894 295.021 59.9776 258.06 83.6055 233.972L86.0947 231.434L86.5449 230.968C95.9404 221.135 100.884 207.861 100.193 194.26L100.013 190.709C98.3006 157.01 119.451 126.368 151.567 116.02L154.951 114.929C168.119 110.685 178.911 101.125 184.71 88.5645L186.2 85.3369C200.345 54.7027 233.313 37.3995 266.56 43.1611L270.062 43.7686L270.701 43.875C284.13 46.0219 297.863 42.5488 308.664 34.2539L311.483 32.0889L312.113 31.6104Z" fill="#256B49" stroke="white" stroke-width="25"/>
<mask id="mask0_279_1294" style="mask-type:alpha" maskUnits="userSpaceOnUse" x="74" y="29" width="565" height="562">
<path d="M319.098 42.0023C341.368 24.8984 372.354 24.8984 394.625 42.0023L397.444 44.1675C411.188 54.7223 428.721 59.0438 445.795 56.0849L449.298 55.4779C476.966 50.6829 504.403 65.0828 516.174 90.5773L517.664 93.8047C524.928 109.537 538.445 121.512 554.938 126.827L558.322 127.917C585.049 136.529 602.651 162.03 601.226 190.075L601.046 193.625C600.167 210.931 606.57 227.816 618.704 240.187L621.194 242.724C640.857 262.771 644.592 293.531 630.297 317.701L628.488 320.761C619.667 335.676 617.49 353.603 622.485 370.196L623.51 373.599C631.605 400.488 620.617 429.46 596.728 444.219L593.703 446.087C578.961 455.195 568.703 470.056 565.415 487.07L564.741 490.56C559.413 518.131 536.219 538.678 508.207 540.644L504.661 540.893C487.375 542.106 471.386 550.498 460.568 564.035L458.349 566.812C440.818 588.749 410.733 596.164 385.016 584.887L381.76 583.46C365.89 576.501 347.832 576.501 331.963 583.46L328.707 584.887C302.99 596.164 272.905 588.749 255.374 566.812L253.155 564.035C242.337 550.498 226.347 542.106 209.061 540.893L205.515 540.644C177.503 538.678 154.31 518.131 148.982 490.56L148.307 487.07C145.02 470.056 134.761 455.195 120.019 446.087L116.995 444.219C93.1052 429.46 82.1175 400.488 90.2125 373.599L91.2373 370.196C96.2327 353.603 94.056 335.676 85.2349 320.761L83.4252 317.701C69.1306 293.531 72.8655 262.771 92.5291 242.724L95.0184 240.187C107.153 227.816 113.556 210.931 112.677 193.625L112.496 190.075C111.072 162.03 128.674 136.529 155.401 127.917L158.785 126.827C175.278 121.512 188.794 109.537 196.059 93.8047L197.549 90.5773C209.32 65.0828 236.757 50.6829 264.425 55.4779L267.928 56.0849C285.002 59.0438 302.535 54.7222 316.278 44.1675L319.098 42.0023Z" fill="#256B49"/>
</mask>
<g mask="url(#mask0_279_1294)">
<g style="mix-blend-mode:soft-light" opacity="0.3">
<rect width="123.955" height="900.495" transform="translate(359.168 -160.172) rotate(21.9635)" fill="white"/>
<rect width="51.275" height="900.495" transform="translate(526.871 -91.8149) rotate(21.9635)" fill="white"/>
</g>
</g>
<path d="M269.251 488.841L263.429 494.294L251.252 482.934L244.962 488.825L254.073 497.324L248.42 502.618L239.309 494.118L227.239 505.421L219.958 498.629L249.794 470.69L269.251 488.841Z" fill="white"/>
<path d="M272.39 530.133L259.15 522.555L253.068 527.378L244.022 522.201L279.272 495.366L289.279 501.092L279.7 542.62L270.553 537.385L272.39 530.133ZM274.381 522.433L278.19 507.403L265.638 517.429L274.381 522.433Z" fill="white"/>
<path d="M337.778 517.925L311.522 553.08L299.505 549.785L297.796 506.963L308.016 509.765L308.521 541.88L327.614 515.138L337.778 517.925Z" fill="white"/>
<path d="M354.62 559.16C350.777 559.113 347.259 558.177 344.064 556.353C340.908 554.528 338.403 552.013 336.548 548.808C334.734 545.563 333.856 541.942 333.916 537.945C333.976 533.947 334.962 530.368 336.872 527.208C338.822 524.048 341.402 521.595 344.611 519.849C347.86 518.103 351.405 517.253 355.248 517.3C359.091 517.347 362.59 518.282 365.746 520.106C368.941 521.931 371.427 524.446 373.203 527.651C375.018 530.856 375.896 534.458 375.836 538.456C375.776 542.453 374.791 546.052 372.879 549.25C370.968 552.41 368.408 554.864 365.198 556.61C361.989 558.357 358.463 559.207 354.62 559.16ZM354.756 550.078C358.017 550.117 360.634 549.062 362.607 546.912C364.619 544.763 365.652 541.903 365.706 538.332C365.76 534.722 364.813 531.838 362.865 529.679C360.957 527.482 358.373 526.364 355.113 526.324C351.813 526.284 349.158 527.319 347.146 529.429C345.174 531.541 344.16 534.42 344.105 538.069C344.051 541.678 344.978 544.582 346.886 546.779C348.834 548.938 351.457 550.037 354.756 550.078Z" fill="white"/>
<path d="M407.516 552.076L395.241 539.12L392.917 539.667L396.917 554.57L387.225 556.85L376.629 517.372L392.896 513.545C396.032 512.807 398.842 512.723 401.325 513.295C403.847 513.857 405.912 514.966 407.521 516.62C409.119 518.237 410.231 520.207 410.855 522.532C411.559 525.156 411.432 527.677 410.474 530.095C409.554 532.504 407.755 534.481 405.077 536.028L418.455 549.501L407.516 552.076ZM391.091 532.862L397.099 531.449C398.875 531.031 400.081 530.288 400.719 529.222C401.395 528.146 401.521 526.821 401.098 525.246C400.696 523.746 399.925 522.672 398.787 522.023C397.687 521.366 396.248 521.246 394.473 521.664L388.465 523.077L391.091 532.862Z" fill="white"/>
<path d="M419.766 504.05L437.564 540.847L428.395 544.728L410.597 507.931L419.766 504.05Z" fill="white"/>
<path d="M449.381 486.428L454.046 492.898L444.885 498.674L464.126 525.358L455.704 530.668L436.462 503.984L427.301 509.76L422.635 503.289L449.381 486.428Z" fill="white"/>
<path d="M464.533 482.878L470.661 488.429L480.259 479.174L485.955 484.334L476.357 493.59L483.002 499.61L493.858 489.142L499.77 494.497L481.747 511.877L451.454 484.434L469.477 467.055L475.389 472.41L464.533 482.878Z" fill="white"/>
<path d="M278.911 147.759L292.167 140.617L296.376 148.428L273 161.024L250.615 119.481L260.734 114.028L278.911 147.759Z" fill="white"/>
<path d="M318.793 142.566C314.513 143.735 310.307 143.815 306.176 142.806C302.088 141.786 298.5 139.792 295.414 136.826C292.359 133.804 290.223 130.067 289.007 125.614C287.791 121.161 287.736 116.879 288.843 112.767C289.994 108.643 292.07 105.103 295.071 102.146C298.117 99.1778 301.779 97.109 306.059 95.9401C310.339 94.7713 314.523 94.6971 318.611 95.7176C322.743 96.7263 326.308 98.7257 329.309 101.716C332.352 104.694 334.482 108.41 335.698 112.863C336.914 117.316 336.974 121.619 335.879 125.774C334.772 129.886 332.718 133.421 329.716 136.377C326.714 139.334 323.073 141.397 318.793 142.566ZM316.03 132.45C319.662 131.458 322.227 129.456 323.728 126.445C325.272 123.422 325.5 119.922 324.414 115.944C323.316 111.924 321.34 109.026 318.486 107.25C315.663 105.419 312.436 105 308.804 105.992C305.13 106.995 302.514 108.987 300.959 111.967C299.447 114.935 299.246 118.451 300.355 122.515C301.453 126.535 303.414 129.461 306.237 131.292C309.091 133.067 312.355 133.453 316.03 132.45Z" fill="white"/>
<path d="M338.622 113.75C338.66 109.09 339.702 104.953 341.749 101.339C343.795 97.6813 346.62 94.8586 350.221 92.8714C353.868 90.8397 357.977 89.8426 362.548 89.8801C368.15 89.9261 372.933 91.4443 376.897 94.4347C380.861 97.4251 383.494 101.48 384.797 106.6L372.159 106.496C371.235 104.517 369.902 103.005 368.163 101.96C366.469 100.915 364.524 100.383 362.328 100.365C358.787 100.336 355.909 101.545 353.693 103.992C351.477 106.439 350.352 109.724 350.318 113.846C350.284 117.969 351.355 121.272 353.531 123.755C355.707 126.238 358.565 127.494 362.105 127.523C364.301 127.541 366.254 127.041 367.966 126.025C369.722 125.008 371.079 123.518 372.036 121.554L384.673 121.658C383.287 126.755 380.588 130.767 376.575 133.692C372.563 136.572 367.756 137.989 362.154 137.943C357.583 137.905 353.491 136.864 349.877 134.817C346.309 132.726 343.532 129.858 341.545 126.211C339.558 122.565 338.584 118.411 338.622 113.75Z" fill="white"/>
<path d="M414.072 138.91L397.121 134.131L392.142 141.387L380.56 138.122L409.8 97.3357L422.61 100.948L426.239 151.001L414.528 147.699L414.072 138.91ZM413.634 129.567L412.693 111.352L402.44 126.411L413.634 129.567Z" fill="white"/>
<path d="M444.137 149.763L457.393 156.906L453.184 164.717L429.809 152.121L452.194 110.578L462.313 116.031L444.137 149.763Z" fill="white"/>
<g clip-path="url(#clip0_279_1294)">
<path d="M457.985 351.064C449.949 333.721 438.093 325.686 426.532 322.841V320.901C426.532 316.283 424.011 312.532 420.895 312.532H340.816C337.777 312.532 335.32 316.186 335.32 320.695V321.807C329.364 323.38 324.84 332.482 336.811 340.511C340.49 342.977 349.876 346.625 349.876 356.266C349.876 378.207 326.414 372.876 326.414 372.876L366.364 392.447L461.875 373.287L462.335 366.081C462.335 360.75 460.218 355.881 457.985 351.064V351.064Z" fill="white"/>
<path d="M503.207 240.266C503.207 240.266 503.162 240.221 503.143 240.202C502.983 240.073 502.829 239.932 502.67 239.81C502.593 239.746 502.51 239.681 502.433 239.624C502.26 239.495 502.1 239.354 501.934 239.232C501.838 239.168 501.761 239.103 501.684 239.046C501.511 238.904 501.326 238.776 501.153 238.654C501.057 238.589 500.968 238.525 500.872 238.448C500.795 238.384 500.699 238.32 500.603 238.262C500.507 238.198 500.417 238.133 500.321 238.076C500.289 238.063 500.257 238.031 500.225 238.011C499.976 237.838 499.707 237.665 499.426 237.491C499.24 237.35 499.035 237.221 498.811 237.099C498.543 236.926 498.248 236.752 497.967 236.579C497.385 236.232 496.79 235.885 496.163 235.539L492.285 233.567C491.799 233.329 491.294 233.111 490.795 232.873C489.649 232.353 488.408 231.82 487.103 231.28C483.712 229.912 480.007 228.582 476.015 227.336C474.147 226.739 472.202 226.154 470.218 225.602L470.058 225.57C462.24 223.38 453.839 221.536 445.093 220.072C436.347 218.62 427.805 217.644 419.705 217.188L419.533 217.175C417.479 217.066 415.451 216.989 413.486 216.937C409.328 216.828 405.386 216.892 401.739 217.098C400.325 217.175 398.975 217.271 397.721 217.4C397.171 217.445 396.64 217.509 396.103 217.573C395.239 217.67 394.388 217.779 393.575 217.907C392.961 217.984 392.366 218.081 391.784 218.19C391.08 218.299 390.402 218.44 389.743 218.582C389.41 218.646 389.084 218.723 388.77 218.787C388.534 218.851 388.297 218.916 388.067 218.961C387.721 219.057 387.376 219.134 387.049 219.23C387.03 219.23 387.03 219.243 387.03 219.243C386.921 219.256 386.813 219.288 386.717 219.32C386.608 219.352 386.499 219.385 386.384 219.417C386.275 219.449 386.166 219.481 386.07 219.513C385.853 219.577 385.648 219.654 385.443 219.719C385.335 219.751 385.239 219.783 385.13 219.815C384.925 219.892 384.74 219.956 384.535 220.033C384.439 220.065 384.349 220.098 384.253 220.13C384.068 220.207 383.876 220.29 383.69 220.348C383.658 220.361 383.626 220.38 383.594 220.38C383.594 220.38 377.561 222.705 376.467 226.938L374.867 236.271C374.413 238.917 375.482 241.57 378.022 244.184C379.544 245.758 382.871 247.209 385.546 248.802C385.546 248.802 378.418 324.633 379.967 342.148C383.031 376.775 449.156 400.682 462.202 375.998C471.741 357.955 492.407 267.339 492.407 267.339C495.516 266.742 499.208 266.536 501.198 265.56C504.48 263.967 506.361 261.809 506.822 259.175L508.421 249.843C509.503 245.045 503.207 240.292 503.207 240.292V240.266ZM468.484 298.446C471.799 317.06 455.464 329.418 441.401 325.847C427.338 322.256 419.59 304.927 424.082 287.135C428.573 269.324 443.628 257.827 457.697 261.398C471.779 264.988 480.634 282.112 468.491 298.446H468.484Z" fill="white"/>
<path d="M446.052 266.691C447.825 270.949 449.187 275.047 448.471 279.652C447.306 286.788 443.096 293.115 442.028 300.501C440.915 307.316 442.924 313.893 448.439 318.191C449.475 318.981 450.55 319.681 451.715 320.22C451.216 319.032 450.691 317.921 450.262 316.803C449.047 313.746 448.273 310.566 448.528 307.31C448.836 303.051 450.531 299.165 452.054 294.997C453.327 291.58 454.651 288.548 454.952 284.701C455.65 277.584 452.463 269.992 446.052 266.684V266.691Z" fill="white"/>
<path d="M396.294 211.342L396.672 211.265C396.985 211.22 397.299 211.156 397.631 211.105C398.508 210.963 399.455 210.835 400.427 210.726C400.555 210.713 400.696 210.694 400.837 210.681C400.882 210.681 400.933 210.668 400.997 210.668L401.138 210.655C402.174 210.546 403.255 210.45 404.343 210.372C416.371 209.505 431.868 210.501 447.978 213.192C464.101 215.871 479.086 219.936 490.186 224.651C491.191 225.075 492.182 225.518 493.136 225.961L493.264 226.025C493.309 226.038 493.36 226.07 493.405 226.09C493.532 226.154 493.654 226.199 493.763 226.263C493.808 226.276 493.859 226.308 493.904 226.327C494.076 226.404 494.236 226.488 494.403 226.578C494.563 226.655 494.716 226.738 494.889 226.815C495.362 227.053 495.829 227.291 496.271 227.522C496.572 227.683 496.853 227.837 497.135 227.997L497.48 228.184H497.512C499.08 229.064 500.34 229.886 501.389 230.644L501.607 229.301C502.202 225.852 499.911 222.416 494.793 219.121C486.092 213.494 468.919 207.964 449.968 204.669C431.017 201.393 412.993 200.809 402.91 203.172C396.992 204.56 393.677 207.02 393.082 210.488L392.801 212.126C393.792 211.875 394.874 211.606 396.147 211.368C396.192 211.368 396.256 211.355 396.307 211.355L396.294 211.342Z" fill="white"/>
<path d="M219.2 210.759L329.823 218.935C328.915 217.92 328.154 216.719 327.616 215.37C326.976 213.797 326.688 212.107 326.759 210.322C326.842 208.594 327.283 206.866 328.058 205.325C328.697 204.034 329.574 202.897 330.617 201.933L219.738 199.216H219.603C216.775 199.216 214.383 201.574 214.248 204.541L214.229 204.959C214.114 207.997 216.302 210.527 219.2 210.759V210.759Z" fill="white"/>
<path d="M328.108 218.376H328.127C328.894 218.704 329.72 218.89 330.577 218.929C334.838 219.134 338.479 215.486 338.664 210.823C338.85 206.115 335.497 202.164 331.204 201.959C330.104 201.895 329.048 202.1 328.076 202.511C326.284 203.269 324.8 204.74 323.942 206.609C323.45 207.63 323.175 208.819 323.117 210.071C323.059 211.317 323.264 212.531 323.667 213.617C324.473 215.788 326.079 217.528 328.114 218.389L328.108 218.376Z" fill="white"/>
<path d="M269.47 432.797C267.173 432.695 264.895 432.328 262.662 431.738C261.927 431.526 261.165 431.294 260.429 431.018C259.86 430.825 259.291 430.594 258.74 430.382L258.721 430.363C257.416 429.836 256.085 429.155 254.761 428.372C240.678 420.099 232.124 402.005 232.943 382.286C233.66 365.676 240.845 350.717 252.227 342.104L252.752 341.699C253.091 341.442 253.449 341.211 253.782 340.98C253.02 340.556 252.265 340.177 251.485 339.836C233.487 332.007 215.547 341.828 215.38 341.911C215.188 342.014 215.022 342.104 214.83 342.168C206.429 352.072 200.946 365.696 200.294 380.893C198.963 412.359 218.81 439.484 244.607 440.582H269.112C287.609 439.529 305.568 427.248 313.969 405.737C311.442 404.594 309.458 403.598 307.161 401.992C301.006 420.613 286.169 433.523 269.47 432.804V432.797Z" fill="white"/>
<path d="M450.649 376.473C453.848 382.613 455.556 390.096 455.211 398.054C454.347 418.204 440.712 434.036 424.788 433.343C423.06 433.278 421.371 432.996 419.708 432.559C419.036 432.366 418.39 432.148 417.718 431.91C417.391 431.801 417.091 431.673 416.764 431.544L416.745 431.525C415.773 431.133 414.781 430.639 413.783 430.048C404.819 424.8 398.856 414.215 397.666 402.088C391.812 404.041 383.513 405.647 374.006 406.841C377.57 424.627 390.449 438.86 406.24 439.535L424.468 439.509C443.764 440.331 460.316 421.852 461.334 398.318C461.724 389.229 459.734 380.687 456.017 373.57C454.308 374.501 452.517 375.477 450.636 376.473H450.649Z" fill="white"/>
<path d="M456.526 365.226C455.72 364.622 454.785 363.909 453.551 363.331H453.531C446.967 360.325 433.813 358.97 418.112 359.843C412.449 360.158 401.982 362.464 392.474 365.059H392.455C390.069 365.688 387.74 366.356 385.577 367.012C384.617 367.288 383.671 367.59 382.788 367.866C382.417 367.975 382.045 368.091 381.694 368.219C380.254 368.662 378.917 369.112 377.752 369.536C377.125 369.761 376.53 369.979 375.993 370.184C364.95 374.475 355.557 376.518 348.008 376.274C346.472 376.216 345.032 376.087 343.663 375.85C339.517 375.143 334.136 374.237 328.314 371.822C327.354 371.411 326.376 370.968 325.39 370.486C310.924 363.28 294.647 345.848 288.179 299.37C285.274 278.463 284.737 260.601 284.314 246.265C284.001 235.423 283.726 226.045 282.485 219.024C282.209 217.393 281.877 215.941 281.467 214.586C281.224 213.713 280.968 212.935 280.693 212.19C280.437 211.522 280.156 210.893 279.861 210.315C277.328 205.247 273.182 202.851 266.029 202.254C264.436 202.125 260.277 203.365 255.248 208.96C254.858 209.383 254.474 209.814 254.103 210.276C253.38 211.15 245.478 224.831 245.478 224.831L260.469 226.109C266.349 226.385 273.399 260.312 273.38 260.35C269.202 266.125 263.936 268.219 255.657 268.219C248.306 268.219 243.885 264.75 239.924 259.477C239.272 258.353 238.747 258.173 237.672 257.807C236.841 257.511 236.271 257.351 235.42 256.978C233.718 262.997 213.436 315.73 209.693 359.22C213.596 357.66 224.102 347.704 231.479 347.607H232.036C237.122 347.607 242.708 348.5 248.383 350.967C250.897 352.065 253.284 353.53 255.542 355.277C263.105 361.16 269.061 366.234 279.023 379.915C285.492 388.805 297.552 398.202 304.955 404.317C307.047 406.044 309.209 407.528 311.481 408.678C313.592 409.757 315.793 410.553 318.103 410.997C332.588 413.836 361.162 413.547 383.735 411.78C418.265 409.082 480.18 382.902 456.539 365.226H456.526Z" fill="white"/>
<path d="M248.253 227.83C250.185 229.43 251.925 231.659 253.333 234.587C260.806 249.906 252.571 254.852 273.359 260.35C274.447 258.751 275.336 256.959 275.988 255.058C276.705 253.015 277.121 250.786 277.23 248.487C277.71 236.463 268.976 226.295 257.722 225.788L254.139 225.512L242.322 224.58L240.78 224.465L239.41 224.349H238.803C236.954 224.375 235.156 224.741 233.46 225.415C231.547 226.135 229.788 227.246 228.271 228.64C227.881 229.012 227.51 229.359 227.184 229.732C223.057 234.209 222.385 239.315 222.839 243.471C222.903 244.1 223.057 244.839 223.255 245.629V245.654C223.908 248.069 225.124 250.973 226.403 252.27C226.403 252.27 226.418 252.279 226.448 252.296C227.971 253.876 229.231 254.801 230.466 255.45C231.029 255.751 231.598 256.008 232.181 256.24C234.138 257.055 236.371 257.704 239.846 259.56C237.561 255.867 236.307 251.39 236.499 246.631C236.826 238.229 241.579 231.151 248.253 227.83V227.83Z" fill="white"/>
<path d="M500.052 210.309C500.512 210.623 501.133 210.36 501.229 209.808C502.131 204.721 504.722 196.827 509.764 187.789C517.416 174.063 509.892 164.705 507.013 161.847C506.584 161.423 505.861 161.641 505.74 162.232C505.017 165.662 502.745 175.219 498.343 183.602C489.252 200.918 497.102 208.298 500.045 210.315L500.052 210.309Z" fill="white"/>
</g>
</g>
<defs>
<filter id="filter0_dddd_279_1294" x="0.789062" y="0.174316" width="669.145" height="679.938" filterUnits="userSpaceOnUse" color-interpolation-filters="sRGB">
<feFlood flood-opacity="0" result="BackgroundImageFix"/>
<feColorMatrix in="SourceAlpha" type="matrix" values="0 0 0 0 0 0 0 0 0 0 0 0 0 0 0 0 0 0 127 0" result="hardAlpha"/>
<feOffset dx="-2" dy="3"/>
<feGaussianBlur stdDeviation="3.5"/>
<feColorMatrix type="matrix" values="0 0 0 0 0 0 0 0 0 0 0 0 0 0 0 0 0 0 0.1 0"/>
<feBlend mode="normal" in2="BackgroundImageFix" result="effect1_dropShadow_279_1294"/>
<feColorMatrix in="SourceAlpha" type="matrix" values="0 0 0 0 0 0 0 0 0 0 0 0 0 0 0 0 0 0 127 0" result="hardAlpha"/>
<feOffset dx="-7" dy="11"/>
<feGaussianBlur stdDeviation="6.5"/>
<feColorMatrix type="matrix" values="0 0 0 0 0 0 0 0 0 0 0 0 0 0 0 0 0 0 0.09 0"/>
<feBlend mode="normal" in2="effect1_dropShadow_279_1294" result="effect2_dropShadow_279_1294"/>
<feColorMatrix in="SourceAlpha" type="matrix" values="0 0 0 0 0 0 0 0 0 0 0 0 0 0 0 0 0 0 127 0" result="hardAlpha"/>
<feOffset dx="-16" dy="25"/>
<feGaussianBlur stdDeviation="9"/>
<feColorMatrix type="matrix" values="0 0 0 0 0 0 0 0 0 0 0 0 0 0 0 0 0 0 0.05 0"/>
<feBlend mode="normal" in2="effect2_dropShadow_279_1294" result="effect3_dropShadow_279_1294"/>
<feColorMatrix in="SourceAlpha" type="matrix" values="0 0 0 0 0 0 0 0 0 0 0 0 0 0 0 0 0 0 127 0" result="hardAlpha"/>
<feOffset dx="-28" dy="44"/>
<feGaussianBlur stdDeviation="10.5"/>
<feColorMatrix type="matrix" values="0 0 0 0 0 0 0 0 0 0 0 0 0 0 0 0 0 0 0.01 0"/>
<feBlend mode="normal" in2="effect3_dropShadow_279_1294" result="effect4_dropShadow_279_1294"/>
<feBlend mode="normal" in="SourceGraphic" in2="effect4_dropShadow_279_1294" result="shape"/>
</filter>
<clipPath id="clip0_279_1294">
<rect width="312.861" height="278.96" fill="white" transform="translate(200.23 161.622)"/>
</clipPath>
</defs>
</svg>
