<svg width="102" height="36" viewBox="0 0 102 36" fill="none" xmlns="http://www.w3.org/2000/svg">
<path d="M68.8947 33.0957L66.9386 35.0518L59.2081 27.3213C54.6823 32.7814 52.2515 32.8402 52.2013 32.8408C52.2013 32.8408 49.2017 32.8402 42.3253 23.501C38.7679 18.6693 38.5185 13.0651 40.6661 8.78027L33.8429 1.95703L35.7999 0L68.8947 33.0957ZM52.2013 1.93262C63.4744 1.9332 68.4914 14.1615 62.0763 23.501C61.986 23.6325 61.894 23.7609 61.8048 23.8887L59.0763 21.1602C60.6499 19.8918 61.6582 17.9498 61.6583 15.7715C59.4799 15.7715 57.5372 16.7789 56.2687 18.3525L43.2365 5.32031C45.4538 3.23737 48.5185 1.93262 52.2013 1.93262ZM42.7443 15.7715C42.7445 19.5929 45.8427 22.6914 49.6642 22.6914C49.6641 18.87 46.5657 15.7717 42.7443 15.7715Z" fill="#170000"/>
<path d="M93.8248 13.1753C94.5299 15.8548 94.5299 18.6712 93.8248 21.3507C91.1453 22.0558 88.3289 22.0558 85.6494 21.3507C84.9443 18.6712 84.9443 15.8548 85.6494 13.1753C88.3289 12.4702 91.1453 12.4702 93.8248 13.1753Z" fill="#170000"/>
<rect x="102" y="5" width="8.17535" height="8.17535" transform="rotate(90 102 5)" fill="#170000"/>
<rect x="102" y="21.3506" width="8.17535" height="8.17535" transform="rotate(90 102 21.3506)" fill="#170000"/>
<rect x="85.6494" y="21.3506" width="8.17535" height="8.17535" transform="rotate(90 85.6494 21.3506)" fill="#170000"/>
<rect x="85.6494" y="5" width="8.17535" height="8.17535" transform="rotate(90 85.6494 5)" fill="#170000"/>
<path d="M11.6645 8.48822L3.94064 21.9246C2.12262 25.0872 3.17018 29.1231 6.29684 31.0023V31.0023C9.3634 32.8453 13.3371 31.9525 15.3205 28.9748L26.6371 11.985C28.2098 9.62399 27.4904 6.42778 25.0579 4.96825V4.96825C22.7199 3.56546 19.6883 4.30817 18.2635 6.63278L7.98235 23.4073C7.30015 24.5203 7.62017 25.9736 8.70681 26.6971V26.6971C9.84776 27.4568 11.391 27.1221 12.1146 25.958L21.691 10.5525" stroke="black" stroke-width="2"/>
</svg>
