<svg width="309" height="361" viewBox="0 0 309 361" fill="none" xmlns="http://www.w3.org/2000/svg">
<path d="M140.384 7.5989C171.145 2.30354 203.714 -0.837543 230.248 0.697529C243.391 1.45794 256.451 3.4324 267.427 7.70632C277.918 11.7917 290.309 19.5701 295.295 34.1604C303.037 50.8251 306.202 73.4689 307.429 94.9378C308.768 118.38 307.936 143.902 306.087 166.3C306.087 166.301 306.087 166.301 306.088 166.302C306.088 166.303 306.088 166.303 306.088 166.304C305.656 171.66 304.141 177.788 300.42 183.274C296.601 188.903 289.6 194.769 279.613 195.278C269.809 195.777 262.405 190.839 258.048 186.133C254.148 181.92 251.626 176.928 249.976 172.109C249.972 172.097 249.962 172.087 249.949 172.084C249.058 171.88 247.726 171.773 246.107 171.987C244.503 172.199 242.921 172.687 241.545 173.387L241.511 173.405L241.477 173.421C235.411 176.481 228.98 178.409 222.502 179.226C218.555 179.724 214.624 181.44 213.038 185.089C212.979 185.226 212.92 185.364 212.863 185.503C211.168 189.591 213.124 194.029 216.281 197.131C221.42 202.179 226.186 208.021 230.294 214.894C239.793 230.787 244.636 250.27 244.681 274.459L244.682 274.696L244.677 274.931C243.959 311.511 220.752 335.474 193.809 348.115C167.438 360.486 135.21 363.526 107.563 359.037C81.3109 354.775 51.1697 342.146 39.6427 314.956C27.0452 285.24 42.1508 253.263 73.0929 223.883L73.2345 223.747C80.2268 215.316 81.1228 205.967 76.7218 197.769C76.6323 197.602 76.4679 197.485 76.2794 197.469C75.6494 197.416 74.6702 197.451 73.4025 197.727C72.1472 198 70.864 198.456 69.7101 199.023C53.2464 207.149 33.4183 198.216 28.7257 180.405L28.5138 179.549L28.5089 179.532L28.505 179.513C27.5603 175.419 26.6704 171.203 25.8673 167.01C25.0603 162.797 21.5543 159.732 17.6153 158.034C14.8929 156.861 12.2089 155.109 9.70128 152.602C2.66796 145.577 2.07346 136.969 2.23057 132.732C2.40036 128.154 3.56189 124.023 4.55967 121.099C5.54452 118.213 4.99098 115.031 3.45811 112.395C3.41824 112.326 3.37849 112.257 3.33897 112.188L3.32237 112.16L3.30675 112.133C-1.6267 103.421 -0.0735054 94.8212 1.79405 89.8206C3.58712 85.0198 6.40655 81.2348 8.50108 78.7512C10.0494 76.9154 10.6885 74.49 10.5108 72.095C9.98829 65.0478 12.4653 58.8838 15.2355 54.6682C18.6731 49.4373 23.3631 45.6697 27.1192 43.093C34.8855 37.7655 45.3676 33.0666 56.4278 28.9846C79.0191 20.647 109.526 12.9111 140.384 7.5989Z" fill="white"/>
<path d="M274.114 42.6082C249.356 -5.66072 22.1813 47.2274 32.6137 72.7632C34.534 77.4863 53.7897 72.0366 53.7897 72.0366C53.7897 72.0366 17.4064 93.5759 22.2852 102.192C25.4512 107.745 42.8384 98.1952 42.8384 98.1952C42.8384 98.1952 18.8077 131.672 25.0879 137.9C27.2678 140.08 31.9908 139.509 43.8764 130.167C42.7864 138.16 45.693 157.831 49.7413 175.373C50.7794 179.837 55.6582 182.121 59.7584 180.097C70.5021 174.803 85.8651 173.609 94.2732 185.494C94.2732 185.494 94.2732 185.494 94.2732 185.442C107.093 201.688 102.37 225.044 88.045 240.666C88.045 240.666 88.045 240.562 87.9931 240.562C-28.1636 350.854 220.239 378.362 222.264 275.181C222.108 190.321 154.999 199.456 111.401 159.388C94.948 145.218 87.6298 117.036 92.5086 99.0256C97.9064 79.0434 114.567 71.4657 152.819 75.8254C195.171 80.6523 175.915 115.011 186.192 139.665C193.458 157.052 213.648 163.436 231.139 154.613C245.827 147.139 265.55 150.305 270.013 164.889C274.01 177.917 282.781 176.308 283.664 165.356C287.245 122.018 286.778 67.573 274.01 42.66L274.114 42.6082Z" fill="#0C0C0D"/>
<path d="M137.922 142.675C126.555 142.675 118.614 134.319 118.614 122.329C118.614 110.34 126.555 101.984 137.922 101.984C149.288 101.984 156.191 110.184 156.191 122.329C156.191 134.475 148.873 142.675 137.922 142.675Z" fill="#0C0C0D"/>
</svg>
