<svg width="459" height="185" viewBox="0 0 459 185" fill="none" xmlns="http://www.w3.org/2000/svg">
<rect width="459" height="185" fill="#E0FF7C"/>
<rect x="199.153" y="52.6552" width="64.7283" height="18.6943" rx="9.34713" stroke="#170000" stroke-width="1.45594"/>
<path d="M204.249 66.2537V57.751H205.798L206.648 60.4765C206.734 60.7327 206.808 60.9812 206.87 61.2219C206.932 61.4549 206.975 61.6296 206.998 61.7461C207.029 61.6296 207.072 61.4549 207.126 61.2219C207.188 60.9812 207.258 60.7327 207.336 60.4765L208.151 57.751H209.7V66.2537H208.512V63.3884C208.512 63.0234 208.52 62.6196 208.535 62.177C208.559 61.7267 208.59 61.2763 208.629 60.8259C208.667 60.3678 208.706 59.9329 208.745 59.5214C208.784 59.1021 208.819 58.7371 208.85 58.4265L207.592 62.5614H206.381L205.099 58.4265C205.138 58.7294 205.177 59.0827 205.216 59.4865C205.255 59.8825 205.29 60.3057 205.321 60.756C205.352 61.2064 205.379 61.6607 205.402 62.1188C205.425 62.5692 205.437 62.9924 205.437 63.3884V66.2537H204.249Z" fill="#170000"/>
<path d="M210.965 66.2537L213.132 57.751H214.786L216.952 66.2537H215.682L215.17 64.0989H212.759L212.246 66.2537H210.965ZM212.992 63.0622H214.925L214.343 60.6046C214.242 60.1698 214.157 59.7932 214.087 59.4748C214.025 59.1487 213.982 58.9274 213.959 58.8109C213.935 58.9274 213.893 59.1487 213.83 59.4748C213.768 59.7932 213.683 60.1659 213.574 60.593L212.992 63.0622Z" fill="#170000"/>
<path d="M217.844 66.2537L220.244 61.9208L217.984 57.751H219.405L220.593 60.0688C220.663 60.2164 220.733 60.3639 220.803 60.5114C220.873 60.659 220.927 60.7716 220.966 60.8492C220.997 60.7716 221.047 60.659 221.117 60.5114C221.187 60.3639 221.257 60.2164 221.327 60.0688L222.538 57.751H223.901L221.641 61.8742L224.041 66.2537H222.62L221.304 63.7378C221.226 63.5903 221.152 63.4427 221.082 63.2952C221.012 63.1399 220.958 63.0195 220.919 62.9341C220.888 63.0195 220.838 63.136 220.768 63.2835C220.698 63.4311 220.628 63.5786 220.558 63.7261L219.219 66.2537H217.844Z" fill="#170000"/>
<path d="M232.686 66.2537V57.751H233.944V65.1006H237.659V66.2537H232.686Z" fill="#170000"/>
<path d="M238.901 66.2537L241.067 57.751H242.721L244.888 66.2537H243.618L243.106 64.0989H240.695L240.182 66.2537H238.901ZM240.928 63.0622H242.861L242.279 60.6046C242.178 60.1698 242.092 59.7932 242.022 59.4748C241.96 59.1487 241.918 58.9274 241.894 58.8109C241.871 58.9274 241.828 59.1487 241.766 59.4748C241.704 59.7932 241.619 60.1659 241.51 60.593L240.928 63.0622Z" fill="#170000"/>
<path d="M246.526 66.2537V65.1355H248.238V58.8691H246.526V57.751H251.231V58.8691H249.519V65.1355H251.231V66.2537H246.526Z" fill="#170000"/>
<path d="M253.346 66.2537V57.751H256.014C256.549 57.751 257.015 57.8558 257.411 58.0655C257.807 58.2673 258.114 58.5547 258.332 58.9274C258.557 59.3001 258.669 59.7388 258.669 60.2435C258.669 60.8104 258.522 61.3035 258.227 61.7228C257.939 62.1343 257.547 62.4255 257.05 62.5963L258.786 66.2537H257.353L255.804 62.7594H254.604V66.2537H253.346ZM254.604 61.6529H256.014C256.433 61.6529 256.767 61.5287 257.015 61.2802C257.264 61.0239 257.388 60.6861 257.388 60.2668C257.388 59.832 257.264 59.4903 257.015 59.2419C256.767 58.9934 256.433 58.8691 256.014 58.8691H254.604V61.6529Z" fill="#170000"/>
<path d="M42.2788 93.6858V85.1831H47.2756V86.3012H43.5134V88.7123H46.8679V89.8188H43.5134V92.5676H47.2756V93.6858H42.2788Z" fill="#170000"/>
<path d="M49.1113 93.6858V85.1831H50.6954L53.1763 92.2531C53.1608 92.0279 53.1414 91.76 53.1181 91.4494C53.0948 91.1388 53.0754 90.8166 53.0598 90.4827C53.0521 90.1488 53.0482 89.846 53.0482 89.5742V85.1831H54.2129V93.6858H52.6289L50.1596 86.6157C50.1751 86.8176 50.1906 87.07 50.2062 87.3728C50.2295 87.6756 50.245 87.9901 50.2528 88.3163C50.2683 88.6424 50.2761 88.9452 50.2761 89.2248V93.6858H49.1113Z" fill="#170000"/>
<path d="M58.6927 93.8022C58.1646 93.8022 57.7026 93.7052 57.3066 93.5111C56.9184 93.3092 56.6155 93.0219 56.3981 92.6491C56.1885 92.2687 56.0836 91.826 56.0836 91.3213V87.5475C56.0836 87.035 56.1885 86.5924 56.3981 86.2197C56.6155 85.847 56.9184 85.5636 57.3066 85.3694C57.7026 85.1676 58.1646 85.0666 58.6927 85.0666C59.2207 85.0666 59.6788 85.1676 60.0671 85.3694C60.4553 85.5713 60.7543 85.8586 60.9639 86.2314C61.1813 86.5963 61.2901 87.035 61.2901 87.5475H60.0321C60.0321 87.1049 59.9157 86.7671 59.6827 86.5342C59.4498 86.3012 59.1197 86.1848 58.6927 86.1848C58.2656 86.1848 57.9317 86.3012 57.691 86.5342C57.458 86.7671 57.3416 87.101 57.3416 87.5359V91.3213C57.3416 91.7562 57.458 92.0939 57.691 92.3347C57.9317 92.5754 58.2656 92.6957 58.6927 92.6957C59.1197 92.6957 59.4498 92.5754 59.6827 92.3347C59.9157 92.0939 60.0321 91.7562 60.0321 91.3213V90.3662H58.4481V89.2597H61.2901V91.3213C61.2901 91.826 61.1813 92.2648 60.9639 92.6375C60.7543 93.0102 60.4553 93.2975 60.0671 93.4994C59.6788 93.7013 59.2207 93.8022 58.6927 93.8022Z" fill="#170000"/>
<path d="M63.2772 93.6858V92.5676H64.9894V86.3012H63.2772V85.1831H67.9828V86.3012H66.2706V92.5676H67.9828V93.6858H63.2772Z" fill="#170000"/>
<path d="M70.0632 93.6858V85.1831H71.6472L74.1282 92.2531C74.1126 92.0279 74.0932 91.76 74.0699 91.4494C74.0466 91.1388 74.0272 90.8166 74.0117 90.4827C74.0039 90.1488 74 89.846 74 89.5742V85.1831H75.1648V93.6858H73.5807L71.1115 86.6157C71.127 86.8176 71.1425 87.07 71.158 87.3728C71.1813 87.6756 71.1969 87.9901 71.2046 88.3163C71.2202 88.6424 71.2279 88.9452 71.2279 89.2248V93.6858H70.0632Z" fill="#170000"/>
<path d="M77.1986 93.6858V85.1831H82.1953V86.3012H78.4332V88.7123H81.7877V89.8188H78.4332V92.5676H82.1953V93.6858H77.1986Z" fill="#170000"/>
<path d="M84.1825 93.6858V85.1831H89.1793V86.3012H85.4171V88.7123H88.7716V89.8188H85.4171V92.5676H89.1793V93.6858H84.1825Z" fill="#170000"/>
<path d="M91.05 93.6858V85.1831H93.7173C94.2531 85.1831 94.719 85.2879 95.115 85.4976C95.511 85.6995 95.8177 85.9868 96.0351 86.3595C96.2603 86.7322 96.3729 87.1709 96.3729 87.6756C96.3729 88.2425 96.2254 88.7356 95.9303 89.1549C95.643 89.5664 95.2509 89.8576 94.7539 90.0284L96.4894 93.6858H95.0567L93.5076 90.1915H92.3079V93.6858H91.05ZM92.3079 89.085H93.7173C94.1366 89.085 94.4705 88.9608 94.719 88.7123C94.9674 88.456 95.0917 88.1183 95.0917 87.6989C95.0917 87.2641 94.9674 86.9224 94.719 86.674C94.4705 86.4255 94.1366 86.3012 93.7173 86.3012H92.3079V89.085Z" fill="#170000"/>
<path d="M98.197 93.6858V92.5676H99.9092V86.3012H98.197V85.1831H102.903V86.3012H101.19V92.5676H102.903V93.6858H98.197Z" fill="#170000"/>
<path d="M104.983 93.6858V85.1831H106.567L109.048 92.2531C109.032 92.0279 109.013 91.76 108.99 91.4494C108.966 91.1388 108.947 90.8166 108.931 90.4827C108.924 90.1488 108.92 89.846 108.92 89.5742V85.1831H110.085V93.6858H108.501L106.031 86.6157C106.047 86.8176 106.062 87.07 106.078 87.3728C106.101 87.6756 106.117 87.9901 106.124 88.3163C106.14 88.6424 106.148 88.9452 106.148 89.2248V93.6858H104.983Z" fill="#170000"/>
<path d="M114.564 93.8022C114.036 93.8022 113.574 93.7052 113.178 93.5111C112.79 93.3092 112.487 93.0219 112.27 92.6491C112.06 92.2687 111.955 91.826 111.955 91.3213V87.5475C111.955 87.035 112.06 86.5924 112.27 86.2197C112.487 85.847 112.79 85.5636 113.178 85.3694C113.574 85.1676 114.036 85.0666 114.564 85.0666C115.092 85.0666 115.55 85.1676 115.939 85.3694C116.327 85.5713 116.626 85.8586 116.836 86.2314C117.053 86.5963 117.162 87.035 117.162 87.5475H115.904C115.904 87.1049 115.787 86.7671 115.554 86.5342C115.321 86.3012 114.991 86.1848 114.564 86.1848C114.137 86.1848 113.803 86.3012 113.563 86.5342C113.33 86.7671 113.213 87.101 113.213 87.5359V91.3213C113.213 91.7562 113.33 92.0939 113.563 92.3347C113.803 92.5754 114.137 92.6957 114.564 92.6957C114.991 92.6957 115.321 92.5754 115.554 92.3347C115.787 92.0939 115.904 91.7562 115.904 91.3213V90.3662H114.32V89.2597H117.162V91.3213C117.162 91.826 117.053 92.2648 116.836 92.6375C116.626 93.0102 116.327 93.2975 115.939 93.4994C115.55 93.7013 115.092 93.8022 114.564 93.8022Z" fill="#170000"/>
<path d="M133 93.6858V85.1714H138.137V86.3362H134.223V88.8753H137.834V90.0401H134.247V93.6858H133Z" fill="#170000"/>
<path d="M140.054 93.6858V85.1831H145.051V86.3012H141.289V88.7123H144.643V89.8188H141.289V92.5676H145.051V93.6858H140.054Z" fill="#170000"/>
<path d="M146.444 93.6858L148.611 85.1831H150.264L152.431 93.6858H151.161L150.649 91.531H148.238L147.725 93.6858H146.444ZM148.471 90.4943H150.404L149.822 88.0367C149.721 87.6019 149.636 87.2253 149.566 86.9069C149.504 86.5808 149.461 86.3595 149.438 86.243C149.414 86.3595 149.371 86.5808 149.309 86.9069C149.247 87.2253 149.162 87.598 149.053 88.0251L148.471 90.4943Z" fill="#170000"/>
<path d="M156.456 93.8022C155.882 93.8022 155.389 93.7091 154.977 93.5227C154.566 93.3286 154.247 93.0568 154.022 92.7074C153.797 92.3502 153.684 91.927 153.684 91.4378H154.931C154.931 91.826 155.066 92.1328 155.338 92.3579C155.61 92.5754 155.987 92.6841 156.468 92.6841C156.918 92.6841 157.272 92.5754 157.528 92.3579C157.784 92.1405 157.912 91.8416 157.912 91.4611C157.912 91.1427 157.823 90.8671 157.644 90.6341C157.474 90.4012 157.225 90.242 156.899 90.1566L155.827 89.8421C155.206 89.6635 154.725 89.3607 154.383 88.9336C154.049 88.4987 153.882 87.9824 153.882 87.3845C153.882 86.9186 153.987 86.5109 154.197 86.1615C154.406 85.812 154.705 85.5403 155.094 85.3461C155.482 85.152 155.94 85.055 156.468 85.055C157.245 85.055 157.866 85.2646 158.332 85.6839C158.805 86.1032 159.046 86.6662 159.054 87.3728H157.796C157.796 87.0001 157.676 86.7089 157.435 86.4992C157.202 86.2818 156.872 86.1731 156.445 86.1731C156.033 86.1731 155.711 86.2741 155.478 86.476C155.245 86.6701 155.129 86.9457 155.129 87.3029C155.129 87.6213 155.214 87.897 155.385 88.1299C155.563 88.3629 155.816 88.5259 156.142 88.6191L157.225 88.9452C157.846 89.1161 158.324 89.4189 158.658 89.8537C158.992 90.2886 159.159 90.8088 159.159 91.4145C159.159 91.8882 159.046 92.3075 158.821 92.6724C158.596 93.0296 158.281 93.3092 157.877 93.5111C157.474 93.7052 157 93.8022 156.456 93.8022Z" fill="#170000"/>
<path d="M161.053 93.6858V92.5676H162.765V86.3012H161.053V85.1831H165.758V86.3012H164.046V92.5676H165.758V93.6858H161.053Z" fill="#170000"/>
<path d="M167.885 93.6858V85.1831H170.389C171.197 85.1831 171.83 85.3772 172.288 85.7655C172.746 86.1537 172.975 86.6895 172.975 87.3728C172.975 87.7611 172.89 88.0988 172.719 88.3861C172.556 88.6657 172.327 88.8831 172.032 89.0384C171.737 89.1937 171.391 89.2714 170.995 89.2714V89.1549C171.422 89.1471 171.799 89.2286 172.125 89.3995C172.451 89.5625 172.707 89.8071 172.894 90.1333C173.08 90.4594 173.173 90.8477 173.173 91.298C173.173 91.7795 173.064 92.2026 172.847 92.5676C172.637 92.9248 172.335 93.2005 171.938 93.3946C171.55 93.5887 171.088 93.6858 170.552 93.6858H167.885ZM169.108 92.6025H170.448C170.898 92.6025 171.255 92.4822 171.519 92.2415C171.783 92.0008 171.915 91.6669 171.915 91.2398C171.915 90.8049 171.783 90.4555 171.519 90.1915C171.255 89.9275 170.898 89.7955 170.448 89.7955H169.108V92.6025ZM169.108 88.7472H170.378C170.797 88.7472 171.127 88.6346 171.368 88.4094C171.608 88.1843 171.729 87.8814 171.729 87.5009C171.729 87.1204 171.608 86.8215 171.368 86.6041C171.127 86.3789 170.801 86.2663 170.389 86.2663H169.108V88.7472Z" fill="#170000"/>
<path d="M175.149 93.6858V85.1831H176.407V92.5327H180.122V93.6858H175.149Z" fill="#170000"/>
<path d="M181.958 93.6858V85.1831H186.955V86.3012H183.193V88.7123H186.547V89.8188H183.193V92.5676H186.955V93.6858H181.958Z" fill="#170000"/>
<path d="M189.687 95.5494L190.619 91.927H192.296L190.782 95.5494H189.687Z" fill="#170000"/>
<path d="M205.309 93.8022C204.494 93.8022 203.865 93.5809 203.422 93.1383C202.98 92.688 202.758 92.0784 202.758 91.3097V85.1831H204.016V91.3097C204.016 91.7367 204.121 92.0745 204.331 92.323C204.548 92.5715 204.874 92.6957 205.309 92.6957C205.736 92.6957 206.058 92.5715 206.276 92.323C206.493 92.0745 206.602 91.7367 206.602 91.3097V85.1831H207.86V91.3097C207.86 92.0784 207.639 92.688 207.196 93.1383C206.753 93.5809 206.124 93.8022 205.309 93.8022Z" fill="#170000"/>
<path d="M212.328 93.8022C211.753 93.8022 211.26 93.7091 210.849 93.5227C210.437 93.3286 210.119 93.0568 209.894 92.7074C209.669 92.3502 209.556 91.927 209.556 91.4378H210.802C210.802 91.826 210.938 92.1328 211.21 92.3579C211.482 92.5754 211.858 92.6841 212.34 92.6841C212.79 92.6841 213.143 92.5754 213.4 92.3579C213.656 92.1405 213.784 91.8416 213.784 91.4611C213.784 91.1427 213.695 90.8671 213.516 90.6341C213.345 90.4012 213.097 90.242 212.771 90.1566L211.699 89.8421C211.078 89.6635 210.596 89.3607 210.255 88.9336C209.921 88.4987 209.754 87.9824 209.754 87.3845C209.754 86.9186 209.859 86.5109 210.068 86.1615C210.278 85.812 210.577 85.5403 210.965 85.3461C211.354 85.152 211.812 85.055 212.34 85.055C213.116 85.055 213.737 85.2646 214.203 85.6839C214.677 86.1032 214.918 86.6662 214.925 87.3728H213.668C213.668 87.0001 213.547 86.7089 213.306 86.4992C213.073 86.2818 212.743 86.1731 212.316 86.1731C211.905 86.1731 211.583 86.2741 211.35 86.476C211.117 86.6701 211 86.9457 211 87.3029C211 87.6213 211.086 87.897 211.256 88.1299C211.435 88.3629 211.687 88.5259 212.014 88.6191L213.097 88.9452C213.718 89.1161 214.196 89.4189 214.529 89.8537C214.863 90.2886 215.03 90.8088 215.03 91.4145C215.03 91.8882 214.918 92.3075 214.692 92.6724C214.467 93.0296 214.153 93.3092 213.749 93.5111C213.345 93.7052 212.872 93.8022 212.328 93.8022Z" fill="#170000"/>
<path d="M216.284 93.6858L218.45 85.1831H220.104L222.27 93.6858H221.001L220.488 91.531H218.077L217.565 93.6858H216.284ZM218.31 90.4943H220.244L219.661 88.0367C219.56 87.6019 219.475 87.2253 219.405 86.9069C219.343 86.5808 219.3 86.3595 219.277 86.243C219.254 86.3595 219.211 86.5808 219.149 86.9069C219.087 87.2253 219.001 87.598 218.893 88.0251L218.31 90.4943Z" fill="#170000"/>
<path d="M223.757 93.6858V85.1831H226.261C227.069 85.1831 227.701 85.3772 228.16 85.7655C228.618 86.1537 228.847 86.6895 228.847 87.3728C228.847 87.7611 228.761 88.0988 228.591 88.3861C228.427 88.6657 228.198 88.8831 227.903 89.0384C227.608 89.1937 227.263 89.2714 226.867 89.2714V89.1549C227.294 89.1471 227.67 89.2286 227.996 89.3995C228.323 89.5625 228.579 89.8071 228.765 90.1333C228.952 90.4594 229.045 90.8477 229.045 91.298C229.045 91.7795 228.936 92.2026 228.719 92.5676C228.509 92.9248 228.206 93.2005 227.81 93.3946C227.422 93.5887 226.96 93.6858 226.424 93.6858H223.757ZM224.98 92.6025H226.319C226.77 92.6025 227.127 92.4822 227.391 92.2415C227.655 92.0008 227.787 91.6669 227.787 91.2398C227.787 90.8049 227.655 90.4555 227.391 90.1915C227.127 89.9275 226.77 89.7955 226.319 89.7955H224.98V92.6025ZM224.98 88.7472H226.249C226.669 88.7472 226.999 88.6346 227.239 88.4094C227.48 88.1843 227.6 87.8814 227.6 87.5009C227.6 87.1204 227.48 86.8215 227.239 86.6041C226.999 86.3789 226.673 86.2663 226.261 86.2663H224.98V88.7472Z" fill="#170000"/>
<path d="M231.02 93.6858V85.1831H232.278V92.5327H235.994V93.6858H231.02Z" fill="#170000"/>
<path d="M237.83 93.6858V85.1831H242.826V86.3012H239.064V88.7123H242.419V89.8188H239.064V92.5676H242.826V93.6858H237.83Z" fill="#170000"/>
<path d="M253.393 93.8022C252.725 93.8022 252.205 93.6198 251.832 93.2548C251.46 92.8899 251.273 92.3851 251.273 91.7406V90.4711C251.273 90.0051 251.39 89.6208 251.623 89.3179C251.863 89.0073 252.201 88.8016 252.636 88.7006L252.52 88.8055C252.279 88.4793 252.1 88.1687 251.984 87.8737C251.867 87.5708 251.809 87.2719 251.809 86.9768C251.809 86.5963 251.898 86.2624 252.077 85.9751C252.256 85.6878 252.508 85.4665 252.834 85.3112C253.16 85.1481 253.541 85.0666 253.976 85.0666C254.434 85.0666 254.83 85.152 255.164 85.3228C255.505 85.4937 255.769 85.7305 255.956 86.0333C256.142 86.3362 256.235 86.7011 256.235 87.1282H255.024C255.024 86.9186 254.981 86.74 254.896 86.5924C254.81 86.4371 254.69 86.3207 254.535 86.243C254.379 86.1654 254.193 86.1265 253.976 86.1265C253.781 86.1265 253.607 86.1654 253.451 86.243C253.304 86.3129 253.191 86.4177 253.114 86.5575C253.036 86.6895 252.997 86.8526 252.997 87.0467C252.997 87.233 253.04 87.4388 253.125 87.664C253.218 87.8892 253.343 88.1105 253.498 88.3279L255.303 90.8438L256.037 89.4927H257.295L256.014 91.8338L257.342 93.6858H256.037L255.397 92.8006C254.837 93.4683 254.17 93.8022 253.393 93.8022ZM253.486 92.7307C253.727 92.7307 253.956 92.6569 254.174 92.5094C254.399 92.3618 254.589 92.1561 254.744 91.892L253.09 89.5975C252.888 89.6441 252.737 89.745 252.636 89.9003C252.543 90.0479 252.496 90.2381 252.496 90.4711V91.7406C252.496 92.0512 252.582 92.2958 252.753 92.4744C252.931 92.6453 253.176 92.7307 253.486 92.7307Z" fill="#170000"/>
<path d="M265.812 93.6858V92.5676H267.524V86.3012H265.812V85.1831H270.518V86.3012H268.805V92.5676H270.518V93.6858H265.812Z" fill="#170000"/>
<path d="M272.598 93.6858V85.1831H274.182L276.663 92.2531C276.647 92.0279 276.628 91.76 276.605 91.4494C276.581 91.1388 276.562 90.8166 276.546 90.4827C276.539 90.1488 276.535 89.846 276.535 89.5742V85.1831H277.7V93.6858H276.115L273.646 86.6157C273.662 86.8176 273.677 87.07 273.693 87.3728C273.716 87.6756 273.732 87.9901 273.739 88.3163C273.755 88.6424 273.763 88.9452 273.763 89.2248V93.6858H272.598Z" fill="#170000"/>
<path d="M279.582 93.6858V85.1831H281.166L283.647 92.2531C283.631 92.0279 283.612 91.76 283.589 91.4494C283.565 91.1388 283.546 90.8166 283.53 90.4827C283.523 90.1488 283.519 89.846 283.519 89.5742V85.1831H284.683V93.6858H283.099L280.63 86.6157C280.646 86.8176 280.661 87.07 280.677 87.3728C280.7 87.6756 280.716 87.9901 280.723 88.3163C280.739 88.6424 280.747 88.9452 280.747 89.2248V93.6858H279.582Z" fill="#170000"/>
<path d="M289.117 93.8022C288.589 93.8022 288.13 93.7052 287.742 93.5111C287.362 93.3092 287.067 93.0219 286.857 92.6491C286.655 92.2687 286.554 91.826 286.554 91.3213V87.5475C286.554 87.035 286.655 86.5924 286.857 86.2197C287.067 85.847 287.362 85.5636 287.742 85.3694C288.13 85.1676 288.589 85.0666 289.117 85.0666C289.645 85.0666 290.099 85.1676 290.479 85.3694C290.868 85.5636 291.163 85.847 291.365 86.2197C291.574 86.5924 291.679 87.0312 291.679 87.5359V91.3213C291.679 91.826 291.574 92.2687 291.365 92.6491C291.163 93.0219 290.868 93.3092 290.479 93.5111C290.099 93.7052 289.645 93.8022 289.117 93.8022ZM289.117 92.6841C289.544 92.6841 289.866 92.5676 290.083 92.3347C290.309 92.0939 290.421 91.7562 290.421 91.3213V87.5475C290.421 87.1049 290.309 86.7671 290.083 86.5342C289.866 86.3012 289.544 86.1848 289.117 86.1848C288.697 86.1848 288.375 86.3012 288.15 86.5342C287.925 86.7671 287.812 87.1049 287.812 87.5475V91.3213C287.812 91.7562 287.925 92.0939 288.15 92.3347C288.375 92.5676 288.697 92.6841 289.117 92.6841Z" fill="#170000"/>
<path d="M295.262 93.6858L293.107 85.1831H294.4L295.763 90.8438C295.848 91.1777 295.922 91.5116 295.984 91.8455C296.054 92.1716 296.104 92.4278 296.136 92.6142C296.167 92.4278 296.209 92.1716 296.264 91.8455C296.326 91.5116 296.4 91.1738 296.485 90.8321L297.836 85.1831H299.094L296.928 93.6858H295.262Z" fill="#170000"/>
<path d="M300.091 93.6858L302.258 85.1831H303.911L306.078 93.6858H304.808L304.296 91.531H301.885L301.372 93.6858H300.091ZM302.118 90.4943H304.051L303.469 88.0367C303.368 87.6019 303.283 87.2253 303.213 86.9069C303.151 86.5808 303.108 86.3595 303.085 86.243C303.061 86.3595 303.019 86.5808 302.956 86.9069C302.894 87.2253 302.809 87.598 302.7 88.0251L302.118 90.4943Z" fill="#170000"/>
<path d="M309.44 93.6858V86.3362H307.168V85.1714H312.969V86.3362H310.697V93.6858H309.44Z" fill="#170000"/>
<path d="M314.7 93.6858V92.5676H316.412V86.3012H314.7V85.1831H319.405V86.3012H317.693V92.5676H319.405V93.6858H314.7Z" fill="#170000"/>
<path d="M323.198 93.6858L321.043 85.1831H322.336L323.699 90.8438C323.784 91.1777 323.858 91.5116 323.92 91.8455C323.99 92.1716 324.04 92.4278 324.071 92.6142C324.102 92.4278 324.145 92.1716 324.199 91.8455C324.262 91.5116 324.335 91.1738 324.421 90.8321L325.772 85.1831H327.03L324.863 93.6858H323.198Z" fill="#170000"/>
<path d="M328.621 93.6858V85.1831H333.618V86.3012H329.856V88.7123H333.21V89.8188H329.856V92.5676H333.618V93.6858H328.621Z" fill="#170000"/>
<path d="M342.635 93.6858V92.5676H344.348V86.3012H342.635V85.1831H347.341V86.3012H345.629V92.5676H347.341V93.6858H342.635Z" fill="#170000"/>
<path d="M349.421 93.6858V85.1831H351.005L353.486 92.2531C353.471 92.0279 353.451 91.76 353.428 91.4494C353.405 91.1388 353.385 90.8166 353.37 90.4827C353.362 90.1488 353.358 89.846 353.358 89.5742V85.1831H354.523V93.6858H352.939L350.47 86.6157C350.485 86.8176 350.501 87.07 350.516 87.3728C350.54 87.6756 350.555 87.9901 350.563 88.3163C350.578 88.6424 350.586 88.9452 350.586 89.2248V93.6858H349.421Z" fill="#170000"/>
<path d="M358.327 93.6858V86.3362H356.056V85.1714H361.856V86.3362H359.585V93.6858H358.327Z" fill="#170000"/>
<path d="M363.541 93.6858V85.1831H368.538V86.3012H364.775V88.7123H368.13V89.8188H364.775V92.5676H368.538V93.6858H363.541Z" fill="#170000"/>
<path d="M370.408 93.6858V85.1831H373.076C373.611 85.1831 374.077 85.2879 374.473 85.4976C374.869 85.6995 375.176 85.9868 375.393 86.3595C375.619 86.7322 375.731 87.1709 375.731 87.6756C375.731 88.2425 375.584 88.7356 375.289 89.1549C375.001 89.5664 374.609 89.8576 374.112 90.0284L375.848 93.6858H374.415L372.866 90.1915H371.666V93.6858H370.408ZM371.666 89.085H373.076C373.495 89.085 373.829 88.9608 374.077 88.7123C374.326 88.456 374.45 88.1183 374.45 87.6989C374.45 87.2641 374.326 86.9224 374.077 86.674C373.829 86.4255 373.495 86.3012 373.076 86.3012H371.666V89.085Z" fill="#170000"/>
<path d="M377.439 93.6858V85.1714H382.575V86.3362H378.662V88.8753H382.272V90.0401H378.685V93.6858H377.439Z" fill="#170000"/>
<path d="M383.899 93.6858L386.065 85.1831H387.719L389.885 93.6858H388.616L388.103 91.531H385.692L385.18 93.6858H383.899ZM385.925 90.4943H387.859L387.276 88.0367C387.175 87.6019 387.09 87.2253 387.02 86.9069C386.958 86.5808 386.915 86.3595 386.892 86.243C386.869 86.3595 386.826 86.5808 386.764 86.9069C386.702 87.2253 386.616 87.598 386.508 88.0251L385.925 90.4943Z" fill="#170000"/>
<path d="M393.923 93.8022C393.395 93.8022 392.932 93.7052 392.536 93.5111C392.148 93.3092 391.845 93.0219 391.628 92.6491C391.418 92.2687 391.314 91.826 391.314 91.3213V87.5475C391.314 87.035 391.418 86.5924 391.628 86.2197C391.845 85.847 392.148 85.5636 392.536 85.3694C392.932 85.1676 393.395 85.0666 393.923 85.0666C394.451 85.0666 394.909 85.1676 395.297 85.3694C395.685 85.5713 395.984 85.8586 396.194 86.2314C396.411 86.5963 396.52 87.035 396.52 87.5475H395.262C395.262 87.1049 395.146 86.7671 394.913 86.5342C394.68 86.3012 394.35 86.1848 393.923 86.1848C393.495 86.1848 393.162 86.3012 392.921 86.5342C392.688 86.7671 392.571 87.101 392.571 87.5359V91.3213C392.571 91.7562 392.688 92.0939 392.921 92.3347C393.162 92.5676 393.495 92.6841 393.923 92.6841C394.35 92.6841 394.68 92.5676 394.913 92.3347C395.146 92.0939 395.262 91.7562 395.262 91.3213H396.52C396.52 91.826 396.411 92.2648 396.194 92.6375C395.984 93.0102 395.685 93.2975 395.297 93.4994C394.909 93.7013 394.451 93.8022 393.923 93.8022Z" fill="#170000"/>
<path d="M398.461 93.6858V85.1831H403.457V86.3012H399.695V88.7123H403.05V89.8188H399.695V92.5676H403.457V93.6858H398.461Z" fill="#170000"/>
<path d="M407.879 93.8022C407.304 93.8022 406.811 93.7091 406.4 93.5227C405.988 93.3286 405.67 93.0568 405.444 92.7074C405.219 92.3502 405.107 91.927 405.107 91.4378H406.353C406.353 91.826 406.489 92.1328 406.761 92.3579C407.032 92.5754 407.409 92.6841 407.89 92.6841C408.341 92.6841 408.694 92.5754 408.95 92.3579C409.207 92.1405 409.335 91.8416 409.335 91.4611C409.335 91.1427 409.245 90.8671 409.067 90.6341C408.896 90.4012 408.648 90.242 408.321 90.1566L407.25 89.8421C406.629 89.6635 406.147 89.3607 405.806 88.9336C405.472 88.4987 405.305 87.9824 405.305 87.3845C405.305 86.9186 405.41 86.5109 405.619 86.1615C405.829 85.812 406.128 85.5403 406.516 85.3461C406.904 85.152 407.362 85.055 407.89 85.055C408.667 85.055 409.288 85.2646 409.754 85.6839C410.228 86.1032 410.468 86.6662 410.476 87.3728H409.218C409.218 87.0001 409.098 86.7089 408.857 86.4992C408.624 86.2818 408.294 86.1731 407.867 86.1731C407.456 86.1731 407.133 86.2741 406.9 86.476C406.667 86.6701 406.551 86.9457 406.551 87.3029C406.551 87.6213 406.636 87.897 406.807 88.1299C406.986 88.3629 407.238 88.5259 407.564 88.6191L408.648 88.9452C409.269 89.1161 409.746 89.4189 410.08 89.8537C410.414 90.2886 410.581 90.8088 410.581 91.4145C410.581 91.8882 410.468 92.3075 410.243 92.6724C410.018 93.0296 409.704 93.3092 409.3 93.5111C408.896 93.7052 408.422 93.8022 407.879 93.8022Z" fill="#170000"/>
<path d="M414.828 93.8022C414.517 93.8022 414.269 93.7129 414.082 93.5343C413.896 93.348 413.803 93.0995 413.803 92.7889C413.803 92.4705 413.896 92.2182 414.082 92.0318C414.269 91.8377 414.517 91.7406 414.828 91.7406C415.146 91.7406 415.395 91.8377 415.573 92.0318C415.76 92.2182 415.853 92.4705 415.853 92.7889C415.853 93.0995 415.76 93.348 415.573 93.5343C415.395 93.7129 415.146 93.8022 414.828 93.8022Z" fill="#170000"/>
<path d="M44.6665 114.477L46.1807 110.854H47.4503L46.5185 114.477H44.6665ZM41.7896 114.477L43.3038 110.854H44.5733L43.6415 114.477H41.7896Z" fill="#170000"/>
<path d="M51.7087 120.009C51.1652 120.009 50.6876 119.908 50.2761 119.706C49.8723 119.497 49.5578 119.205 49.3326 118.833C49.1152 118.452 49.0065 118.006 49.0065 117.493V113.789C49.0065 113.269 49.1152 112.823 49.3326 112.45C49.5578 112.077 49.8723 111.79 50.2761 111.588C50.6876 111.378 51.1652 111.274 51.7087 111.274C52.26 111.274 52.7337 111.378 53.1297 111.588C53.5335 111.79 53.848 112.077 54.0732 112.45C54.2983 112.823 54.4109 113.269 54.4109 113.789H52.9433C52.9433 113.386 52.8346 113.079 52.6172 112.869C52.4076 112.66 52.1047 112.555 51.7087 112.555C51.3127 112.555 51.006 112.66 50.7886 112.869C50.5711 113.079 50.4624 113.382 50.4624 113.778V117.493C50.4624 117.889 50.5711 118.196 50.7886 118.413C51.006 118.623 51.3127 118.728 51.7087 118.728C52.1047 118.728 52.4076 118.623 52.6172 118.413C52.8346 118.196 52.9433 117.889 52.9433 117.493H54.4109C54.4109 117.998 54.2983 118.441 54.0732 118.821C53.848 119.202 53.5335 119.497 53.1297 119.706C52.7337 119.908 52.26 120.009 51.7087 120.009Z" fill="#170000"/>
<path d="M56.1768 119.893V111.39H61.2784V112.66H57.6094V114.873H60.8707V116.131H57.6094V118.623H61.2784V119.893H56.1768Z" fill="#170000"/>
<path d="M63.021 119.893V111.39H65.7116C66.2784 111.39 66.7676 111.495 67.1791 111.704C67.5985 111.914 67.9246 112.209 68.1575 112.59C68.3905 112.962 68.507 113.405 68.507 113.917C68.507 114.477 68.3633 114.97 68.076 115.397C67.7965 115.824 67.416 116.127 66.9346 116.305L68.6234 119.893H66.9928L65.5136 116.515H64.4769V119.893H63.021ZM64.4769 115.234H65.7116C66.1231 115.234 66.4454 115.121 66.6783 114.896C66.9113 114.671 67.0277 114.36 67.0277 113.964C67.0277 113.56 66.9113 113.246 66.6783 113.021C66.4454 112.788 66.1231 112.671 65.7116 112.671H64.4769V115.234Z" fill="#170000"/>
<path d="M71.8802 119.893V112.741H69.6555V111.39H75.5725V112.741H73.3478V119.893H71.8802Z" fill="#170000"/>
<path d="M77.152 119.893V118.611H78.8642V112.671H77.152V111.39H82.0439V112.671H80.3317V118.611H82.0439V119.893H77.152Z" fill="#170000"/>
<path d="M84.0194 119.893V111.39H89.3074V112.741H85.4521V115.012H89.0046V116.363H85.4754V119.893H84.0194Z" fill="#170000"/>
<path d="M91.1199 119.893V118.611H92.8321V112.671H91.1199V111.39H96.0118V112.671H94.2996V118.611H96.0118V119.893H91.1199Z" fill="#170000"/>
<path d="M98.0805 119.893V111.39H103.182V112.66H99.5132V114.873H102.774V116.131H99.5132V118.623H103.182V119.893H98.0805Z" fill="#170000"/>
<path d="M104.913 119.893V111.39H107.441C108.015 111.39 108.512 111.499 108.931 111.716C109.359 111.934 109.689 112.24 109.922 112.636C110.154 113.032 110.271 113.502 110.271 114.046V117.225C110.271 117.761 110.154 118.231 109.922 118.635C109.689 119.031 109.359 119.341 108.931 119.567C108.512 119.784 108.015 119.893 107.441 119.893H104.913ZM106.369 118.553H107.441C107.86 118.553 108.194 118.437 108.442 118.204C108.691 117.963 108.815 117.637 108.815 117.225V114.046C108.815 113.642 108.691 113.323 108.442 113.091C108.194 112.85 107.86 112.729 107.441 112.729H106.369V118.553Z" fill="#170000"/>
<path d="M118.939 119.893V111.39H124.227V112.741H120.372V115.012H123.924V116.363H120.395V119.893H118.939Z" fill="#170000"/>
<path d="M128.486 120.009C127.942 120.009 127.468 119.908 127.065 119.706C126.669 119.497 126.362 119.205 126.144 118.833C125.935 118.452 125.83 118.006 125.83 117.493V113.789C125.83 113.277 125.935 112.834 126.144 112.462C126.362 112.081 126.669 111.79 127.065 111.588C127.468 111.378 127.942 111.274 128.486 111.274C129.037 111.274 129.511 111.378 129.907 111.588C130.303 111.79 130.605 112.081 130.815 112.462C131.033 112.834 131.141 113.273 131.141 113.778V117.493C131.141 118.006 131.033 118.452 130.815 118.833C130.605 119.205 130.303 119.497 129.907 119.706C129.511 119.908 129.037 120.009 128.486 120.009ZM128.486 118.728C128.882 118.728 129.181 118.623 129.382 118.413C129.584 118.196 129.685 117.889 129.685 117.493V113.789C129.685 113.386 129.584 113.079 129.382 112.869C129.181 112.66 128.882 112.555 128.486 112.555C128.09 112.555 127.791 112.66 127.589 112.869C127.387 113.079 127.286 113.386 127.286 113.789V117.493C127.286 117.889 127.387 118.196 127.589 118.413C127.798 118.623 128.097 118.728 128.486 118.728Z" fill="#170000"/>
<path d="M132.861 119.893V111.39H135.551C136.118 111.39 136.607 111.495 137.019 111.704C137.438 111.914 137.764 112.209 137.997 112.59C138.23 112.962 138.347 113.405 138.347 113.917C138.347 114.477 138.203 114.97 137.916 115.397C137.636 115.824 137.256 116.127 136.774 116.305L138.463 119.893H136.832L135.353 116.515H134.316V119.893H132.861ZM134.316 115.234H135.551C135.963 115.234 136.285 115.121 136.518 114.896C136.751 114.671 136.867 114.36 136.867 113.964C136.867 113.56 136.751 113.246 136.518 113.021C136.285 112.788 135.963 112.671 135.551 112.671H134.316V115.234Z" fill="#170000"/>
<path d="M146.84 119.893V111.39H148.296V114.803H150.579V111.39H152.035V119.893H150.579V116.154H148.296V119.893H146.84Z" fill="#170000"/>
<path d="M156.421 120.009C155.591 120.009 154.938 119.784 154.465 119.334C153.999 118.875 153.766 118.254 153.766 117.47V111.39H155.233V117.458C155.233 117.862 155.334 118.177 155.536 118.402C155.738 118.627 156.033 118.74 156.421 118.74C156.802 118.74 157.093 118.627 157.295 118.402C157.505 118.177 157.61 117.862 157.61 117.458V111.39H159.077V117.47C159.077 118.254 158.844 118.875 158.378 119.334C157.912 119.784 157.26 120.009 156.421 120.009Z" fill="#170000"/>
<path d="M160.563 119.893V111.39H162.287L163.114 114.092C163.2 114.364 163.27 114.612 163.324 114.838C163.378 115.063 163.413 115.226 163.429 115.327C163.444 115.226 163.479 115.063 163.534 114.838C163.588 114.612 163.654 114.364 163.732 114.092L164.524 111.39H166.247V119.893H164.885V117.249C164.885 116.86 164.896 116.437 164.92 115.979C164.943 115.521 164.97 115.063 165.001 114.605C165.032 114.147 165.067 113.712 165.106 113.3C165.153 112.889 165.191 112.528 165.222 112.217L164.081 116.235H162.753L161.577 112.217C161.616 112.512 161.654 112.861 161.693 113.265C161.732 113.661 161.767 114.088 161.798 114.546C161.837 114.997 161.868 115.455 161.891 115.921C161.915 116.387 161.926 116.829 161.926 117.249V119.893H160.563Z" fill="#170000"/>
<path d="M167.303 119.893L169.446 111.39H171.321L173.476 119.893H171.985L171.519 117.831H169.26L168.794 119.893H167.303ZM169.527 116.643H171.251L170.739 114.36C170.653 113.98 170.58 113.638 170.517 113.335C170.455 113.025 170.413 112.799 170.389 112.66C170.366 112.799 170.323 113.025 170.261 113.335C170.207 113.638 170.133 113.976 170.04 114.348L169.527 116.643Z" fill="#170000"/>
<path d="M174.718 119.893V111.39H176.5L178.864 118.262C178.841 118.014 178.814 117.722 178.783 117.388C178.759 117.047 178.74 116.701 178.724 116.352C178.709 115.995 178.701 115.684 178.701 115.42V111.39H180.029V119.893H178.247L175.906 113.021C175.921 113.246 175.941 113.518 175.964 113.836C175.987 114.154 176.007 114.48 176.022 114.814C176.038 115.148 176.046 115.455 176.046 115.734V119.893H174.718Z" fill="#170000"/>
<path d="M184.381 120.009C183.798 120.009 183.293 119.912 182.866 119.718C182.439 119.524 182.109 119.248 181.876 118.891C181.651 118.526 181.535 118.099 181.527 117.61H182.983C182.983 117.959 183.107 118.235 183.356 118.437C183.612 118.631 183.957 118.728 184.392 118.728C184.812 118.728 185.138 118.631 185.371 118.437C185.611 118.243 185.732 117.975 185.732 117.633C185.732 117.346 185.646 117.097 185.475 116.888C185.312 116.67 185.076 116.523 184.765 116.445L183.787 116.177C183.119 116.006 182.602 115.7 182.237 115.257C181.88 114.814 181.702 114.279 181.702 113.65C181.702 113.168 181.81 112.749 182.028 112.392C182.245 112.034 182.552 111.759 182.948 111.565C183.352 111.371 183.825 111.274 184.369 111.274C185.192 111.274 185.844 111.487 186.326 111.914C186.807 112.333 187.052 112.9 187.06 113.615H185.604C185.604 113.281 185.495 113.021 185.277 112.834C185.06 112.64 184.753 112.543 184.357 112.543C183.977 112.543 183.682 112.632 183.472 112.811C183.262 112.99 183.158 113.242 183.158 113.568C183.158 113.863 183.235 114.115 183.391 114.325C183.554 114.527 183.787 114.671 184.089 114.756L185.103 115.036C185.778 115.206 186.295 115.513 186.652 115.956C187.009 116.391 187.188 116.93 187.188 117.575C187.188 118.056 187.071 118.483 186.838 118.856C186.605 119.221 186.279 119.504 185.86 119.706C185.441 119.908 184.947 120.009 184.381 120.009Z" fill="#170000"/>
<path d="M191.446 114.477L192.378 110.854H194.23L192.716 114.477H191.446ZM188.569 114.477L189.501 110.854H191.353L189.839 114.477H188.569Z" fill="#170000"/>
<path d="M41.1839 121.989H194.835V122.572H41.1839V121.989Z" fill="#170000"/>
<path d="M42.1507 66.7509V58.2482H44.5268C45.0858 58.2482 45.5711 58.3569 45.9827 58.5743C46.3942 58.784 46.7126 59.0829 46.9378 59.4712C47.1707 59.8594 47.2872 60.3175 47.2872 60.8456V64.1418C47.2872 64.6621 47.1707 65.1202 46.9378 65.5162C46.7126 65.9122 46.3942 66.2189 45.9827 66.4364C45.5711 66.646 45.0858 66.7509 44.5268 66.7509H42.1507ZM43.4086 65.6094H44.5268C44.9927 65.6094 45.3576 65.4813 45.6216 65.225C45.8934 64.961 46.0293 64.5999 46.0293 64.1418V60.8456C46.0293 60.3952 45.8934 60.0419 45.6216 59.7856C45.3576 59.5216 44.9927 59.3896 44.5268 59.3896H43.4086V65.6094Z" fill="#170000"/>
<path d="M49.2627 66.7509V58.2482H54.2595V59.3663H50.4974V61.7774H53.8519V62.8839H50.4974V65.6327H54.2595V66.7509H49.2627Z" fill="#170000"/>
<path d="M58.681 66.8673C58.1064 66.8673 57.6133 66.7741 57.2018 66.5878C56.7902 66.3937 56.4719 66.1219 56.2467 65.7725C56.0215 65.4153 55.9089 64.9921 55.9089 64.5029H57.1552C57.1552 64.8911 57.2911 65.1978 57.5629 65.423C57.8346 65.6405 58.2112 65.7492 58.6927 65.7492C59.143 65.7492 59.4964 65.6405 59.7526 65.423C60.0088 65.2056 60.137 64.9067 60.137 64.5262C60.137 64.2078 60.0477 63.9322 59.8691 63.6992C59.6982 63.4663 59.4498 63.3071 59.1236 63.2217L58.0521 62.9072C57.4309 62.7286 56.9494 62.4257 56.6078 61.9987C56.2739 61.5638 56.1069 61.0475 56.1069 60.4495C56.1069 59.9836 56.2118 59.576 56.4214 59.2266C56.6311 58.8771 56.93 58.6054 57.3183 58.4112C57.7065 58.2171 58.1647 58.12 58.6927 58.12C59.4692 58.12 60.0904 58.3297 60.5563 58.749C61.0299 59.1683 61.2707 59.7313 61.2784 60.4379H60.0205C60.0205 60.0652 59.9001 59.774 59.6594 59.5643C59.4265 59.3469 59.0965 59.2382 58.6694 59.2382C58.2578 59.2382 57.9356 59.3392 57.7026 59.541C57.4697 59.7352 57.3532 60.0108 57.3532 60.368C57.3532 60.6864 57.4386 60.962 57.6095 61.195C57.7881 61.4279 58.0404 61.591 58.3665 61.6842L59.4498 62.0103C60.071 62.1811 60.5485 62.484 60.8824 62.9188C61.2163 63.3537 61.3832 63.8739 61.3832 64.4796C61.3832 64.9533 61.2707 65.3726 61.0455 65.7375C60.8203 66.0947 60.5058 66.3742 60.102 66.5761C59.6982 66.7703 59.2246 66.8673 58.681 66.8673Z" fill="#170000"/>
<path d="M63.2772 66.7509V65.6327H64.9894V59.3663H63.2772V58.2482H67.9828V59.3663H66.2707V65.6327H67.9828V66.7509H63.2772Z" fill="#170000"/>
<path d="M72.6606 66.8673C72.1326 66.8673 71.6705 66.7703 71.2745 66.5761C70.8863 66.3742 70.5834 66.0869 70.366 65.7142C70.1564 65.3337 70.0515 64.8911 70.0515 64.3864V60.6126C70.0515 60.1001 70.1564 59.6575 70.366 59.2848C70.5834 58.9121 70.8863 58.6287 71.2745 58.4345C71.6705 58.2326 72.1326 58.1317 72.6606 58.1317C73.1886 58.1317 73.6467 58.2326 74.035 58.4345C74.4232 58.6364 74.7222 58.9237 74.9319 59.2964C75.1493 59.6614 75.258 60.1001 75.258 60.6126H74C74 60.17 73.8836 59.8322 73.6506 59.5993C73.4177 59.3663 73.0877 59.2499 72.6606 59.2499C72.2335 59.2499 71.8996 59.3663 71.6589 59.5993C71.426 59.8322 71.3095 60.1661 71.3095 60.601V64.3864C71.3095 64.8212 71.426 65.159 71.6589 65.3997C71.8996 65.6405 72.2335 65.7608 72.6606 65.7608C73.0877 65.7608 73.4177 65.6405 73.6506 65.3997C73.8836 65.159 74 64.8212 74 64.3864V63.4313H72.416V62.3248H75.258V64.3864C75.258 64.8911 75.1493 65.3299 74.9319 65.7026C74.7222 66.0753 74.4232 66.3626 74.035 66.5645C73.6467 66.7664 73.1886 66.8673 72.6606 66.8673Z" fill="#170000"/>
<path d="M77.0471 66.7509V58.2482H78.6312L81.1121 65.3182C81.0966 65.093 81.0772 64.8251 81.0539 64.5145C81.0306 64.2039 81.0112 63.8817 80.9957 63.5478C80.9879 63.2139 80.984 62.9111 80.984 62.6393V58.2482H82.1488V66.7509H80.5647L78.0954 59.6808C78.111 59.8827 78.1265 60.1351 78.142 60.4379C78.1653 60.7407 78.1808 61.0552 78.1886 61.3813C78.2041 61.7075 78.2119 62.0103 78.2119 62.2899V66.7509H77.0471Z" fill="#170000"/>
<path d="M84.1825 66.7509V58.2482H89.1793V59.3663H85.4172V61.7774H88.7716V62.8839H85.4172V65.6327H89.1793V66.7509H84.1825Z" fill="#170000"/>
<path d="M91.0384 66.7509V58.2482H93.4144C93.9735 58.2482 94.4588 58.3569 94.8704 58.5743C95.2819 58.784 95.6003 59.0829 95.8255 59.4712C96.0584 59.8594 96.1749 60.3175 96.1749 60.8456V64.1418C96.1749 64.6621 96.0584 65.1202 95.8255 65.5162C95.6003 65.9122 95.2819 66.2189 94.8704 66.4364C94.4588 66.646 93.9735 66.7509 93.4144 66.7509H91.0384ZM92.2963 65.6094H93.4144C93.8803 65.6094 94.2453 65.4813 94.5093 65.225C94.7811 64.961 94.917 64.5999 94.917 64.1418V60.8456C94.917 60.3952 94.7811 60.0419 94.5093 59.7856C94.2453 59.5216 93.8803 59.3896 93.4144 59.3896H92.2963V65.6094Z" fill="#170000"/>
<path d="M105.03 66.7509V58.2482H107.534C108.341 58.2482 108.974 58.4423 109.432 58.8305C109.89 59.2188 110.12 59.7546 110.12 60.4379C110.12 60.8262 110.034 61.1639 109.863 61.4512C109.7 61.7308 109.471 61.9482 109.176 62.1035C108.881 62.2588 108.535 62.3364 108.139 62.3364V62.22C108.567 62.2122 108.943 62.2937 109.269 62.4646C109.595 62.6276 109.852 62.8722 110.038 63.1984C110.224 63.5245 110.318 63.9127 110.318 64.3631C110.318 64.8445 110.209 65.2677 109.991 65.6327C109.782 65.9899 109.479 66.2655 109.083 66.4597C108.695 66.6538 108.233 66.7509 107.697 66.7509H105.03ZM106.253 65.6676H107.592C108.042 65.6676 108.4 65.5473 108.664 65.3066C108.928 65.0658 109.06 64.7319 109.06 64.3049C109.06 63.87 108.928 63.5206 108.664 63.2566C108.4 62.9926 108.042 62.8606 107.592 62.8606H106.253V65.6676ZM106.253 61.8123H107.522C107.941 61.8123 108.271 61.6997 108.512 61.4745C108.753 61.2493 108.873 60.9465 108.873 60.566C108.873 60.1855 108.753 59.8866 108.512 59.6692C108.271 59.444 107.945 59.3314 107.534 59.3314H106.253V61.8123Z" fill="#170000"/>
<path d="M113.889 66.7509V63.6177L111.361 58.2482H112.666L114.168 61.4629C114.269 61.6725 114.351 61.8705 114.413 62.0569C114.475 62.2355 114.518 62.3753 114.541 62.4762C114.557 62.3753 114.595 62.2355 114.658 62.0569C114.727 61.8705 114.809 61.6725 114.902 61.4629L116.37 58.2482H117.674L115.147 63.6177V66.7509H113.889Z" fill="#170000"/>
<path d="M321.866 66.7509V65.6327H323.578V59.3663H321.866V58.2482H326.571V59.3663H324.859V65.6327H326.571V66.7509H321.866Z" fill="#170000"/>
<path d="M328.652 66.7509V58.2482H330.236L332.717 65.3182C332.701 65.093 332.682 64.8251 332.658 64.5145C332.635 64.2039 332.616 63.8817 332.6 63.5478C332.592 63.2139 332.588 62.9111 332.588 62.6393V58.2482H333.753V66.7509H332.169L329.7 59.6808C329.715 59.8827 329.731 60.1351 329.746 60.4379C329.77 60.7407 329.785 61.0552 329.793 61.3813C329.809 61.7075 329.816 62.0103 329.816 62.2899V66.7509H328.652Z" fill="#170000"/>
<path d="M342.643 66.7509V58.2482H345.019C345.578 58.2482 346.063 58.3569 346.475 58.5743C346.886 58.784 347.205 59.0829 347.43 59.4712C347.663 59.8594 347.779 60.3175 347.779 60.8456V64.1418C347.779 64.6621 347.663 65.1202 347.43 65.5162C347.205 65.9122 346.886 66.2189 346.475 66.4364C346.063 66.646 345.578 66.7509 345.019 66.7509H342.643ZM343.901 65.6094H345.019C345.485 65.6094 345.85 65.4813 346.114 65.225C346.386 64.961 346.521 64.5999 346.521 64.1418V60.8456C346.521 60.3952 346.386 60.0419 346.114 59.7856C345.85 59.5216 345.485 59.3896 345.019 59.3896H343.901V65.6094Z" fill="#170000"/>
<path d="M349.161 66.7509L351.327 58.2482H352.981L355.148 66.7509H353.878L353.366 64.5961H350.955L350.442 66.7509H349.161ZM351.188 63.5594H353.121L352.539 61.1018C352.438 60.667 352.352 60.2904 352.282 59.972C352.22 59.6459 352.178 59.4246 352.154 59.3081C352.131 59.4246 352.088 59.6459 352.026 59.972C351.964 60.2904 351.879 60.6631 351.77 61.0902L351.188 63.5594Z" fill="#170000"/>
<path d="M358.509 66.7509V63.6177L355.982 58.2482H357.286L358.789 61.4629C358.89 61.6725 358.971 61.8705 359.033 62.0569C359.095 62.2355 359.138 62.3753 359.161 62.4762C359.177 62.3753 359.216 62.2355 359.278 62.0569C359.348 61.8705 359.429 61.6725 359.523 61.4629L360.99 58.2482H362.295L359.767 63.6177V66.7509H358.509Z" fill="#170000"/>
<path d="M365.493 66.7509V59.4013H363.222V58.2365H369.022V59.4013H366.751V66.7509H365.493Z" fill="#170000"/>
<path d="M373.106 66.8673C372.578 66.8673 372.12 66.7703 371.732 66.5761C371.351 66.3742 371.056 66.0869 370.846 65.7142C370.645 65.3337 370.544 64.8911 370.544 64.3864V60.6126C370.544 60.1001 370.645 59.6575 370.846 59.2848C371.056 58.9121 371.351 58.6287 371.732 58.4345C372.12 58.2326 372.578 58.1317 373.106 58.1317C373.634 58.1317 374.088 58.2326 374.469 58.4345C374.857 58.6287 375.152 58.9121 375.354 59.2848C375.564 59.6575 375.669 60.0962 375.669 60.601V64.3864C375.669 64.8911 375.564 65.3337 375.354 65.7142C375.152 66.0869 374.857 66.3742 374.469 66.5761C374.088 66.7703 373.634 66.8673 373.106 66.8673ZM373.106 65.7492C373.533 65.7492 373.855 65.6327 374.073 65.3997C374.298 65.159 374.411 64.8212 374.411 64.3864V60.6126C374.411 60.17 374.298 59.8322 374.073 59.5993C373.855 59.3663 373.533 59.2499 373.106 59.2499C372.687 59.2499 372.365 59.3663 372.139 59.5993C371.914 59.8322 371.802 60.17 371.802 60.6126V64.3864C371.802 64.8212 371.914 65.159 372.139 65.3997C372.365 65.6327 372.687 65.7492 373.106 65.7492Z" fill="#170000"/>
<path d="M377.539 66.7509V58.2482H379.123L381.604 65.3182C381.589 65.093 381.569 64.8251 381.546 64.5145C381.523 64.2039 381.503 63.8817 381.488 63.5478C381.48 63.2139 381.476 62.9111 381.476 62.6393V58.2482H382.641V66.7509H381.057L378.588 59.6808C378.603 59.8827 378.619 60.1351 378.634 60.4379C378.657 60.7407 378.673 61.0552 378.681 61.3813C378.696 61.7075 378.704 62.0103 378.704 62.2899V66.7509H377.539Z" fill="#170000"/>
<path d="M385.42 68.6145L386.352 64.9921H388.029L386.515 68.6145H385.42Z" fill="#170000"/>
<path d="M401.042 66.8673C400.514 66.8673 400.056 66.7703 399.668 66.5761C399.287 66.3742 398.992 66.0869 398.782 65.7142C398.58 65.3337 398.479 64.8911 398.479 64.3864V60.6126C398.479 60.1001 398.58 59.6575 398.782 59.2848C398.992 58.9121 399.287 58.6287 399.668 58.4345C400.056 58.2326 400.514 58.1317 401.042 58.1317C401.57 58.1317 402.024 58.2326 402.405 58.4345C402.793 58.6287 403.088 58.9121 403.29 59.2848C403.5 59.6575 403.604 60.0962 403.604 60.601V64.3864C403.604 64.8911 403.5 65.3337 403.29 65.7142C403.088 66.0869 402.793 66.3742 402.405 66.5761C402.024 66.7703 401.57 66.8673 401.042 66.8673ZM401.042 65.7492C401.469 65.7492 401.791 65.6327 402.009 65.3997C402.234 65.159 402.346 64.8212 402.346 64.3864V60.6126C402.346 60.17 402.234 59.8322 402.009 59.5993C401.791 59.3663 401.469 59.2499 401.042 59.2499C400.623 59.2499 400.3 59.3663 400.075 59.5993C399.85 59.8322 399.737 60.17 399.737 60.6126V64.3864C399.737 64.8212 399.85 65.159 400.075 65.3997C400.3 65.6327 400.623 65.7492 401.042 65.7492Z" fill="#170000"/>
<path d="M405.522 66.7509V58.2482H406.78V61.7657H409.272V58.2482H410.53V66.7509H409.272V62.9305H406.78V66.7509H405.522Z" fill="#170000"/>
<path d="M415.01 66.8673C414.699 66.8673 414.451 66.778 414.264 66.5994C414.078 66.4131 413.985 66.1646 413.985 65.854C413.985 65.5356 414.078 65.2833 414.264 65.0969C414.451 64.9028 414.699 64.8057 415.01 64.8057C415.328 64.8057 415.577 64.9028 415.755 65.0969C415.942 65.2833 416.035 65.5356 416.035 65.854C416.035 66.1646 415.942 66.4131 415.755 66.5994C415.577 66.778 415.328 66.8673 415.01 66.8673Z" fill="#170000"/>
<path d="M58.1893 146.188V144.941L60.8216 142.228C61.2254 141.808 61.5205 141.432 61.7068 141.098C61.901 140.756 61.998 140.418 61.998 140.084C61.998 139.65 61.8777 139.308 61.6369 139.059C61.404 138.811 61.0817 138.687 60.6702 138.687C60.2198 138.687 59.8626 138.819 59.5986 139.083C59.3424 139.339 59.2143 139.692 59.2143 140.143H57.9563C57.9719 139.615 58.0922 139.16 58.3174 138.78C58.5426 138.392 58.8571 138.093 59.2609 137.883C59.6646 137.673 60.1383 137.569 60.6819 137.569C61.2021 137.569 61.6564 137.67 62.0446 137.871C62.4329 138.073 62.7318 138.357 62.9415 138.722C63.1511 139.087 63.256 139.518 63.256 140.015C63.256 140.519 63.1239 141.012 62.8599 141.494C62.6037 141.975 62.1805 142.511 61.5904 143.101L59.6685 145.046H63.3841V146.188H58.1893Z" fill="#170000"/>
<path d="M67.6775 146.304C67.1417 146.304 66.6758 146.199 66.2798 145.99C65.8915 145.78 65.5887 145.489 65.3712 145.116C65.1538 144.736 65.0451 144.293 65.0451 143.788V140.084C65.0451 139.572 65.1499 139.129 65.3596 138.757C65.577 138.384 65.8837 138.093 66.2798 137.883C66.6758 137.673 67.1417 137.569 67.6775 137.569C68.221 137.569 68.6869 137.673 69.0752 137.883C69.4712 138.093 69.774 138.384 69.9837 138.757C70.2011 139.129 70.3098 139.572 70.3098 140.084V143.788C70.3098 144.293 70.2011 144.736 69.9837 145.116C69.7662 145.489 69.4595 145.78 69.0635 145.99C68.6753 146.199 68.2132 146.304 67.6775 146.304ZM67.6775 145.221C68.1123 145.221 68.4578 145.089 68.7141 144.825C68.9781 144.561 69.1101 144.215 69.1101 143.788V140.084C69.1101 139.657 68.9781 139.312 68.7141 139.048C68.4578 138.784 68.1123 138.652 67.6775 138.652C67.2426 138.652 66.8932 138.784 66.6292 139.048C66.3729 139.312 66.2448 139.657 66.2448 140.084V143.788C66.2448 144.215 66.3729 144.561 66.6292 144.825C66.8932 145.089 67.2426 145.221 67.6775 145.221ZM67.6775 142.659C67.46 142.659 67.2814 142.589 67.1417 142.449C67.0097 142.309 66.9437 142.127 66.9437 141.901C66.9437 141.684 67.0097 141.509 67.1417 141.377C67.2814 141.238 67.46 141.168 67.6775 141.168C67.8949 141.168 68.0696 141.238 68.2016 141.377C68.3414 141.509 68.4112 141.684 68.4112 141.901C68.4112 142.127 68.3414 142.309 68.2016 142.449C68.0696 142.589 67.8949 142.659 67.6775 142.659Z" fill="#170000"/>
<path d="M72.1572 146.188V144.941L74.7895 142.228C75.1933 141.808 75.4884 141.432 75.6747 141.098C75.8689 140.756 75.9659 140.418 75.9659 140.084C75.9659 139.65 75.8456 139.308 75.6049 139.059C75.3719 138.811 75.0497 138.687 74.6381 138.687C74.1877 138.687 73.8306 138.819 73.5665 139.083C73.3103 139.339 73.1822 139.692 73.1822 140.143H71.9242C71.9398 139.615 72.0601 139.16 72.2853 138.78C72.5105 138.392 72.825 138.093 73.2288 137.883C73.6325 137.673 74.1062 137.569 74.6498 137.569C75.17 137.569 75.6243 137.67 76.0125 137.871C76.4008 138.073 76.6997 138.357 76.9094 138.722C77.119 139.087 77.2239 139.518 77.2239 140.015C77.2239 140.519 77.0919 141.012 76.8278 141.494C76.5716 141.975 76.1484 142.511 75.5583 143.101L73.6364 145.046H77.352V146.188H72.1572Z" fill="#170000"/>
<path d="M81.6221 146.304C80.8844 146.304 80.2865 146.118 79.8284 145.745C79.3702 145.365 79.114 144.856 79.0596 144.219H80.3059C80.3447 144.53 80.4767 144.771 80.7019 144.941C80.9271 145.112 81.2377 145.198 81.6337 145.198C82.0763 145.198 82.4102 145.081 82.6354 144.848C82.8684 144.608 82.9848 144.274 82.9848 143.847V143.02C82.9848 142.585 82.8722 142.251 82.6471 142.018C82.4219 141.777 82.088 141.657 81.6454 141.657C81.3658 141.657 81.1251 141.723 80.9232 141.855C80.7213 141.979 80.5738 142.154 80.4806 142.379H79.2343L79.2926 137.685H83.9283V138.826H80.4923L80.469 141.47H80.7951L80.4573 141.773C80.4573 141.408 80.601 141.121 80.8883 140.911C81.1756 140.702 81.56 140.597 82.0414 140.597C82.7325 140.597 83.2683 140.81 83.6487 141.238C84.037 141.657 84.2311 142.251 84.2311 143.02V143.847C84.2311 144.6 84.002 145.198 83.5439 145.64C83.0858 146.083 82.4452 146.304 81.6221 146.304Z" fill="#170000"/>
<path d="M45.7701 146.322C44.9956 146.322 44.3127 146.169 43.7216 145.864C43.1407 145.558 42.6872 145.13 42.361 144.579C42.0349 144.029 41.8718 143.387 41.8718 142.653V140.36C41.8718 139.626 42.0349 138.984 42.361 138.434C42.6872 137.884 43.1407 137.455 43.7216 137.15C44.3127 136.844 44.9956 136.691 45.7701 136.691C46.5549 136.691 47.2377 136.844 47.8186 137.15C48.3995 137.455 48.8531 137.884 49.1792 138.434C49.5053 138.984 49.6684 139.626 49.6684 140.36V142.653C49.6684 143.387 49.5053 144.029 49.1792 144.579C48.8531 145.13 48.3995 145.558 47.8186 145.864C47.2377 146.169 46.5549 146.322 45.7701 146.322ZM45.7701 145.558C46.3816 145.558 46.9167 145.441 47.3753 145.206C47.8339 144.962 48.1906 144.62 48.4454 144.182C48.7002 143.744 48.8276 143.234 48.8276 142.653V140.36C48.8276 139.779 48.7002 139.275 48.4454 138.847C48.1906 138.408 47.8339 138.067 47.3753 137.822C46.9167 137.578 46.3816 137.455 45.7701 137.455C45.1586 137.455 44.6236 137.578 44.1649 137.822C43.7063 138.067 43.3496 138.408 43.0948 138.847C42.84 139.275 42.7126 139.779 42.7126 140.36V142.653C42.7126 143.234 42.84 143.744 43.0948 144.182C43.3496 144.62 43.7063 144.962 44.1649 145.206C44.6236 145.441 45.1586 145.558 45.7701 145.558ZM45.8466 144.258C45.2656 144.258 44.7917 144.095 44.4248 143.769C44.0681 143.433 43.8898 142.995 43.8898 142.454V140.559C43.8898 140.019 44.0681 139.586 44.4248 139.259C44.7917 138.923 45.2656 138.755 45.8466 138.755C46.4275 138.755 46.8963 138.923 47.253 139.259C47.6097 139.586 47.788 140.019 47.788 140.559H46.7026C46.7026 140.294 46.6211 140.085 46.458 139.932C46.3052 139.769 46.1013 139.687 45.8466 139.687C45.5816 139.687 45.3675 139.769 45.2045 139.932C45.0516 140.085 44.9752 140.294 44.9752 140.559V142.454C44.9752 142.719 45.0516 142.933 45.2045 143.097C45.3675 143.249 45.5816 143.326 45.8466 143.326C46.1013 143.326 46.3052 143.249 46.458 143.097C46.6211 142.933 46.7026 142.719 46.7026 142.454H47.788C47.788 142.995 47.6097 143.433 47.253 143.769C46.8963 144.095 46.4275 144.258 45.8466 144.258Z" fill="#170000"/>
<path d="M160.299 146.1V137.597H163.083C163.634 137.597 164.112 137.702 164.516 137.911C164.927 138.121 165.242 138.42 165.459 138.808C165.684 139.189 165.797 139.639 165.797 140.159C165.797 140.672 165.684 141.122 165.459 141.51C165.234 141.899 164.919 142.198 164.516 142.407C164.112 142.617 163.634 142.722 163.083 142.722H161.557V146.1H160.299ZM161.557 141.592H163.083C163.518 141.592 163.863 141.464 164.12 141.208C164.384 140.944 164.516 140.594 164.516 140.159C164.516 139.717 164.384 139.367 164.12 139.111C163.863 138.855 163.518 138.727 163.083 138.727H161.557V141.592Z" fill="#170000"/>
<path d="M167.283 146.1V137.597H169.951C170.486 137.597 170.952 137.702 171.348 137.911C171.744 138.113 172.051 138.401 172.268 138.773C172.494 139.146 172.606 139.585 172.606 140.089C172.606 140.656 172.459 141.149 172.164 141.569C171.876 141.98 171.484 142.271 170.987 142.442L172.723 146.1H171.29L169.741 142.605H168.541V146.1H167.283ZM168.541 141.499H169.951C170.37 141.499 170.704 141.375 170.952 141.126C171.201 140.87 171.325 140.532 171.325 140.113C171.325 139.678 171.201 139.336 170.952 139.088C170.704 138.839 170.37 138.715 169.951 138.715H168.541V141.499Z" fill="#170000"/>
<path d="M176.783 146.216C176.255 146.216 175.797 146.119 175.409 145.925C175.028 145.723 174.733 145.436 174.523 145.063C174.322 144.682 174.221 144.24 174.221 143.735V139.961C174.221 139.449 174.322 139.006 174.523 138.633C174.733 138.261 175.028 137.977 175.409 137.783C175.797 137.581 176.255 137.48 176.783 137.48C177.311 137.48 177.765 137.581 178.146 137.783C178.534 137.977 178.829 138.261 179.031 138.633C179.241 139.006 179.346 139.445 179.346 139.95V143.735C179.346 144.24 179.241 144.682 179.031 145.063C178.829 145.436 178.534 145.723 178.146 145.925C177.765 146.119 177.311 146.216 176.783 146.216ZM176.783 145.098C177.21 145.098 177.532 144.981 177.75 144.748C177.975 144.508 178.088 144.17 178.088 143.735V139.961C178.088 139.519 177.975 139.181 177.75 138.948C177.532 138.715 177.21 138.599 176.783 138.599C176.364 138.599 176.041 138.715 175.816 138.948C175.591 139.181 175.479 139.519 175.479 139.961V143.735C175.479 144.17 175.591 144.508 175.816 144.748C176.041 144.981 176.364 145.098 176.783 145.098Z" fill="#170000"/>
<path d="M181.251 146.1V137.597H184.035C184.586 137.597 185.064 137.702 185.468 137.911C185.879 138.121 186.194 138.42 186.411 138.808C186.636 139.189 186.749 139.639 186.749 140.159C186.749 140.672 186.636 141.122 186.411 141.51C186.186 141.899 185.871 142.198 185.468 142.407C185.064 142.617 184.586 142.722 184.035 142.722H182.509V146.1H181.251ZM182.509 141.592H184.035C184.47 141.592 184.815 141.464 185.072 141.208C185.336 140.944 185.468 140.594 185.468 140.159C185.468 139.717 185.336 139.367 185.072 139.111C184.815 138.855 184.47 138.727 184.035 138.727H182.509V141.592Z" fill="#170000"/>
<path d="M188.352 146.1V137.597H193.348V138.715H189.586V141.126H192.941V142.233H189.586V144.981H193.348V146.1H188.352Z" fill="#170000"/>
<path d="M195.219 146.1V137.597H197.886C198.422 137.597 198.888 137.702 199.284 137.911C199.68 138.113 199.987 138.401 200.204 138.773C200.429 139.146 200.542 139.585 200.542 140.089C200.542 140.656 200.394 141.149 200.099 141.569C199.812 141.98 199.42 142.271 198.923 142.442L200.658 146.1H199.226L197.677 142.605H196.477V146.1H195.219ZM196.477 141.499H197.886C198.306 141.499 198.64 141.375 198.888 141.126C199.137 140.87 199.261 140.532 199.261 140.113C199.261 139.678 199.137 139.336 198.888 139.088C198.64 138.839 198.306 138.715 197.886 138.715H196.477V141.499Z" fill="#170000"/>
<path d="M204.09 146.1V138.75H201.819V137.585H207.619V138.75H205.348V146.1H204.09Z" fill="#170000"/>
<path d="M211.074 146.1V142.966L208.546 137.597H209.851L211.353 140.812C211.454 141.021 211.536 141.219 211.598 141.406C211.66 141.584 211.703 141.724 211.726 141.825C211.742 141.724 211.78 141.584 211.843 141.406C211.912 141.219 211.994 141.021 212.087 140.812L213.555 137.597H214.859L212.332 142.966V146.1H211.074Z" fill="#170000"/>
<path d="M225.671 146.216C225.143 146.216 224.685 146.119 224.296 145.925C223.916 145.723 223.621 145.436 223.411 145.063C223.209 144.682 223.108 144.24 223.108 143.735V139.961C223.108 139.449 223.209 139.006 223.411 138.633C223.621 138.261 223.916 137.977 224.296 137.783C224.685 137.581 225.143 137.48 225.671 137.48C226.199 137.48 226.653 137.581 227.034 137.783C227.422 137.977 227.717 138.261 227.919 138.633C228.128 139.006 228.233 139.445 228.233 139.95V143.735C228.233 144.24 228.128 144.682 227.919 145.063C227.717 145.436 227.422 145.723 227.034 145.925C226.653 146.119 226.199 146.216 225.671 146.216ZM225.671 145.098C226.098 145.098 226.42 144.981 226.637 144.748C226.863 144.508 226.975 144.17 226.975 143.735V139.961C226.975 139.519 226.863 139.181 226.637 138.948C226.42 138.715 226.098 138.599 225.671 138.599C225.251 138.599 224.929 138.715 224.704 138.948C224.479 139.181 224.366 139.519 224.366 139.961V143.735C224.366 144.17 224.479 144.508 224.704 144.748C224.929 144.981 225.251 145.098 225.671 145.098Z" fill="#170000"/>
<path d="M230.185 146.1V137.585H235.322V138.75H231.408V141.289H235.019V142.454H231.432V146.1H230.185Z" fill="#170000"/>
<path d="M243.897 146.1V137.597H245.446L246.296 140.322C246.382 140.579 246.456 140.827 246.518 141.068C246.58 141.301 246.623 141.475 246.646 141.592C246.677 141.475 246.72 141.301 246.774 141.068C246.836 140.827 246.906 140.579 246.984 140.322L247.799 137.597H249.348V146.1H248.16V143.234C248.16 142.869 248.168 142.466 248.183 142.023C248.207 141.573 248.238 141.122 248.277 140.672C248.315 140.214 248.354 139.779 248.393 139.367C248.432 138.948 248.467 138.583 248.498 138.272L247.24 142.407H246.029L244.747 138.272C244.786 138.575 244.825 138.929 244.864 139.332C244.903 139.728 244.938 140.152 244.969 140.602C245 141.052 245.027 141.507 245.05 141.965C245.073 142.415 245.085 142.838 245.085 143.234V146.1H243.897Z" fill="#170000"/>
<path d="M250.613 146.1L252.78 137.597H254.434L256.6 146.1H255.33L254.818 143.945H252.407L251.894 146.1H250.613ZM252.64 142.908H254.573L253.991 140.451C253.89 140.016 253.805 139.639 253.735 139.321C253.673 138.995 253.63 138.773 253.607 138.657C253.583 138.773 253.541 138.995 253.478 139.321C253.416 139.639 253.331 140.012 253.222 140.439L252.64 142.908Z" fill="#170000"/>
<path d="M257.492 146.1L259.892 141.767L257.632 137.597H259.053L260.241 139.915C260.311 140.062 260.381 140.21 260.451 140.357C260.521 140.505 260.575 140.617 260.614 140.695C260.645 140.617 260.695 140.505 260.765 140.357C260.835 140.21 260.905 140.062 260.975 139.915L262.186 137.597H263.549L261.289 141.72L263.689 146.1H262.268L260.952 143.584C260.874 143.436 260.8 143.289 260.73 143.141C260.66 142.986 260.606 142.865 260.567 142.78C260.536 142.865 260.486 142.982 260.416 143.129C260.346 143.277 260.276 143.425 260.206 143.572L258.867 146.1H257.492Z" fill="#170000"/>
<path d="M272.334 146.1V137.597H273.592V144.946H277.307V146.1H272.334Z" fill="#170000"/>
<path d="M278.549 146.1L280.715 137.597H282.369L284.536 146.1H283.266L282.754 143.945H280.343L279.83 146.1H278.549ZM280.576 142.908H282.509L281.927 140.451C281.826 140.016 281.74 139.639 281.671 139.321C281.608 138.995 281.566 138.773 281.542 138.657C281.519 138.773 281.476 138.995 281.414 139.321C281.352 139.639 281.267 140.012 281.158 140.439L280.576 142.908Z" fill="#170000"/>
<path d="M286.174 146.1V144.981H287.886V138.715H286.174V137.597H290.879V138.715H289.167V144.981H290.879V146.1H286.174Z" fill="#170000"/>
<path d="M292.994 146.1V137.597H295.662C296.197 137.597 296.663 137.702 297.059 137.911C297.455 138.113 297.762 138.401 297.98 138.773C298.205 139.146 298.317 139.585 298.317 140.089C298.317 140.656 298.17 141.149 297.875 141.569C297.587 141.98 297.195 142.271 296.698 142.442L298.434 146.1H297.001L295.452 142.605H294.252V146.1H292.994ZM294.252 141.499H295.662C296.081 141.499 296.415 141.375 296.663 141.126C296.912 140.87 297.036 140.532 297.036 140.113C297.036 139.678 296.912 139.336 296.663 139.088C296.415 138.839 296.081 138.715 295.662 138.715H294.252V141.499Z" fill="#170000"/>
<path d="M41.8653 41.9999V34.6504H39.594V33.4856H45.3945V34.6504H43.1232V41.9999H41.8653Z" fill="#170000"/>
<path d="M46.974 41.9999V33.4973H48.2319V37.0148H50.7245V33.4973H51.9824V41.9999H50.7245V38.1796H48.2319V41.9999H46.974Z" fill="#170000"/>
<path d="M54.0628 41.9999V33.4973H59.0596V34.6154H55.2974V37.0265H58.6519V38.133H55.2974V40.8818H59.0596V41.9999H54.0628Z" fill="#170000"/>
<path d="M67.9608 41.9999V33.4856H73.0974V34.6504H69.1838V37.1895H72.7945V38.3543H69.2071V41.9999H67.9608Z" fill="#170000"/>
<path d="M77.414 42.1164C76.886 42.1164 76.4279 42.0194 76.0396 41.8252C75.6591 41.6233 75.3641 41.336 75.1544 40.9633C74.9525 40.5828 74.8516 40.1402 74.8516 39.6355V35.8617C74.8516 35.3492 74.9525 34.9066 75.1544 34.5339C75.3641 34.1612 75.6591 33.8777 76.0396 33.6836C76.4279 33.4817 76.886 33.3808 77.414 33.3808C77.9421 33.3808 78.3963 33.4817 78.7768 33.6836C79.165 33.8777 79.4601 34.1612 79.662 34.5339C79.8717 34.9066 79.9765 35.3453 79.9765 35.8501V39.6355C79.9765 40.1402 79.8717 40.5828 79.662 40.9633C79.4601 41.336 79.165 41.6233 78.7768 41.8252C78.3963 42.0194 77.9421 42.1164 77.414 42.1164ZM77.414 40.9983C77.8411 40.9983 78.1634 40.8818 78.3808 40.6488C78.606 40.4081 78.7186 40.0703 78.7186 39.6355V35.8617C78.7186 35.4191 78.606 35.0813 78.3808 34.8484C78.1634 34.6154 77.8411 34.4989 77.414 34.4989C76.9947 34.4989 76.6725 34.6154 76.4473 34.8484C76.2221 35.0813 76.1095 35.4191 76.1095 35.8617V39.6355C76.1095 40.0703 76.2221 40.4081 76.4473 40.6488C76.6725 40.8818 76.9947 40.9983 77.414 40.9983Z" fill="#170000"/>
<path d="M82.1733 41.9999V33.4973H83.4312V40.8468H87.1468V41.9999H82.1733Z" fill="#170000"/>
<path d="M89.1573 41.9999V33.4973H90.4152V40.8468H94.1308V41.9999H89.1573Z" fill="#170000"/>
<path d="M98.3659 42.1164C97.8379 42.1164 97.3797 42.0194 96.9915 41.8252C96.611 41.6233 96.3159 41.336 96.1063 40.9633C95.9044 40.5828 95.8034 40.1402 95.8034 39.6355V35.8617C95.8034 35.3492 95.9044 34.9066 96.1063 34.5339C96.3159 34.1612 96.611 33.8777 96.9915 33.6836C97.3797 33.4817 97.8379 33.3808 98.3659 33.3808C98.8939 33.3808 99.3482 33.4817 99.7287 33.6836C100.117 33.8777 100.412 34.1612 100.614 34.5339C100.824 34.9066 100.928 35.3453 100.928 35.8501V39.6355C100.928 40.1402 100.824 40.5828 100.614 40.9633C100.412 41.336 100.117 41.6233 99.7287 41.8252C99.3482 42.0194 98.8939 42.1164 98.3659 42.1164ZM98.3659 40.9983C98.793 40.9983 99.1152 40.8818 99.3326 40.6488C99.5578 40.4081 99.6704 40.0703 99.6704 39.6355V35.8617C99.6704 35.4191 99.5578 35.0813 99.3326 34.8484C99.1152 34.6154 98.793 34.4989 98.3659 34.4989C97.9466 34.4989 97.6243 34.6154 97.3992 34.8484C97.174 35.0813 97.0614 35.4191 97.0614 35.8617V39.6355C97.0614 40.0703 97.174 40.4081 97.3992 40.6488C97.6243 40.8818 97.9466 40.9983 98.3659 40.9983Z" fill="#170000"/>
<path d="M103.02 41.9999L102.1 33.4973H103.23L103.801 39.6006C103.816 39.7559 103.828 39.9267 103.836 40.113C103.851 40.2994 103.863 40.4819 103.871 40.6605C103.886 40.8391 103.894 40.9944 103.894 41.1264C103.909 40.9944 103.925 40.8391 103.941 40.6605C103.956 40.4819 103.972 40.2994 103.987 40.113C104.01 39.9267 104.034 39.7559 104.057 39.6006L104.791 33.4973H105.956L106.643 39.6006C106.658 39.7559 106.674 39.9267 106.689 40.113C106.713 40.2994 106.736 40.4819 106.759 40.6605C106.783 40.8391 106.798 40.9944 106.806 41.1264C106.814 40.9944 106.821 40.8391 106.829 40.6605C106.845 40.4819 106.86 40.2994 106.876 40.113C106.891 39.9267 106.907 39.7559 106.922 39.6006L107.505 33.4973H108.6L107.644 41.9999H106.188L105.501 35.8151C105.486 35.6521 105.47 35.4812 105.455 35.3026C105.439 35.1163 105.424 34.9377 105.408 34.7668C105.393 34.5882 105.377 34.4407 105.362 34.3242C105.354 34.4407 105.342 34.5882 105.327 34.7668C105.311 34.9377 105.295 35.1163 105.28 35.3026C105.264 35.4812 105.245 35.6521 105.222 35.8151L104.488 41.9999H103.02Z" fill="#170000"/>
<path d="M109.981 41.9999V40.8818H111.693V34.6154H109.981V33.4973H114.687V34.6154H112.974V40.8818H114.687V41.9999H109.981Z" fill="#170000"/>
<path d="M116.767 41.9999V33.4973H118.351L120.832 40.5673C120.816 40.3421 120.797 40.0742 120.774 39.7636C120.75 39.453 120.731 39.1308 120.715 38.7969C120.708 38.463 120.704 38.1601 120.704 37.8884V33.4973H121.869V41.9999H120.285L117.815 34.9299C117.831 35.1318 117.846 35.3842 117.862 35.687C117.885 35.9898 117.901 36.3043 117.908 36.6304C117.924 36.9566 117.932 37.2594 117.932 37.5389V41.9999H116.767Z" fill="#170000"/>
<path d="M126.348 42.1164C125.82 42.1164 125.358 42.0194 124.962 41.8252C124.574 41.6233 124.271 41.336 124.054 40.9633C123.844 40.5828 123.739 40.1402 123.739 39.6355V35.8617C123.739 35.3492 123.844 34.9066 124.054 34.5339C124.271 34.1612 124.574 33.8777 124.962 33.6836C125.358 33.4817 125.82 33.3808 126.348 33.3808C126.876 33.3808 127.334 33.4817 127.723 33.6836C128.111 33.8855 128.41 34.1728 128.62 34.5455C128.837 34.9105 128.946 35.3492 128.946 35.8617H127.688C127.688 35.4191 127.571 35.0813 127.338 34.8484C127.105 34.6154 126.775 34.4989 126.348 34.4989C125.921 34.4989 125.587 34.6154 125.347 34.8484C125.114 35.0813 124.997 35.4152 124.997 35.8501V39.6355C124.997 40.0703 125.114 40.4081 125.347 40.6488C125.587 40.8895 125.921 41.0099 126.348 41.0099C126.775 41.0099 127.105 40.8895 127.338 40.6488C127.571 40.4081 127.688 40.0703 127.688 39.6355V38.6804H126.104V37.5739H128.946V39.6355C128.946 40.1402 128.837 40.5789 128.62 40.9517C128.41 41.3244 128.111 41.6117 127.723 41.8136C127.334 42.0155 126.876 42.1164 126.348 42.1164Z" fill="#170000"/>
<path d="M151.722 41.9999V33.4973H154.505C155.057 33.4973 155.534 33.6021 155.938 33.8117C156.35 34.0214 156.664 34.3204 156.882 34.7086C157.107 35.0891 157.219 35.5395 157.219 36.0597C157.219 36.5722 157.107 37.0226 156.882 37.4108C156.656 37.7991 156.342 38.098 155.938 38.3077C155.534 38.5173 155.057 38.6222 154.505 38.6222H152.98V41.9999H151.722ZM152.98 37.4924H154.505C154.94 37.4924 155.286 37.3642 155.542 37.108C155.806 36.844 155.938 36.4946 155.938 36.0597C155.938 35.6171 155.806 35.2677 155.542 35.0114C155.286 34.7552 154.94 34.6271 154.505 34.6271H152.98V37.4924Z" fill="#170000"/>
<path d="M161.222 42.1164C160.693 42.1164 160.235 42.0194 159.847 41.8252C159.467 41.6233 159.172 41.336 158.962 40.9633C158.76 40.5828 158.659 40.1402 158.659 39.6355V35.8617C158.659 35.3492 158.76 34.9066 158.962 34.5339C159.172 34.1612 159.467 33.8777 159.847 33.6836C160.235 33.4817 160.693 33.3808 161.222 33.3808C161.75 33.3808 162.204 33.4817 162.584 33.6836C162.973 33.8777 163.268 34.1612 163.469 34.5339C163.679 34.9066 163.784 35.3453 163.784 35.8501V39.6355C163.784 40.1402 163.679 40.5828 163.469 40.9633C163.268 41.336 162.973 41.6233 162.584 41.8252C162.204 42.0194 161.75 42.1164 161.222 42.1164ZM161.222 40.9983C161.649 40.9983 161.971 40.8818 162.188 40.6488C162.413 40.4081 162.526 40.0703 162.526 39.6355V35.8617C162.526 35.4191 162.413 35.0813 162.188 34.8484C161.971 34.6154 161.649 34.4989 161.222 34.4989C160.802 34.4989 160.48 34.6154 160.255 34.8484C160.03 35.0813 159.917 35.4191 159.917 35.8617V39.6355C159.917 40.0703 160.03 40.4081 160.255 40.6488C160.48 40.8818 160.802 40.9983 161.222 40.9983Z" fill="#170000"/>
<path d="M165.69 41.9999V33.4973H168.357C168.893 33.4973 169.359 33.6021 169.755 33.8117C170.151 34.0136 170.457 34.3009 170.675 34.6737C170.9 35.0464 171.013 35.4851 171.013 35.9898C171.013 36.5567 170.865 37.0498 170.57 37.4691C170.283 37.8806 169.89 38.1718 169.394 38.3426L171.129 41.9999H169.696L168.147 38.5057H166.948V41.9999H165.69ZM166.948 37.3992H168.357C168.776 37.3992 169.11 37.2749 169.359 37.0265C169.607 36.7702 169.731 36.4324 169.731 36.0131C169.731 35.5783 169.607 35.2366 169.359 34.9881C169.11 34.7397 168.776 34.6154 168.357 34.6154H166.948V37.3992Z" fill="#170000"/>
<path d="M174.56 41.9999V34.6504H172.289V33.4856H178.09V34.6504H175.818V41.9999H174.56Z" fill="#170000"/>
<path d="M179.704 41.9999V33.4856H184.841V34.6504H180.927V37.1895H184.538V38.3543H180.95V41.9999H179.704Z" fill="#170000"/>
<path d="M189.157 42.1164C188.629 42.1164 188.171 42.0194 187.783 41.8252C187.402 41.6233 187.107 41.336 186.898 40.9633C186.696 40.5828 186.595 40.1402 186.595 39.6355V35.8617C186.595 35.3492 186.696 34.9066 186.898 34.5339C187.107 34.1612 187.402 33.8777 187.783 33.6836C188.171 33.4817 188.629 33.3808 189.157 33.3808C189.685 33.3808 190.14 33.4817 190.52 33.6836C190.908 33.8777 191.203 34.1612 191.405 34.5339C191.615 34.9066 191.72 35.3453 191.72 35.8501V39.6355C191.72 40.1402 191.615 40.5828 191.405 40.9633C191.203 41.336 190.908 41.6233 190.52 41.8252C190.14 42.0194 189.685 42.1164 189.157 42.1164ZM189.157 40.9983C189.584 40.9983 189.907 40.8818 190.124 40.6488C190.349 40.4081 190.462 40.0703 190.462 39.6355V35.8617C190.462 35.4191 190.349 35.0813 190.124 34.8484C189.907 34.6154 189.584 34.4989 189.157 34.4989C188.738 34.4989 188.416 34.6154 188.191 34.8484C187.965 35.0813 187.853 35.4191 187.853 35.8617V39.6355C187.853 40.0703 187.965 40.4081 188.191 40.6488C188.416 40.8818 188.738 40.9983 189.157 40.9983Z" fill="#170000"/>
<path d="M193.917 41.9999V33.4973H195.175V40.8468H198.89V41.9999H193.917Z" fill="#170000"/>
<path d="M200.772 41.9999V40.8818H202.485V34.6154H200.772V33.4973H205.478V34.6154H203.766V40.8818H205.478V41.9999H200.772Z" fill="#170000"/>
<path d="M210.109 42.1164C209.581 42.1164 209.123 42.0194 208.735 41.8252C208.354 41.6233 208.059 41.336 207.85 40.9633C207.648 40.5828 207.547 40.1402 207.547 39.6355V35.8617C207.547 35.3492 207.648 34.9066 207.85 34.5339C208.059 34.1612 208.354 33.8777 208.735 33.6836C209.123 33.4817 209.581 33.3808 210.109 33.3808C210.637 33.3808 211.091 33.4817 211.472 33.6836C211.86 33.8777 212.155 34.1612 212.357 34.5339C212.567 34.9066 212.672 35.3453 212.672 35.8501V39.6355C212.672 40.1402 212.567 40.5828 212.357 40.9633C212.155 41.336 211.86 41.6233 211.472 41.8252C211.091 42.0194 210.637 42.1164 210.109 42.1164ZM210.109 40.9983C210.536 40.9983 210.859 40.8818 211.076 40.6488C211.301 40.4081 211.414 40.0703 211.414 39.6355V35.8617C211.414 35.4191 211.301 35.0813 211.076 34.8484C210.859 34.6154 210.536 34.4989 210.109 34.4989C209.69 34.4989 209.368 34.6154 209.142 34.8484C208.917 35.0813 208.805 35.4191 208.805 35.8617V39.6355C208.805 40.0703 208.917 40.4081 209.142 40.6488C209.368 40.8818 209.69 40.9983 210.109 40.9983Z" fill="#170000"/>
<path d="M221.724 41.9999V40.8818H223.436V34.6154H221.724V33.4973H226.43V34.6154H224.718V40.8818H226.43V41.9999H221.724Z" fill="#170000"/>
<path d="M231.096 42.1164C230.521 42.1164 230.028 42.0232 229.617 41.8369C229.205 41.6428 228.887 41.371 228.662 41.0216C228.436 40.6644 228.324 40.2412 228.324 39.752H229.57C229.57 40.1402 229.706 40.4469 229.978 40.6721C230.25 40.8895 230.626 40.9983 231.108 40.9983C231.558 40.9983 231.911 40.8895 232.168 40.6721C232.424 40.4547 232.552 40.1558 232.552 39.7753C232.552 39.4569 232.463 39.1812 232.284 38.9483C232.113 38.7153 231.865 38.5562 231.539 38.4708L230.467 38.1563C229.846 37.9777 229.364 37.6748 229.023 37.2478C228.689 36.8129 228.522 36.2965 228.522 35.6986C228.522 35.2327 228.627 34.8251 228.836 34.4757C229.046 34.1262 229.345 33.8545 229.733 33.6603C230.121 33.4662 230.58 33.3691 231.108 33.3691C231.884 33.3691 232.505 33.5788 232.971 33.9981C233.445 34.4174 233.686 34.9804 233.693 35.687H232.435C232.435 35.3143 232.315 35.0231 232.074 34.8134C231.841 34.596 231.511 34.4873 231.084 34.4873C230.673 34.4873 230.351 34.5882 230.118 34.7901C229.885 34.9843 229.768 35.2599 229.768 35.6171C229.768 35.9355 229.854 36.2111 230.024 36.4441C230.203 36.677 230.455 36.8401 230.782 36.9333L231.865 37.2594C232.486 37.4302 232.963 37.7331 233.297 38.1679C233.631 38.6028 233.798 39.123 233.798 39.7287C233.798 40.2023 233.686 40.6217 233.46 40.9866C233.235 41.3438 232.921 41.6233 232.517 41.8252C232.113 42.0194 231.64 42.1164 231.096 42.1164Z" fill="#170000"/>
<path d="M242.513 41.9999V33.4973H245.297C245.848 33.4973 246.326 33.6021 246.73 33.8117C247.141 34.0214 247.456 34.3204 247.673 34.7086C247.898 35.0891 248.011 35.5395 248.011 36.0597C248.011 36.5722 247.898 37.0226 247.673 37.4108C247.448 37.7991 247.133 38.098 246.73 38.3077C246.326 38.5173 245.848 38.6222 245.297 38.6222H243.771V41.9999H242.513ZM243.771 37.4924H245.297C245.732 37.4924 246.077 37.3642 246.333 37.108C246.598 36.844 246.73 36.4946 246.73 36.0597C246.73 35.6171 246.598 35.2677 246.333 35.0114C246.077 34.7552 245.732 34.6271 245.297 34.6271H243.771V37.4924Z" fill="#170000"/>
<path d="M249.497 41.9999V33.4973H252.164C252.7 33.4973 253.166 33.6021 253.562 33.8117C253.958 34.0136 254.265 34.3009 254.482 34.6737C254.707 35.0464 254.82 35.4851 254.82 35.9898C254.82 36.5567 254.672 37.0498 254.377 37.4691C254.09 37.8806 253.698 38.1718 253.201 38.3426L254.936 41.9999H253.504L251.955 38.5057H250.755V41.9999H249.497ZM250.755 37.3992H252.164C252.584 37.3992 252.918 37.2749 253.166 37.0265C253.415 36.7702 253.539 36.4324 253.539 36.0131C253.539 35.5783 253.415 35.2366 253.166 34.9881C252.918 34.7397 252.584 34.6154 252.164 34.6154H250.755V37.3992Z" fill="#170000"/>
<path d="M258.997 42.1164C258.469 42.1164 258.011 42.0194 257.622 41.8252C257.242 41.6233 256.947 41.336 256.737 40.9633C256.535 40.5828 256.434 40.1402 256.434 39.6355V35.8617C256.434 35.3492 256.535 34.9066 256.737 34.5339C256.947 34.1612 257.242 33.8777 257.622 33.6836C258.011 33.4817 258.469 33.3808 258.997 33.3808C259.525 33.3808 259.979 33.4817 260.36 33.6836C260.748 33.8777 261.043 34.1612 261.245 34.5339C261.454 34.9066 261.559 35.3453 261.559 35.8501V39.6355C261.559 40.1402 261.454 40.5828 261.245 40.9633C261.043 41.336 260.748 41.6233 260.36 41.8252C259.979 42.0194 259.525 42.1164 258.997 42.1164ZM258.997 40.9983C259.424 40.9983 259.746 40.8818 259.964 40.6488C260.189 40.4081 260.301 40.0703 260.301 39.6355V35.8617C260.301 35.4191 260.189 35.0813 259.964 34.8484C259.746 34.6154 259.424 34.4989 258.997 34.4989C258.578 34.4989 258.255 34.6154 258.03 34.8484C257.805 35.0813 257.692 35.4191 257.692 35.8617V39.6355C257.692 40.0703 257.805 40.4081 258.03 40.6488C258.255 40.8818 258.578 40.9983 258.997 40.9983Z" fill="#170000"/>
<path d="M266.027 42.1164C265.499 42.1164 265.037 42.0194 264.641 41.8252C264.253 41.6233 263.95 41.336 263.733 40.9633C263.523 40.5828 263.418 40.1402 263.418 39.6355V35.8617C263.418 35.3492 263.523 34.9066 263.733 34.5339C263.95 34.1612 264.253 33.8777 264.641 33.6836C265.037 33.4817 265.499 33.3808 266.027 33.3808C266.555 33.3808 267.014 33.4817 267.402 33.6836C267.79 33.8855 268.089 34.1728 268.299 34.5455C268.516 34.9105 268.625 35.3492 268.625 35.8617H267.367C267.367 35.4191 267.25 35.0813 267.017 34.8484C266.785 34.6154 266.455 34.4989 266.027 34.4989C265.6 34.4989 265.266 34.6154 265.026 34.8484C264.793 35.0813 264.676 35.4152 264.676 35.8501V39.6355C264.676 40.0703 264.793 40.4081 265.026 40.6488C265.266 40.8895 265.6 41.0099 266.027 41.0099C266.455 41.0099 266.785 40.8895 267.017 40.6488C267.25 40.4081 267.367 40.0703 267.367 39.6355V38.6804H265.783V37.5739H268.625V39.6355C268.625 40.1402 268.516 40.5789 268.299 40.9517C268.089 41.3244 267.79 41.6117 267.402 41.8136C267.014 42.0155 266.555 42.1164 266.027 42.1164Z" fill="#170000"/>
<path d="M270.449 41.9999V33.4973H273.116C273.652 33.4973 274.118 33.6021 274.514 33.8117C274.91 34.0136 275.217 34.3009 275.434 34.6737C275.659 35.0464 275.772 35.4851 275.772 35.9898C275.772 36.5567 275.624 37.0498 275.329 37.4691C275.042 37.8806 274.65 38.1718 274.153 38.3426L275.888 41.9999H274.456L272.907 38.5057H271.707V41.9999H270.449ZM271.707 37.3992H273.116C273.536 37.3992 273.869 37.2749 274.118 37.0265C274.366 36.7702 274.491 36.4324 274.491 36.0131C274.491 35.5783 274.366 35.2366 274.118 34.9881C273.869 34.7397 273.536 34.6154 273.116 34.6154H271.707V37.3992Z" fill="#170000"/>
<path d="M276.955 41.9999L279.122 33.4973H280.776L282.942 41.9999H281.673L281.16 39.8452H278.749L278.237 41.9999H276.955ZM278.982 38.8085H280.915L280.333 36.3509C280.232 35.9161 280.147 35.5395 280.077 35.2211C280.015 34.895 279.972 34.6737 279.949 34.5572C279.925 34.6737 279.883 34.895 279.821 35.2211C279.759 35.5395 279.673 35.9122 279.564 36.3393L278.982 38.8085Z" fill="#170000"/>
<path d="M284.207 41.9999V33.4973H285.756L286.607 36.2228C286.692 36.479 286.766 36.7275 286.828 36.9682C286.89 37.2012 286.933 37.3759 286.956 37.4924C286.987 37.3759 287.03 37.2012 287.084 36.9682C287.146 36.7275 287.216 36.479 287.294 36.2228L288.109 33.4973H289.658V41.9999H288.47V39.1347C288.47 38.7697 288.478 38.3659 288.493 37.9233C288.517 37.4729 288.548 37.0226 288.587 36.5722C288.625 36.1141 288.664 35.6792 288.703 35.2677C288.742 34.8484 288.777 34.4834 288.808 34.1728L287.55 38.3077H286.339L285.057 34.1728C285.096 34.4757 285.135 34.829 285.174 35.2327C285.213 35.6288 285.248 36.052 285.279 36.5023C285.31 36.9527 285.337 37.4069 285.36 37.8651C285.384 38.3155 285.395 38.7386 285.395 39.1347V41.9999H284.207Z" fill="#170000"/>
<path d="M291.191 41.9999V33.4973H292.74L293.591 36.2228C293.676 36.479 293.75 36.7275 293.812 36.9682C293.874 37.2012 293.917 37.3759 293.94 37.4924C293.971 37.3759 294.014 37.2012 294.068 36.9682C294.13 36.7275 294.2 36.479 294.278 36.2228L295.093 33.4973H296.642V41.9999H295.454V39.1347C295.454 38.7697 295.462 38.3659 295.477 37.9233C295.501 37.4729 295.532 37.0226 295.571 36.5722C295.609 36.1141 295.648 35.6792 295.687 35.2677C295.726 34.8484 295.761 34.4834 295.792 34.1728L294.534 38.3077H293.323L292.041 34.1728C292.08 34.4757 292.119 34.829 292.158 35.2327C292.197 35.6288 292.232 36.052 292.263 36.5023C292.294 36.9527 292.321 37.4069 292.344 37.8651C292.368 38.3155 292.379 38.7386 292.379 39.1347V41.9999H291.191Z" fill="#170000"/>
<path d="M298.501 41.9999V33.4973H303.498V34.6154H299.736V37.0265H303.09V38.133H299.736V40.8818H303.498V41.9999H298.501Z" fill="#170000"/>
<path d="M305.357 41.9999V33.4973H307.733C308.292 33.4973 308.778 33.606 309.189 33.8234C309.601 34.033 309.919 34.332 310.144 34.7203C310.377 35.1085 310.494 35.5666 310.494 36.0947V39.3909C310.494 39.9112 310.377 40.3693 310.144 40.7653C309.919 41.1613 309.601 41.468 309.189 41.6855C308.778 41.8951 308.292 41.9999 307.733 41.9999H305.357ZM306.615 40.8585H307.733C308.199 40.8585 308.564 40.7304 308.828 40.4741C309.1 40.2101 309.236 39.849 309.236 39.3909V36.0947C309.236 35.6443 309.1 35.291 308.828 35.0347C308.564 34.7707 308.199 34.6387 307.733 34.6387H306.615V40.8585Z" fill="#170000"/>
<path d="M388.699 41.9999L390.865 33.4973H392.519L394.685 41.9999H393.416L392.903 39.8452H390.492L389.98 41.9999H388.699ZM390.725 38.8085H392.659L392.076 36.3509C391.975 35.9161 391.89 35.5395 391.82 35.2211C391.758 34.895 391.715 34.6737 391.692 34.5572C391.669 34.6737 391.626 34.895 391.564 35.2211C391.502 35.5395 391.416 35.9122 391.308 36.3393L390.725 38.8085Z" fill="#170000"/>
<path d="M396.125 41.9999V33.4973H397.709L400.19 40.5673C400.175 40.3421 400.155 40.0742 400.132 39.7636C400.109 39.453 400.089 39.1308 400.074 38.7969C400.066 38.463 400.062 38.1601 400.062 37.8884V33.4973H401.227V41.9999H399.643L397.173 34.9299C397.189 35.1318 397.205 35.3842 397.22 35.687C397.243 35.9898 397.259 36.3043 397.267 36.6304C397.282 36.9566 397.29 37.2594 397.29 37.5389V41.9999H396.125Z" fill="#170000"/>
<path d="M403.132 41.9999V33.4973H405.509C406.068 33.4973 406.553 33.606 406.964 33.8234C407.376 34.033 407.694 34.332 407.92 34.7203C408.153 35.1085 408.269 35.5666 408.269 36.0947V39.3909C408.269 39.9112 408.153 40.3693 407.92 40.7653C407.694 41.1613 407.376 41.468 406.964 41.6855C406.553 41.8951 406.068 41.9999 405.509 41.9999H403.132ZM404.39 40.8585H405.509C405.974 40.8585 406.339 40.7304 406.603 40.4741C406.875 40.2101 407.011 39.849 407.011 39.3909V36.0947C407.011 35.6443 406.875 35.291 406.603 35.0347C406.339 34.7707 405.974 34.6387 405.509 34.6387H404.39V40.8585Z" fill="#170000"/>
<path d="M383.895 145.096L381.939 147.052L374.208 139.321C369.682 144.781 367.251 144.84 367.201 144.841C367.201 144.841 364.202 144.84 357.325 135.501C353.768 130.669 353.518 125.065 355.666 120.78L348.843 113.957L350.8 112L383.895 145.096ZM367.201 113.933C378.474 113.933 383.491 126.161 377.076 135.501C376.986 135.632 376.894 135.761 376.805 135.889L374.076 133.16C375.65 131.892 376.658 129.95 376.658 127.771C374.48 127.771 372.537 128.779 371.269 130.353L358.236 117.32C360.454 115.237 363.519 113.933 367.201 113.933ZM357.744 127.771C357.744 131.593 360.843 134.691 364.664 134.691C364.664 130.87 361.566 127.772 357.744 127.771Z" fill="#170000"/>
<path d="M408.825 125.175C409.53 127.855 409.53 130.671 408.825 133.351C406.145 134.056 403.329 134.056 400.649 133.351C399.944 130.671 399.944 127.855 400.649 125.175C403.329 124.47 406.145 124.47 408.825 125.175Z" fill="#170000"/>
<rect x="417" y="117" width="8.17535" height="8.17535" transform="rotate(90 417 117)" fill="#170000"/>
<rect x="417" y="133.351" width="8.17535" height="8.17535" transform="rotate(90 417 133.351)" fill="#170000"/>
<rect x="400.649" y="133.351" width="8.17535" height="8.17535" transform="rotate(90 400.649 133.351)" fill="#170000"/>
<rect x="400.649" y="117" width="8.17535" height="8.17535" transform="rotate(90 400.649 117)" fill="#170000"/>
<path d="M326.665 120.488L318.941 133.925C317.123 137.087 318.17 141.123 321.297 143.002V143.002C324.363 144.845 328.337 143.953 330.32 140.975L341.637 123.985C343.21 121.624 342.49 118.428 340.058 116.968V116.968C337.72 115.565 334.688 116.308 333.264 118.633L322.982 135.407C322.3 136.52 322.62 137.974 323.707 138.697V138.697C324.848 139.457 326.391 139.122 327.115 137.958L336.691 122.552" stroke="black" stroke-width="2"/>
</svg>
